<svg xmlns="http://www.w3.org/2000/svg" width="960" height="560" fill="none"><g clip-path="url(#a)"><path fill="#5dffd8" d="M0 0h960v560H0z"/><g fill="#383838"><path d="M98.9 187v-41.2h9.2V187H99zm18.2 0v-31.3h7.6l.6 4h.3c1.3-1.3 2.7-2.4 4.1-3.3 1.5-1 3.3-1.5 5.3-1.5 2.3 0 4 .5 5.4 1.4a9 9 0 0 1 3.3 3.9c1.4-1.5 2.8-2.7 4.4-3.7 1.5-1 3.4-1.6 5.5-1.6 3.3 0 5.8 1.2 7.3 3.4 1.6 2.3 2.4 5.3 2.4 9.3V187h-9.2v-18.3c0-2.2-.4-3.8-1-4.6-.6-.9-1.6-1.3-2.9-1.3-1.6 0-3.4 1-5.4 3V187h-9.3v-18.3c0-2.2-.3-3.8-1-4.6-.5-.9-1.5-1.3-2.8-1.3-1.6 0-3.4 1-5.3 3V187H117zm54.1 11.6v-43h7.6l.7 3.2h.2a17 17 0 0 1 4.1-2.7 11.3 11.3 0 0 1 10 0 10.9 10.9 0 0 1 3.8 3.2c1 1.4 1.8 3 2.4 5 .6 2 .9 4.1.9 6.5a21 21 0 0 1-1.2 7.2c-.7 2.1-1.7 3.9-3 5.3a12.7 12.7 0 0 1-4.2 3.3 11 11 0 0 1-4.8 1.2 9.8 9.8 0 0 1-4-.9 13 13 0 0 1-3.5-2.4l.3 5v9.1h-9.3zm14.3-18.4c1.6 0 3-.7 4.1-2.2 1.2-1.4 1.7-3.8 1.7-7 0-5.7-1.8-8.5-5.4-8.5-1.8 0-3.6 1-5.4 2.8v12.9c.9.7 1.7 1.2 2.6 1.5s1.6.5 2.4.5zm29.2 7.6c-1.5 0-2.8-.3-4-.8a8.2 8.2 0 0 1-2.8-2 10.2 10.2 0 0 1-2-3c-.4-1.1-.6-2.4-.6-3.7 0-3.3 1.4-5.9 4.2-7.7s7.3-3.1 13.5-3.7a5 5 0 0 0-1.3-3.3c-.7-.9-2-1.3-3.7-1.3-1.3 0-2.7.3-4 .8-1.3.5-2.7 1.2-4.2 2l-3.4-6a33.2 33.2 0 0 1 6.3-3c2.2-.8 4.6-1.2 7-1.2 4.1 0 7.2 1.2 9.3 3.5 2.1 2.3 3.2 5.8 3.2 10.7V187h-7.6l-.6-3.2h-.2a21 21 0 0 1-4.3 2.9 11 11 0 0 1-4.8 1zm3.1-7.2c1 0 2-.3 2.8-.7s1.5-1.1 2.4-2v-5.5c-3.3.5-5.6 1.2-6.9 2s-1.9 2-1.9 3.2c0 1 .4 1.8 1 2.3.7.4 1.6.7 2.6.7zm36 7.2a17 17 0 0 1-6.2-1.1 14.6 14.6 0 0 1-4.9-3.2 15.2 15.2 0 0 1-3.2-5.1c-.8-2.1-1.2-4.4-1.2-7s.4-5 1.3-7 2-3.8 3.5-5.2a15.5 15.5 0 0 1 5.3-3.1 17.2 17.2 0 0 1 6.2-1.2c1.9 0 3.6.4 5 1a16 16 0 0 1 4.1 2.4l-4.4 6a6.7 6.7 0 0 0-4.2-1.9c-2.3 0-4 .8-5.4 2.4s-2 3.8-2 6.5.7 5 2 6.5c1.4 1.6 3 2.4 5 2.4a7 7 0 0 0 3-.6 16.1 16.1 0 0 0 2.7-1.6l3.7 6a14.4 14.4 0 0 1-5 3c-1.9.5-3.6.8-5.4.8zm27.2 0c-2 0-3.6-.3-5-1a9.2 9.2 0 0 1-3.3-2.4c-.9-1-1.5-2.3-2-3.8-.3-1.5-.5-3.2-.5-5V163h-4.3v-7l4.8-.3 1.1-8.3h7.7v8.3h7.5v7.3h-7.5v12.5c0 1.8.4 3 1 3.9a4 4 0 0 0 3 1.1c.6 0 1 0 1.6-.2a9.9 9.9 0 0 0 1.4-.4l1.5 6.7-3 .8c-1.1.2-2.5.4-4 .4zm-168.9 71c-2.2 0-4.3-.4-6.2-1.1a15 15 0 0 1-5-3.2c-1.5-1.5-2.6-3.2-3.4-5.2s-1.2-4.4-1.2-7a17.4 17.4 0 0 1 4.5-12c1.4-1.4 3-2.5 4.8-3.2a13.8 13.8 0 0 1 5.5-1.2c2.2 0 4.1.4 5.8 1.2 1.6.7 3 1.8 4.1 3.1 1.2 1.4 2 3 2.6 4.8.5 1.8.8 3.8.8 6a21.6 21.6 0 0 1-.1 2.3l-.3 1.7h-18.8c.5 2.3 1.4 4 2.8 5.1a9 9 0 0 0 5.4 1.6c2.2 0 4.5-.7 6.7-2.1l3.1 5.6a20.7 20.7 0 0 1-11 3.6zm-6.9-19.9h11.3c0-1.7-.4-3.2-1.2-4.3s-2.2-1.6-4-1.6c-1.5 0-2.8.5-4 1.4a7.3 7.3 0 0 0-2.1 4.5zm25.6 19.1v-31.3h7.6l.6 4h.3a24 24 0 0 1 4.4-3.3c1.6-1 3.4-1.5 5.6-1.5 3.4 0 5.9 1.1 7.4 3.4a16 16 0 0 1 2.3 9.2V258h-9.3v-18.3c0-2.2-.3-3.8-1-4.6-.5-.9-1.5-1.3-2.8-1.3-1.2 0-2.2.3-3 .8-.9.5-1.8 1.3-2.8 2.2V258h-9.3zm43.3 0l-10.5-31.3h9.3l4 14.8 1.3 4.8 1.2 4.8h.3l1.1-4.8 1.3-4.8 4.1-14.8h9L184.8 258H174zm25.9 0v-31.3h9.3V258H200zm4.6-36c-1.6 0-2.8-.4-3.9-1.3-1-.9-1.5-2-1.5-3.5s.5-2.6 1.5-3.5 2.3-1.3 3.9-1.3 2.9.5 3.9 1.4c1 .8 1.4 2 1.4 3.4s-.5 2.6-1.5 3.6c-1 .9-2.2 1.3-3.8 1.3zm12.8 36v-31.3h7.6l.6 5.5h.3c1.1-2.2 2.5-3.7 4-4.8s3.3-1.5 4.9-1.5a9.5 9.5 0 0 1 3.7.7l-1.5 8a14.1 14.1 0 0 0-3.4-.5 7 7 0 0 0-3.7 1.2 9.2 9.2 0 0 0-3.2 4.5V258h-9.3zm38 .8a15.8 15.8 0 0 1-5.7-1.1 15.3 15.3 0 0 1-5-3.2 15.7 15.7 0 0 1-3.3-5.1c-.8-2.1-1.3-4.4-1.3-7s.5-5 1.3-7a14.3 14.3 0 0 1 8.3-8.3 15 15 0 0 1 5.7-1.2 14.6 14.6 0 0 1 5.7 1.2c1.9.7 3.5 1.7 4.9 3.1a15 15 0 0 1 3.4 5.2c.8 2 1.3 4.3 1.3 7s-.5 4.9-1.3 7c-.8 2-2 3.7-3.4 5a14.7 14.7 0 0 1-4.9 3.3 15.3 15.3 0 0 1-5.6 1zm0-7.6c2 0 3.4-.8 4.3-2.4s1.5-3.7 1.5-6.5-.5-4.9-1.5-6.5-2.4-2.4-4.3-2.4c-2 0-3.4.8-4.3 2.4-1 1.6-1.4 3.8-1.4 6.5s.4 5 1.4 6.5c1 1.6 2.4 2.4 4.3 2.4zM277 258v-31.3h7.6l.6 4h.3a24 24 0 0 1 4.4-3.3c1.6-1 3.5-1.5 5.6-1.5 3.4 0 5.9 1.1 7.4 3.4a16 16 0 0 1 2.3 9.2V258H296v-18.3c0-2.2-.3-3.8-.9-4.6-.6-.9-1.6-1.3-2.9-1.3-1.2 0-2.2.3-3 .8-.9.5-1.8 1.3-2.8 2.2V258H277zm36.1 0v-31.3h7.6l.6 4h.3a24.1 24.1 0 0 1 4.4-3.3c1.6-1 3.5-1.5 5.6-1.5 3.4 0 6 1.1 7.4 3.4a16 16 0 0 1 2.4 9.2V258H332v-18.3c0-2.2-.3-3.8-1-4.6-.6-.9-1.5-1.3-2.9-1.3-1.1 0-2.2.3-3 .8-.8.5-1.8 1.3-2.8 2.2V258h-9.2zm50.2.8c-2.3 0-4.3-.4-6.3-1.1-2-.8-3.6-1.8-5-3.2-1.5-1.5-2.6-3.2-3.4-5.2s-1.2-4.4-1.2-7a17.4 17.4 0 0 1 4.6-12c1.4-1.4 3-2.5 4.7-3.2a13.8 13.8 0 0 1 5.5-1.2c2.2 0 4.2.4 5.8 1.2 1.7.7 3 1.8 4.2 3.1 1.1 1.4 2 3 2.5 4.8.5 1.8.8 3.8.8 6a21.8 21.8 0 0 1-.1 2.4l-.2 1.7h-18.8c.4 2.2 1.4 4 2.8 5a9 9 0 0 0 5.3 1.6c2.3 0 4.5-.7 6.8-2l3.1 5.5a20.7 20.7 0 0 1-11.1 3.6zm-7-19.9h11.3c0-1.7-.4-3.2-1.2-4.3s-2.1-1.6-4-1.6a5.9 5.9 0 0 0-3.9 1.4 7.4 7.4 0 0 0-2.1 4.5zM382 258v-31.3h7.6l.7 4h.2c1.3-1.3 2.7-2.4 4.2-3.3 1.4-1 3.2-1.5 5.3-1.5 2.2 0 4 .5 5.3 1.4a9 9 0 0 1 3.3 3.9c1.4-1.5 2.9-2.7 4.4-3.7 1.5-1 3.4-1.6 5.5-1.6 3.3 0 5.8 1.2 7.4 3.4 1.6 2.3 2.4 5.3 2.4 9.3V258h-9.3v-18.3c0-2.2-.3-3.8-1-4.6-.6-.9-1.5-1.3-2.9-1.3-1.5 0-3.3 1-5.3 3V258h-9.3v-18.3c0-2.2-.3-3.8-1-4.6-.6-.9-1.5-1.3-2.9-1.3-1.6 0-3.3 1-5.3 3V258H382zm68.2.8c-2.2 0-4.3-.4-6.2-1.1-2-.8-3.6-1.8-5-3.2-1.5-1.5-2.6-3.2-3.4-5.2s-1.2-4.4-1.2-7a17.6 17.6 0 0 1 4.5-12c1.4-1.4 3-2.5 4.7-3.2a13.8 13.8 0 0 1 5.6-1.2c2.2 0 4.1.4 5.7 1.2 1.7.7 3.1 1.8 4.2 3.1 1.2 1.4 2 3 2.5 4.8a20.3 20.3 0 0 1 .7 8.4l-.2 1.7h-18.8c.5 2.2 1.4 4 2.8 5a9 9 0 0 0 5.4 1.6c2.2 0 4.5-.7 6.7-2l3.1 5.5a20.7 20.7 0 0 1-11 3.6zm-7-19.9h11.4c0-1.7-.4-3.2-1.2-4.3s-2.2-1.6-4-1.6a5.9 5.9 0 0 0-4 1.4 7.4 7.4 0 0 0-2.1 4.5zm25.7 19.1v-31.3h7.6l.6 4h.2a24 24 0 0 1 4.5-3.3c1.6-1 3.4-1.5 5.6-1.5 3.4 0 5.9 1.1 7.4 3.4a16 16 0 0 1 2.3 9.2V258h-9.3v-18.3c0-2.2-.3-3.8-1-4.6-.5-.9-1.5-1.3-2.8-1.3-1.2 0-2.2.3-3 .8-.9.5-1.8 1.3-2.8 2.2V258h-9.3zm48.2.8c-2 0-3.6-.3-5-1a9.2 9.2 0 0 1-3.4-2.4c-.8-1-1.4-2.3-1.9-3.8-.3-1.5-.5-3.2-.5-5V234h-4.3v-7l4.8-.3 1-8.3h7.8v8.3h7.5v7.3h-7.5v12.5c0 1.8.3 3 1 3.9a4 4 0 0 0 3 1.1 6.2 6.2 0 0 0 1.5-.2l1.5-.4 1.4 6.7-3 .8c-1 .2-2.4.4-4 .4zm18.8 0c-1.5 0-2.8-.3-4-.8a8.2 8.2 0 0 1-2.9-2 10.2 10.2 0 0 1-1.9-3 11 11 0 0 1-.6-3.7c0-3.3 1.4-5.9 4.2-7.7s7.3-3.1 13.4-3.7a5 5 0 0 0-1.2-3.3c-.7-.9-2-1.3-3.7-1.3-1.3 0-2.7.3-4 .8l-4.3 2-3.3-6a33.2 33.2 0 0 1 6.3-3c2.2-.8 4.6-1.2 7-1.2 4.1 0 7.2 1.2 9.3 3.5 2.1 2.3 3.2 5.8 3.2 10.7V258h-7.6l-.6-3.2h-.2a21 21 0 0 1-4.3 2.9 11 11 0 0 1-4.8 1zm3.1-7.2c1 0 2-.3 2.7-.7s1.6-1.1 2.4-2v-5.5c-3.3.5-5.5 1.2-6.8 2s-1.9 2-1.9 3.2c0 1 .3 1.8 1 2.3.7.4 1.5.7 2.6.7zm30.8 7.2c-1.6 0-3-.3-4-.8s-2-1.2-2.7-2c-.6-1-1.1-2.1-1.4-3.4-.3-1.3-.5-2.7-.5-4.3v-34.6h9.3v35c0 1 .2 1.6.5 2 .4.4.8.5 1.2.5h1.1l1.2 6.8a9 9 0 0 1-2 .5c-.8.2-1.7.3-2.7.3zm-460.4 71a12 12 0 0 1-9.3-4.4c-1.2-1.4-2-3.2-2.7-5.2a24.1 24.1 0 0 1 .2-13.7c.8-2 1.7-3.8 3-5.2 1.1-1.4 2.5-2.5 4.1-3.2a11.2 11.2 0 0 1 9.2-.3c1.2.6 2.3 1.4 3.4 2.4l-.4-4.8v-10.7h9.3V329h-7.6l-.6-3.1h-.3c-1 1.1-2.4 2-3.8 2.8-1.5.7-3 1-4.5 1zm2.4-7.6c1 0 2-.2 2.7-.6a7 7 0 0 0 2.4-2.3v-12.8a7.3 7.3 0 0 0-2.6-1.5 8.1 8.1 0 0 0-2.6-.5c-1.5 0-2.8.7-3.9 2.2-1.1 1.4-1.7 3.5-1.7 6.5 0 3.2.5 5.4 1.4 6.9 1 1.4 2.5 2.1 4.3 2.1zm32 7.6c-3.4 0-5.9-1.2-7.4-3.4a16.4 16.4 0 0 1-2.3-9.3v-19.4h9.3v18.2c0 2.3.3 3.9 1 4.7s1.5 1.3 2.9 1.3c1.2 0 2.1-.3 3-.8s1.6-1.5 2.5-2.7v-20.7h9.3V329h-7.6l-.7-4.4h-.2a17.6 17.6 0 0 1-4.3 3.8c-1.5 1-3.3 1.4-5.5 1.4zm52.8 0a17 17 0 0 1-6.1-1.1 14.6 14.6 0 0 1-4.9-3.2 15 15 0 0 1-3.3-5.1c-.8-2.1-1.2-4.4-1.2-7s.5-5 1.3-7c1-2 2.1-3.8 3.6-5.2a15.5 15.5 0 0 1 5.2-3.1 17.2 17.2 0 0 1 6.2-1.2c2 0 3.7.4 5.1 1 1.5.6 2.9 1.4 4 2.4l-4.3 6a6.8 6.8 0 0 0-4.2-1.9c-2.3 0-4 .9-5.4 2.5s-2 3.7-2 6.4.7 5 2 6.5c1.3 1.6 3 2.4 5 2.4a7 7 0 0 0 3-.6 16.1 16.1 0 0 0 2.7-1.6l3.6 6a14.4 14.4 0 0 1-5 3c-1.8.5-3.6.8-5.3.8zm19.3 11.5l-2.5-.2a10 10 0 0 1-2-.5l1.7-7 1 .2a5 5 0 0 0 1 .1c1.6 0 2.8-.4 3.7-1.1s1.5-1.8 1.9-3l.4-1.6-12-30.5h9.3l4.5 13.4 1.2 4.4 1.2 4.5h.3l1-4.4 1.1-4.5 3.8-13.4h9l-11 31.6c-.7 2-1.5 3.7-2.3 5.2a13 13 0 0 1-2.9 3.7 10.3 10.3 0 0 1-3.6 2.3c-1.4.5-3 .8-4.8.8zm42.6-11.5a17 17 0 0 1-6.1-1.1 14.6 14.6 0 0 1-4.9-3.2 15 15 0 0 1-3.3-5.1c-.8-2.1-1.2-4.4-1.2-7s.5-5 1.3-7c1-2 2.1-3.8 3.6-5.2a15.4 15.4 0 0 1 5.2-3.1 17.1 17.1 0 0 1 6.2-1.2c2 0 3.7.4 5.1 1a16 16 0 0 1 4 2.4l-4.3 6a6.8 6.8 0 0 0-4.2-1.9c-2.3 0-4 .9-5.4 2.5s-2 3.7-2 6.4.7 5 2 6.5c1.4 1.6 3 2.4 5 2.4 1 0 2-.2 3-.6a16.1 16.1 0 0 0 2.7-1.6l3.6 6a14.8 14.8 0 0 1-10.3 3.8zm24.4 0c-1.6 0-3-.3-4-.8s-2-1.2-2.7-2c-.7-1-1.1-2.1-1.4-3.4-.3-1.3-.5-2.7-.5-4.3v-34.6h9.3v35c0 1 .2 1.6.5 2 .4.3.8.5 1.2.5h1.1l1.1 6.8c-.5.2-1.1.4-2 .5-.7.2-1.6.3-2.6.3zm23.5 0c-2.2 0-4.3-.4-6.2-1.1-2-.8-3.7-1.8-5-3.2-1.5-1.5-2.6-3.2-3.4-5.2s-1.2-4.4-1.2-7a17.6 17.6 0 0 1 4.5-12c1.4-1.4 3-2.5 4.8-3.3a13.8 13.8 0 0 1 5.5-1c2.2 0 4.1.3 5.8 1 1.6.8 3 1.9 4.1 3.2 1.1 1.4 2 3 2.5 4.8.6 1.8.9 3.8.9 6a21.8 21.8 0 0 1-.2 2.3l-.2 1.7h-18.7c.4 2.3 1.3 4 2.7 5.1a9 9 0 0 0 5.4 1.6c2.2 0 4.5-.7 6.8-2l3 5.5a20.7 20.7 0 0 1-11 3.6zm-7-19.9h11.4c0-1.7-.4-3.2-1.2-4.3s-2.2-1.6-4-1.6c-1.5 0-2.8.5-4 1.4a7.3 7.3 0 0 0-2.1 4.5zm49.5 19.9a12 12 0 0 1-9.4-4.4c-1-1.4-2-3.2-2.6-5.2a24.1 24.1 0 0 1 .2-13.7c.8-2 1.8-3.8 3-5.2 1.2-1.4 2.5-2.5 4.1-3.2a11.2 11.2 0 0 1 9.2-.3c1.2.6 2.3 1.4 3.4 2.4l-.4-4.8v-10.7h9.3V329H358l-.6-3.1h-.3a15 15 0 0 1-3.8 2.8c-1.5.7-3 1-4.5 1zm2.4-7.6c1 0 2-.2 2.7-.6a7 7 0 0 0 2.4-2.3v-12.8a7.3 7.3 0 0 0-2.6-1.5 8.1 8.1 0 0 0-2.6-.5c-1.5 0-2.8.7-3.9 2.2-1.1 1.4-1.7 3.5-1.7 6.5 0 3.2.5 5.4 1.4 6.9 1 1.4 2.5 2.1 4.3 2.1zm36.6 7.6c-2.2 0-4.3-.4-6.2-1.1a15 15 0 0 1-5-3.2c-1.5-1.5-2.6-3.2-3.4-5.2s-1.2-4.4-1.2-7a17.6 17.6 0 0 1 4.5-12c1.4-1.4 3-2.5 4.8-3.3a13.8 13.8 0 0 1 5.5-1c2.2 0 4.1.3 5.8 1 1.6.8 3 1.9 4.1 3.2 1.2 1.4 2 3 2.6 4.8.5 1.8.8 3.8.8 6a21.8 21.8 0 0 1-.2 2.3l-.2 1.7h-18.8c.4 2.3 1.4 4 2.8 5.1a9 9 0 0 0 5.4 1.6c2.2 0 4.5-.7 6.7-2l3.1 5.5a20.6 20.6 0 0 1-11 3.6zm-6.9-19.9h11.3c0-1.7-.4-3.2-1.2-4.3s-2.1-1.6-4-1.6c-1.5 0-2.8.5-4 1.4a7.5 7.5 0 0 0-2 4.5zm45.4 19.1l-10.5-31.3h9.3l4 14.8 1.3 4.8 1.2 4.8h.3l1.1-4.8 1.3-4.8 4.1-14.8h8.9L437.1 329h-10.7zm25.9 0v-31.3h9.3V329h-9.3zm4.6-36c-1.6 0-2.8-.4-3.9-1.3-1-.9-1.5-2-1.5-3.5s.5-2.6 1.5-3.5 2.3-1.3 3.9-1.3 2.9.5 3.9 1.4c1 .8 1.5 2 1.5 3.4s-.5 2.6-1.5 3.6c-1 .9-2.3 1.3-3.9 1.3zm26.9 36.8c-2.3 0-4.3-.4-6.3-1.1a15 15 0 0 1-5-3.2c-1.5-1.5-2.6-3.2-3.4-5.2s-1.2-4.4-1.2-7a17.6 17.6 0 0 1 4.6-12c1.4-1.4 3-2.5 4.7-3.3a13.8 13.8 0 0 1 5.5-1c2.2 0 4.2.3 5.8 1 1.7.8 3 1.9 4.2 3.2 1.1 1.4 2 3 2.5 4.8.5 1.8.8 3.8.8 6a21.8 21.8 0 0 1-.1 2.3l-.3 1.7h-18.7c.4 2.3 1.3 4 2.8 5.1a9 9 0 0 0 5.3 1.6c2.3 0 4.5-.7 6.8-2l3 5.5a20.6 20.6 0 0 1-11 3.6zm-7-19.9H488c0-1.7-.4-3.2-1.2-4.3s-2.1-1.6-4-1.6a5.9 5.9 0 0 0-4 1.4 7.5 7.5 0 0 0-2 4.5zm-367.4 90.9a12 12 0 0 1-9.3-4.4c-1.2-1.4-2-3.2-2.7-5.2a24.1 24.1 0 0 1 .2-13.7c.8-2 1.8-3.8 3-5.2 1.2-1.4 2.5-2.5 4.1-3.2a11.2 11.2 0 0 1 9.2-.3 16 16 0 0 1 3.4 2.4l-.4-4.8v-10.7h9.3V400h-7.6l-.6-3.1h-.3c-1 1.1-2.4 2-3.8 2.8-1.5.7-3 1-4.5 1zm2.4-7.6c1 0 1.9-.2 2.7-.6a7 7 0 0 0 2.4-2.3v-12.8a7.4 7.4 0 0 0-2.6-1.5 8.1 8.1 0 0 0-2.6-.5c-1.5 0-2.8.7-3.9 2.2-1.1 1.4-1.7 3.5-1.7 6.5 0 3.2.5 5.4 1.4 6.9 1 1.4 2.5 2.1 4.3 2.1zm36.6 7.6c-2.2 0-4.3-.4-6.2-1.1-2-.8-3.6-1.8-5-3.2-1.5-1.5-2.6-3.2-3.4-5.2s-1.2-4.4-1.2-7a17.6 17.6 0 0 1 4.5-12c1.4-1.4 3-2.5 4.8-3.3a13.8 13.8 0 0 1 5.5-1c2.2 0 4.1.3 5.8 1a13 13 0 0 1 6.7 8c.5 1.8.8 3.8.8 6a21.8 21.8 0 0 1-.2 2.3l-.2 1.7h-18.7c.4 2.3 1.3 4 2.7 5.1a9 9 0 0 0 5.4 1.6c2.2 0 4.5-.7 6.7-2l3.1 5.5a20.7 20.7 0 0 1-11 3.6zm-7-19.9h11.4c0-1.7-.4-3.2-1.2-4.3s-2.2-1.6-4-1.6a5.9 5.9 0 0 0-4 1.4 7.3 7.3 0 0 0-2.1 4.5zm34.9 19.9a19.5 19.5 0 0 1-12-4.4l4.2-5.8c1.4 1.1 2.8 2 4 2.5s2.7.8 4 .8c1.5 0 2.5-.3 3.1-.7s1-1.1 1-2a1.8 1.8 0 0 0-.6-1.3c-.4-.4-.8-.8-1.5-1.1a11.2 11.2 0 0 0-2-.9l-2.3-1c-1-.3-2-.8-3-1.3s-1.8-1-2.6-1.8a9.7 9.7 0 0 1-2-2.6 9.7 9.7 0 0 1 0-7.4 8.8 8.8 0 0 1 2.6-3.2 14.6 14.6 0 0 1 8.7-2.7c2.4 0 4.5.5 6.3 1.3 1.8.8 3.4 1.7 4.7 2.7l-4.1 5.6c-1.2-.9-2.3-1.5-3.4-2s-2.2-.7-3.3-.7c-2.3 0-3.5.8-3.5 2.5a2 2 0 0 0 .5 1.3l1.3 1 2 .8 2.3.9c1 .3 2 .8 3 1.3a10.8 10.8 0 0 1 2.7 1.7 8 8 0 0 1 2 2.7 9.5 9.5 0 0 1 0 7.6 8.9 8.9 0 0 1-2.5 3.3c-1 .9-2.4 1.6-4 2.1s-3.5.8-5.6.8zm31.4 10.8v-43h7.6l.6 3.2h.3c1.2-1.1 2.6-2 4-2.7a11.2 11.2 0 0 1 9.9 0 10.9 10.9 0 0 1 4 3.2c1 1.4 1.8 3 2.4 5 .6 2 .8 4.1.8 6.5a21 21 0 0 1-1.1 7.2c-.7 2.1-1.7 3.9-3 5.3a12.7 12.7 0 0 1-4.2 3.3 11 11 0 0 1-4.9 1.2 9.8 9.8 0 0 1-3.9-.9c-1.2-.6-2.4-1.4-3.5-2.4l.3 5v9.1h-9.3zm14.3-18.4c1.6 0 3-.7 4-2.2 1.2-1.4 1.8-3.8 1.8-7 0-5.7-1.8-8.5-5.4-8.5-1.8 0-3.6 1-5.4 2.8v12.9c.9.7 1.7 1.2 2.5 1.5s1.7.5 2.5.5zm30.4 7.6c-1.6 0-3-.3-4-.8s-2-1.2-2.6-2c-.7-1-1.1-2.1-1.4-3.4-.3-1.3-.5-2.7-.5-4.3v-34.6h9.3v35c0 1 .2 1.6.5 2 .4.4.8.5 1.2.5h1.1l1.1 6.8a9 9 0 0 1-2 .5c-.7.2-1.6.3-2.6.3zm17.5 0c-1.5 0-2.8-.3-4-.8a8.2 8.2 0 0 1-2.8-2 10.2 10.2 0 0 1-2-3c-.4-1.1-.6-2.4-.6-3.7 0-3.3 1.4-5.8 4.2-7.7s7.3-3.1 13.5-3.7a5 5 0 0 0-1.3-3.3c-.7-.9-2-1.3-3.7-1.3-1.3 0-2.7.3-4 .8l-4.3 2-3.3-6a33.2 33.2 0 0 1 6.3-3c2.2-.8 4.6-1.2 7-1.2 4.1 0 7.2 1.2 9.3 3.5 2.2 2.3 3.2 5.8 3.2 10.7V400h-7.5l-.7-3.2h-.2a20.8 20.8 0 0 1-4.3 2.9 11 11 0 0 1-4.8 1zm3.1-7.2c1 0 2-.3 2.7-.7s1.6-1.1 2.4-2v-5.5c-3.3.5-5.5 1.2-6.8 2s-1.9 2-1.9 3.2c0 1 .3 1.8 1 2.3.6.4 1.5.7 2.6.7zm31.5 7.2a19.5 19.5 0 0 1-12-4.4l4.2-5.8c1.4 1.1 2.8 2 4 2.5s2.7.8 4 .8c1.5 0 2.5-.3 3-.7s1-1.1 1-2c0-.5-.2-1-.5-1.3-.4-.4-.9-.8-1.5-1.1a11.2 11.2 0 0 0-2-.9l-2.3-1a29.4 29.4 0 0 1-3-1.3 13 13 0 0 1-2.6-1.8 9.8 9.8 0 0 1-2-2.6 9.9 9.9 0 0 1 0-7.4c.7-1.3 1.5-2.3 2.6-3.2s2.3-1.5 3.8-1.9c1.4-.5 3-.8 4.9-.8 2.4 0 4.5.5 6.3 1.3 1.8.8 3.4 1.7 4.7 2.7l-4.1 5.6c-1.2-.9-2.3-1.5-3.4-2s-2.2-.7-3.3-.7c-2.3 0-3.5.8-3.5 2.5a2 2 0 0 0 .5 1.3l1.3 1 2 .8 2.3.9a27 27 0 0 1 5.7 3 8.2 8.2 0 0 1 2.8 6.3c0 1.5-.3 2.8-.8 4S315 397 314 398a13 13 0 0 1-4 2.1c-1.6.5-3.5.8-5.6.8zm29.6 0c-2 0-3.6-.3-5-1a9.2 9.2 0 0 1-3.3-2.4c-.9-1-1.5-2.3-2-3.8-.3-1.5-.5-3.2-.5-5V376h-4.3v-6.8l4.8-.4 1-8.3h7.8v8.3h7.5v7.3h-7.5v12.5c0 1.8.4 3 1 3.9a4 4 0 0 0 3 1.1 6.2 6.2 0 0 0 1.6-.2 9.8 9.8 0 0 0 1.4-.4l1.5 6.7-3 .8c-1.1.2-2.5.4-4 .4zm12.1-.8v-31.3h9.3V400h-9.3zm4.6-36c-1.5 0-2.8-.4-3.8-1.3s-1.5-2-1.5-3.5.5-2.6 1.5-3.5 2.3-1.3 3.8-1.3c1.6 0 2.9.5 3.9 1.4 1 .8 1.5 2 1.5 3.4s-.5 2.6-1.5 3.6c-1 .9-2.3 1.3-3.9 1.3zm31.6 47.6v-9.5l.3-4.8c-1 1-2.2 1.8-3.6 2.5a10 10 0 0 1-4.3 1 12 12 0 0 1-9.4-4.4c-1-1.4-1.8-3.2-2.5-5.2a24.1 24.1 0 0 1 .2-13.7c.8-2 1.7-3.8 2.9-5.2 1.2-1.4 2.6-2.5 4.2-3.2a11.2 11.2 0 0 1 9.4-.2c1.3.6 2.5 1.5 3.8 2.9h.2l.8-3.1h7.2v43h-9.3zm-5.1-18.4c1 0 1.9-.2 2.7-.6a7 7 0 0 0 2.4-2.3v-12.8a7.3 7.3 0 0 0-5.2-2c-1.5 0-2.8.7-4 2.2-1 1.4-1.7 3.5-1.7 6.5 0 3.2.5 5.4 1.5 6.9 1 1.4 2.4 2.1 4.2 2.1zm32 7.6c-3.4 0-6-1.2-7.5-3.4a16.2 16.2 0 0 1-2.3-9.3v-19.4h9.3v18.2c0 2.3.3 3.9 1 4.7s1.6 1.3 3 1.3c1.1 0 2.1-.3 2.9-.8s1.7-1.5 2.6-2.7v-20.7h9.3V400h-7.6l-.7-4.4h-.2a17.6 17.6 0 0 1-4.3 3.8c-1.5 1-3.4 1.4-5.5 1.4zm40.5 0c-2.3 0-4.3-.4-6.3-1.1-2-.8-3.6-1.8-5-3.2-1.5-1.5-2.6-3.2-3.4-5.2s-1.2-4.4-1.2-7a17.6 17.6 0 0 1 4.6-12c1.4-1.4 3-2.5 4.7-3.3a13.8 13.8 0 0 1 5.5-1c2.2 0 4.2.3 5.8 1 1.7.8 3 1.9 4.2 3.2 1 1.4 2 3 2.5 4.8.5 1.8.8 3.8.8 6a21.8 21.8 0 0 1-.1 2.3l-.3 1.7h-18.7c.4 2.3 1.3 4 2.8 5.1a9 9 0 0 0 5.3 1.6c2.3 0 4.5-.7 6.8-2l3.1 5.5a20.7 20.7 0 0 1-11.1 3.6zm-7-19.9H454c0-1.7-.4-3.2-1.2-4.3s-2.1-1.6-4-1.6c-1.5 0-2.8.5-3.9 1.4a7.5 7.5 0 0 0-2.2 4.5zm34.9 19.9a19.6 19.6 0 0 1-12-4.4l4.1-5.8c1.4 1.1 2.8 2 4.1 2.5s2.7.8 4 .8c1.4 0 2.4-.3 3-.7s1-1.1 1-2c0-.5-.2-1-.6-1.3-.3-.4-.8-.8-1.4-1.1a11.2 11.2 0 0 0-2-.9l-2.4-1a29.2 29.2 0 0 1-3-1.3 13 13 0 0 1-2.6-1.8 9.8 9.8 0 0 1-2-2.6 9.6 9.6 0 0 1 0-7.4 10 10 0 0 1 6.3-5c1.6-.6 3.2-.9 5-.9 2.4 0 4.5.5 6.3 1.3 1.8.8 3.4 1.7 4.8 2.7l-4.2 5.6c-1.1-.9-2.2-1.5-3.3-2s-2.2-.7-3.3-.7c-2.4 0-3.5.8-3.5 2.5a2 2 0 0 0 .5 1.3l1.3 1 2 .8 2.3.9a27 27 0 0 1 5.7 3 8.1 8.1 0 0 1 2.8 6.3c0 1.5-.3 2.8-.9 4a9.9 9.9 0 0 1-6.5 5.4c-1.6.5-3.4.8-5.5.8z"/><ellipse cx="915.5" cy="441.5" rx="251.5" ry="253.5"/></g><g fill="#c4c4c4"><ellipse cx="960" cy="493.5" rx="81" ry="80.5"/><ellipse cx="849" cy="323.5" rx="44" ry="43.5"/></g><circle cx="921" cy="491" r="14" fill="#9bffe7"/><path stroke="#9bffe7" stroke-width="30" d="M0 545h960"/></g><defs><clipPath id="a"><path fill="#fff" d="M0 0h960v560H0z"/></clipPath></defs></svg>