<svg xmlns="http://www.w3.org/2000/svg" width="1024" height="503" fill="none"><path fill="#fff" d="M0 0h1024v503H0z"/><path fill="#383838" d="M235.9 168v-41.2H250c2.3 0 4.4.3 6.4.7a14 14 0 0 1 5.2 2.2c1.4 1 2.6 2.4 3.4 4.1 1 1.7 1.4 3.8 1.4 6.3 0 2.4-.5 4.4-1.4 6.2-.8 1.8-2 3.2-3.4 4.4a15 15 0 0 1-5.2 2.5c-1.9.5-4 .8-6.1.8H245v14H236zm9.2-21.3h4.6c5 0 7.6-2.2 7.6-6.6 0-2.2-.7-3.7-2-4.6-1.4-.9-3.4-1.3-5.9-1.3h-4.3v12.4zm27.6 21.3v-31.3h7.6l.6 5.5h.3a12 12 0 0 1 4-4.8 9 9 0 0 1 4.9-1.5 10.5 10.5 0 0 1 3.7.7l-1.5 8-1.7-.4-1.7-.1a7 7 0 0 0-3.8 1.3 9.3 9.3 0 0 0-3.1 4.5V168h-9.3zm38 .8a15 15 0 0 1-14-9.4c-.9-2.1-1.3-4.4-1.3-7 0-2.7.4-5 1.3-7 .8-2 2-3.8 3.3-5.2 1.4-1.4 3-2.4 5-3.1a15 15 0 0 1 19.6 8.3c.9 2 1.3 4.3 1.3 7 0 2.5-.4 4.9-1.3 7a15.2 15.2 0 0 1-8.2 8.3c-1.9.7-3.7 1-5.7 1zm0-7.6c1.9 0 3.3-.8 4.3-2.4 1-1.6 1.4-3.7 1.4-6.5s-.4-4.9-1.4-6.5a4.7 4.7 0 0 0-4.3-2.4c-2 0-3.4.8-4.3 2.4-1 1.6-1.5 3.8-1.5 6.5s.5 5 1.5 6.5c1 1.6 2.4 2.4 4.3 2.4zm32.8 7.6a12 12 0 0 1-9.4-4.4 17 17 0 0 1-2.6-5.2 24.1 24.1 0 0 1 .2-13.7c.8-2 1.8-3.8 3-5.2 1.2-1.4 2.6-2.5 4.1-3.2a11.2 11.2 0 0 1 9.2-.3c1.2.6 2.3 1.4 3.4 2.4l-.4-4.8v-10.6h9.3V168h-7.6l-.6-3.1h-.3c-1 1.1-2.4 2-3.8 2.8-1.5.7-3 1-4.5 1zm2.4-7.6c1 0 1.9-.2 2.7-.7.8-.4 1.6-1.1 2.4-2.2v-12.8a7.4 7.4 0 0 0-5.2-2c-1.5 0-2.8.7-4 2.1-1 1.4-1.6 3.6-1.6 6.6 0 3.1.5 5.4 1.4 6.8 1 1.4 2.4 2.2 4.3 2.2zm32 7.6c-3.4 0-6-1.2-7.5-3.4a16.3 16.3 0 0 1-2.2-9.3v-19.4h9.2v18.2c0 2.3.4 3.9 1 4.7.6.9 1.6 1.3 3 1.3 1.1 0 2.1-.3 2.9-.8.8-.6 1.7-1.5 2.6-2.7v-20.7h9.3V168h-7.6l-.7-4.4h-.2a17.4 17.4 0 0 1-4.3 3.8c-1.6 1-3.4 1.4-5.5 1.4zm40.1 0a14.5 14.5 0 0 1-14.3-9.4c-.7-2.1-1.1-4.4-1.1-7 0-2.7.4-5 1.3-7s2-3.8 3.5-5.2a17.1 17.1 0 0 1 11.4-4.3c2 0 3.7.3 5.1 1a16 16 0 0 1 4 2.4l-4.3 6a6.7 6.7 0 0 0-4.2-1.9c-2.3 0-4 .8-5.4 2.4-1.3 1.6-2 3.8-2 6.5s.7 5 2 6.5c1.4 1.6 3 2.4 5 2.4 1 0 2-.2 3-.6 1-.4 1.8-1 2.7-1.6l3.6 6a14.3 14.3 0 0 1-5 3c-1.8.5-3.6.8-5.3.8zm27.3 0c-2 0-3.6-.3-5-1a9 9 0 0 1-5.3-6.2 21 21 0 0 1-.5-5V144h-4.3v-7l4.8-.3 1-8.3h7.8v8.3h7.5v7.2h-7.5v12.6c0 1.8.3 3 1 3.9a4 4 0 0 0 3 1.1c.5 0 1 0 1.5-.2a9 9 0 0 0 1.5-.4l1.4 6.7-3 .8c-1 .2-2.4.4-4 .4zm12-.8v-31.3h9.4V168h-9.3zm4.7-36c-1.6 0-2.8-.4-3.9-1.3-1-.9-1.5-2-1.5-3.5 0-1.4.5-2.6 1.5-3.4 1-1 2.3-1.4 3.9-1.4s2.9.5 3.9 1.4c1 .8 1.5 2 1.5 3.4 0 1.5-.5 2.7-1.5 3.6-1 .9-2.3 1.3-3.9 1.3zm26.3 36.8a15.6 15.6 0 0 1-10.7-4.3 15.7 15.7 0 0 1-3.3-5.2c-.9-2-1.3-4.4-1.3-7 0-2.6.4-4.9 1.3-6.9.8-2 2-3.8 3.3-5.2 1.5-1.4 3.1-2.4 5-3.1a15 15 0 0 1 19.6 8.3c.9 2 1.3 4.3 1.3 7 0 2.5-.4 4.9-1.3 7a15.2 15.2 0 0 1-8.2 8.3c-1.8.7-3.7 1-5.7 1zm0-7.6c1.9 0 3.3-.8 4.3-2.4 1-1.6 1.4-3.7 1.4-6.5s-.5-4.9-1.4-6.5a4.7 4.7 0 0 0-4.3-2.4c-2 0-3.4.8-4.4 2.4-.9 1.6-1.4 3.8-1.4 6.5s.5 5 1.4 6.5c1 1.6 2.4 2.4 4.4 2.4zm21.6 6.8v-31.3h7.5l.7 4h.2a24 24 0 0 1 4.4-3.3c1.6-1 3.5-1.5 5.7-1.5 3.4 0 5.8 1.1 7.4 3.4a16 16 0 0 1 2.3 9.2V168h-9.3v-18.3c0-2.2-.3-3.8-1-4.6-.6-.9-1.5-1.3-2.9-1.3-1.2 0-2.2.3-3 .8-.8.5-1.8 1.3-2.8 2.2V168H510zm-277.1 58v-13.1h7.6v1.4h-6v4.1h5v1.4h-5v4.8h6.2v1.4h-7.8zm10.4 0v-9.7h1.4v1.4h.1l1.5-1.2c.5-.3 1.1-.5 1.8-.5 1 0 1.8.4 2.2 1 .5.6.8 1.6.8 2.8v6.2h-1.7v-6c0-.9-.1-1.5-.4-2-.3-.3-.8-.5-1.4-.5-.5 0-1 0-1.4.3a8 8 0 0 0-1.3 1.2v7h-1.6zm18.8.2a4 4 0 0 1-1.7-.3c-.6-.3-1-.7-1.4-1.2-.4-.5-.7-1.1-1-1.9-.2-.8-.3-1.7-.3-2.7 0-1.3.1-2.4.4-3.3.3-.9.6-1.6 1-2.2.6-.5 1-1 1.6-1.2.6-.3 1.2-.4 1.9-.4s1.2.1 1.7.4c.5.3 1 .6 1.3 1l-.9 1a3 3 0 0 0-1-.7c-.3-.2-.7-.3-1-.3a3 3 0 0 0-1.3.3 3 3 0 0 0-1.1.9c-.3.4-.6 1-.8 1.7-.2.6-.3 1.5-.3 2.5.4-.5.9-.9 1.4-1.2.6-.3 1-.4 1.6-.4 1.1 0 2 .3 2.6 1 .7.6 1 1.6 1 3 0 .5 0 1.1-.2 1.6a4 4 0 0 1-.9 1.3 3.6 3.6 0 0 1-2.7 1.1zm0-1.3a2 2 0 0 0 1.6-.7l.5-.9.2-1.2c0-.8-.2-1.5-.6-2-.4-.4-1-.7-1.8-.7-.4 0-.9.2-1.3.4-.5.3-1 .7-1.4 1.3.1 1.3.4 2.2.9 2.9.5.6 1.1 1 2 1zm9.3 2.8a5.6 5.6 0 0 1-4.2-1.8l.8-1 1.3 1a3.7 3.7 0 0 0 3 .2l.9-.6.6-.9.2-1.2c0-1-.3-1.6-.8-2.1s-1.1-.8-2-.8a3 3 0 0 0-1 .2l-1.1.6-1-.5.5-6.3h6.4v1.4h-5l-.3 4a4 4 0 0 1 2-.6c.5 0 1 0 1.5.2a3.3 3.3 0 0 1 2.1 2c.2.5.3 1.1.3 1.8s0 1.3-.3 1.9a4 4 0 0 1-2.4 2.2c-.5.2-1 .3-1.6.3zm13-1.5a3 3 0 0 1-2-.7c-.5-.5-.8-1.1-.8-2 0-1 .5-1.9 1.5-2.5.9-.5 2.4-1 4.5-1.2l-.1-.9c0-.3-.1-.5-.3-.7-.1-.3-.3-.4-.6-.6a2 2 0 0 0-1-.2c-.6 0-1 .1-1.6.3l-1.3.7-.6-1.1 1.6-.8c.7-.3 1.4-.5 2.2-.5 1.2 0 2 .4 2.6 1.1.5.8.8 1.7.8 3v5.9h-1.4l-.1-1.2c-.5.4-1 .8-1.6 1-.5.3-1 .4-1.7.4zm.6-1.3c.4 0 .9 0 1.3-.3l1.3-1V221l-2 .4-1.4.5a2 2 0 0 0-.8.7l-.2.9c0 .5.2 1 .5 1.2l1.2.3zm7.3 1.1v-9.7h1.4l.1 1.4 1.5-1.2c.5-.3 1.1-.5 1.8-.5 1 0 1.8.4 2.3 1 .4.6.7 1.6.7 2.8v6.2h-1.7v-6c0-.9-.1-1.5-.4-2-.3-.3-.8-.5-1.4-.5-.5 0-1 0-1.4.3a8 8 0 0 0-1.3 1.2v7h-1.6zm13.5.2c-.7 0-1.4 0-2-.3-.6-.3-1.2-.6-1.6-1l.8-1.1c.4.4.8.6 1.3.8.4.2 1 .4 1.5.4.7 0 1.2-.2 1.5-.5.3-.3.5-.6.5-1l-.2-.7-.5-.5-.7-.4c-.3 0-.6-.2-.8-.3l-1-.4a5 5 0 0 1-1-.6 3 3 0 0 1-.7-.7 2.5 2.5 0 0 1 .6-3 3 3 0 0 1 1-.6l1.5-.3c.6 0 1.1.1 1.7.4l1.3.7-.8 1-1-.5-1.2-.3c-.6 0-1 .2-1.4.4-.2.3-.4.6-.4 1 0 .2 0 .4.2.6l.5.5.7.3.8.3a23.3 23.3 0 0 1 2 1l.7.8c.2.3.3.7.3 1.1a2.8 2.8 0 0 1-1 2l-1 .7c-.5.2-1 .2-1.6.2zm11.6 0c-.6 0-1-.2-1.4-.5-.2-.4-.4-1-.4-1.7v-12.2h1.7v12.4l.1.5.3.2h.4l.2 1.2-.4.1a3 3 0 0 1-.5 0zm5.6 0a3 3 0 0 1-2-.7c-.6-.5-.9-1.1-.9-2 0-1 .5-1.9 1.5-2.5.9-.5 2.4-1 4.5-1.2l-.1-.9c0-.3-.1-.5-.3-.7-.1-.3-.3-.4-.6-.6a2 2 0 0 0-1-.2l-1.6.3-1.3.7-.6-1.1 1.6-.8c.7-.3 1.4-.5 2.2-.5 1.2 0 2 .4 2.6 1.1.5.8.8 1.7.8 3v5.9h-1.4l-.1-1.2c-.5.4-1 .8-1.6 1-.5.3-1 .4-1.7.4zm.5-1.3c.4 0 .9 0 1.3-.3l1.3-1V221l-2 .4-1.4.5a2 2 0 0 0-.7.7l-.3.9c0 .5.2 1 .5 1.2.4.2.8.3 1.3.3zm11.3 5.2v-13.8h1.4l.1 1.1 1.5-1c.5-.2 1-.4 1.7-.4.6 0 1.1.2 1.6.4s.9.6 1.2 1c.3.4.6 1 .7 1.6a7.5 7.5 0 0 1 0 4.2l-1 1.7c-.4.4-.8.8-1.3 1-.5.2-1 .3-1.6.3-.5 0-1 0-1.4-.3-.4-.2-.9-.4-1.3-.8v5h-1.6zm4-5.2c.4 0 .8-.1 1.1-.3.4-.2.7-.4 1-.8l.5-1.2c.2-.5.2-1 .2-1.6l-.1-1.5-.5-1a2 2 0 0 0-.8-.8c-.3-.2-.7-.3-1.1-.3-.4 0-.9.1-1.3.4a8 8 0 0 0-1.3 1v5c.4.4.9.7 1.3.8l1 .3zm7.1 1.1v-9.7h1.4l.1 1.7c.4-.6.8-1 1.3-1.4.5-.4 1-.6 1.5-.6l1 .2-.2 1.5-.5-.1h-.5c-.4 0-.8 0-1.3.4a4 4 0 0 0-1.1 1.8v6.2h-1.7zm10.5.2a4.2 4.2 0 0 1-3.1-1.3 5.2 5.2 0 0 1-1.4-3.7c0-.8.2-1.6.4-2.2.2-.6.6-1.2 1-1.6.4-.5.9-.8 1.4-1a4.4 4.4 0 0 1 5.9 2.6c.2.6.3 1.4.3 2.2 0 .8-.1 1.5-.3 2.1-.3.7-.6 1.2-1 1.6-.4.5-1 .8-1.5 1-.5.2-1 .3-1.7.3zm0-1.3c.5 0 .8-.1 1.2-.3l.9-.7.5-1.2c.2-.5.2-1 .2-1.5l-.2-1.6-.5-1.2c-.3-.3-.6-.6-1-.7-.3-.2-.7-.3-1-.3-.5 0-.9.1-1.2.3l-1 .7-.5 1.2-.2 1.6.2 1.5.6 1.2c.2.3.6.5.9.7.3.2.7.3 1.1.3zm10.4 1.3c-1.2 0-2.2-.4-3-1.3-.6-.9-1-2.1-1-3.7 0-.8.1-1.5.3-2.2l1-1.6c.4-.4.8-.8 1.3-1a3.7 3.7 0 0 1 3 0c.5.1.9.4 1.3.8v-5.4h1.6V226H370l-.2-1.1-1.4 1c-.5.2-1 .3-1.6.3zm.4-1.3c.4 0 .9-.1 1.3-.4a5 5 0 0 0 1.2-1v-5c-.4-.4-.8-.7-1.2-.8l-1.2-.3c-.4 0-.8.1-1.1.3l-.9.8-.6 1.1-.2 1.5c0 1.2.2 2.1.7 2.8.5.6 1.1 1 2 1zm10.2 1.3c-1 0-1.8-.3-2.2-1-.5-.6-.7-1.5-.7-2.8v-6.1h1.6v6c0 .8.1 1.5.4 2 .3.3.8.5 1.4.5.5 0 1-.1 1.4-.4.4-.2.8-.7 1.2-1.2v-7h1.7v9.8h-1.4l-.1-1.5c-.5.5-1 1-1.5 1.3-.5.3-1.1.4-1.8.4zm11.9 0c-.6 0-1.2 0-1.8-.3-.5-.2-1-.5-1.4-1a5 5 0 0 1-1-1.6 6.4 6.4 0 0 1 0-4.3 5 5 0 0 1 1-1.6 4.4 4.4 0 0 1 3.3-1.4c.7 0 1.2.1 1.7.4l1.2.8-.9 1-.9-.6-1-.2a2.8 2.8 0 0 0-2.2 1 4.2 4.2 0 0 0-.9 2.8l.3 1.5.6 1.2c.2.3.6.5 1 .7a3 3 0 0 0 2.4 0l1-.7.7 1.1-1.4 1-1.7.2zm8.2 0c-.5 0-1 0-1.3-.2l-1-.7-.4-1-.1-1.3v-5.4H393v-1.2l1.6-.1.2-2.7h1.3v2.7h2.7v1.3h-2.7v5.4c0 .6.1 1 .4 1.4.2.3.6.5 1.1.5h.6l.5-.3.4 1.3a6.6 6.6 0 0 1-1.8.3zm3.7-.2v-9.7h1.6v9.7h-1.6zm.8-11.7c-.3 0-.6-.1-.8-.3a1 1 0 0 1-.3-.8c0-.3 0-.5.3-.7.2-.2.5-.3.8-.3.3 0 .6 0 .8.3.2.2.4.4.4.7 0 .3-.2.6-.4.8a1 1 0 0 1-.8.3zm7.9 12a4.2 4.2 0 0 1-3.2-1.4 5.2 5.2 0 0 1-1.3-3.7c0-.8.1-1.6.3-2.2.3-.6.6-1.2 1-1.6a4.2 4.2 0 0 1 3.2-1.4 4 4 0 0 1 1.7.4c.5.2 1 .5 1.4 1a5.2 5.2 0 0 1 1.4 3.8c0 .8-.1 1.5-.4 2.1-.2.7-.6 1.2-1 1.6a4.2 4.2 0 0 1-3.1 1.3zm0-1.4c.4 0 .8-.1 1.1-.3l1-.7.5-1.2.2-1.5c0-.5 0-1.1-.2-1.6l-.6-1.2c-.2-.3-.5-.6-.9-.7-.3-.2-.7-.3-1.1-.3l-1.2.3-.9.7-.5 1.2-.2 1.6c0 .6 0 1 .2 1.5l.5 1.2 1 .7c.3.2.7.3 1 .3zm7 1.1v-9.7h1.4l.1 1.4 1.5-1.2c.6-.3 1.2-.5 1.8-.5 1 0 1.8.4 2.3 1 .5.6.7 1.6.7 2.8v6.2H423v-6c0-.9-.2-1.5-.5-2-.3-.3-.7-.5-1.4-.5-.5 0-1 0-1.3.3a8 8 0 0 0-1.4 1.2v7h-1.6zm18.3.2c-1.2 0-2.2-.4-3-1.3-.7-.9-1-2.1-1-3.7 0-.8 0-1.5.3-2.2l1-1.6c.4-.4.8-.8 1.3-1a3.6 3.6 0 0 1 3 0c.5.1.9.4 1.3.8v-5.4h1.6V226h-1.4l-.1-1.1-1.4 1c-.5.2-1 .3-1.6.3zm.4-1.3c.4 0 .8-.1 1.2-.4a5 5 0 0 0 1.2-1v-5c-.4-.4-.8-.7-1.2-.8-.3-.2-.7-.3-1.1-.3-.4 0-.8.1-1.1.3-.4.2-.7.4-1 .8l-.5 1.1c-.2.5-.2 1-.2 1.5 0 1.2.2 2.1.7 2.8.4.6 1 1 2 1zm11.3 1.3c-.6 0-1.2 0-1.8-.3a4.5 4.5 0 0 1-2.5-2.6 6 6 0 0 1 0-4.3 5 5 0 0 1 1-1.6 4 4 0 0 1 1.4-1c.5-.2 1-.4 1.6-.4a4 4 0 0 1 1.7.4c.5.2.9.5 1.2.9a5.6 5.6 0 0 1 1 3.3v.9h-6.6a4 4 0 0 0 1 2.5c.5.6 1.3 1 2.2 1 .5 0 1-.1 1.3-.3l1.2-.5.5 1a8 8 0 0 1-1.4.7c-.5.2-1 .3-1.8.3zm-3-5.8h5.2c0-1-.3-1.8-.7-2.3a2 2 0 0 0-1.7-.8 2.6 2.6 0 0 0-1.9.8 3 3 0 0 0-.6 1 4 4 0 0 0-.3 1.3zm13 9.7v-13.8h1.4v1.1h.1l1.5-1a3.7 3.7 0 0 1 3.3 0c.5.2.9.6 1.2 1 .3.4.6 1 .7 1.6a7.5 7.5 0 0 1 0 4.2 5 5 0 0 1-1 1.7c-.4.4-.8.8-1.3 1-.5.2-1 .3-1.6.3-.5 0-1 0-1.4-.3-.4-.2-.9-.4-1.3-.8v5h-1.6zm4-5.2a2.5 2.5 0 0 0 2-1l.6-1.3.2-1.6c0-.5 0-1-.2-1.5 0-.4-.2-.8-.4-1-.2-.4-.5-.6-.8-.8a2.6 2.6 0 0 0-2.4 0 8 8 0 0 0-1.4 1v5.1c.5.4.9.7 1.3.8l1 .3zm8.8 1.3c-.6 0-1-.2-1.3-.5-.3-.4-.4-1-.4-1.7v-12.2h1.6v12.4c0 .2 0 .4.2.5l.3.2h.4l.2 1.2-.4.1h-.6zm5.6 0a3 3 0 0 1-2-.7c-.5-.5-.8-1.1-.8-2 0-1 .5-1.9 1.4-2.5 1-.5 2.5-1 4.5-1.2v-.9a2 2 0 0 0-.4-.7c-.1-.3-.3-.4-.6-.6l-1-.2-1.5.3-1.3.7-.7-1.1c.5-.3 1-.6 1.7-.8.6-.3 1.3-.5 2.1-.5 1.2 0 2 .4 2.6 1.1.6.8.8 1.7.8 3v5.9h-1.3l-.2-1.2c-.5.4-1 .8-1.5 1-.6.3-1.1.4-1.8.4zm.5-1.3c.5 0 .9 0 1.3-.3.4-.2.9-.5 1.3-1V221l-2 .4-1.4.5a2 2 0 0 0-.7.7l-.2.9c0 .5.1 1 .5 1.2.3.2.7.3 1.2.3zm9.9 1.3a5.5 5.5 0 0 1-3.6-1.3l.8-1.1c.4.4.9.6 1.3.8.4.2 1 .4 1.6.4.6 0 1-.2 1.4-.5.3-.3.5-.6.5-1l-.2-.7c-.2-.2-.3-.4-.6-.5a3 3 0 0 0-.7-.4l-.8-.3-1-.4c-.3-.2-.7-.3-1-.6a3 3 0 0 1-.6-.7l-.2-1.1a2.5 2.5 0 0 1 .8-2l1.1-.5a4 4 0 0 1 1.4-.3c.6 0 1.2.1 1.7.4.5.2 1 .4 1.3.7l-.7 1-1-.5a3 3 0 0 0-1.3-.3c-.6 0-1 .2-1.3.4-.3.3-.5.6-.5 1l.2.6a2.7 2.7 0 0 0 1.2.8 74 74 0 0 0 1.9.7l1 .6.6.8c.2.3.3.7.3 1.1l-.3 1.2c-.1.3-.3.6-.7.9l-1 .6c-.5.2-1 .2-1.6.2zm8.5 0c-.5 0-1 0-1.3-.2l-.9-.7c-.2-.2-.3-.6-.4-1l-.2-1.3v-5.4H490v-1.2l1.5-.1.2-2.7h1.4v2.7h2.6v1.3H493v5.4c0 .6.1 1 .3 1.4.2.3.6.5 1.2.5h.6l.5-.3.3 1.3a6 6 0 0 1-1.8.3zm3.7-.2v-9.7h1.7v9.7h-1.7zm.9-11.7c-.4 0-.6-.1-.9-.3a1 1 0 0 1-.3-.8c0-.3.1-.5.3-.7.3-.2.5-.3.9-.3.3 0 .5 0 .8.3.2.2.3.4.3.7 0 .3-.1.6-.3.8-.3.2-.5.3-.8.3zm10.2 15.8v-5.2c-.3.4-.8.7-1.3 1-.5.2-1 .3-1.6.3-1.2 0-2.2-.4-2.9-1.3a6 6 0 0 1-1-3.7c0-.8 0-1.5.3-2.2.2-.6.5-1.1 1-1.6.3-.4.8-.8 1.3-1 .5-.2 1-.4 1.6-.4s1 .1 1.4.3c.5.2.9.5 1.3.9l.2-1h1.4v13.9h-1.7zm-2.5-5.2c.5 0 .9-.1 1.3-.4a5 5 0 0 0 1.2-1v-5a4 4 0 0 0-1.2-.8 3 3 0 0 0-1.2-.3c-.4 0-.7.1-1 .3-.4.2-.7.4-1 .8l-.6 1.1-.2 1.5c0 1.2.3 2.1.7 2.8.5.6 1.2 1 2 1zm10.3 1.3c-1 0-1.8-.3-2.3-1-.5-.6-.7-1.5-.7-2.8v-6.1h1.6v6c0 .8.2 1.5.5 2 .3.3.7.5 1.4.5.5 0 1-.1 1.3-.4.4-.2.8-.7 1.3-1.2v-7h1.6v9.8h-1.3l-.2-1.5c-.5.5-1 1-1.5 1.3-.4.3-1 .4-1.7.4zm12 0a4.7 4.7 0 0 1-3.4-1.3 5 5 0 0 1-1-1.6c-.2-.6-.3-1.3-.3-2.1s0-1.5.3-2.2c.3-.6.6-1.2 1-1.6.4-.4.9-.8 1.4-1a4 4 0 0 1 1.6-.4 4 4 0 0 1 1.7.4c.5.2.9.5 1.2.9l.8 1.4.2 1.9v.9h-6.6c0 1 .4 2 1 2.5a3 3 0 0 0 2.2 1c.5 0 1-.2 1.3-.3l1.2-.5.6 1-1.5.7c-.5.2-1 .3-1.7.3zm-3.1-5.8h5.2c0-1-.2-1.8-.7-2.3-.4-.5-1-.8-1.7-.8l-1 .2-.9.6-.6 1a4 4 0 0 0-.3 1.3zm15.3 5.8a3 3 0 0 1-2-.7c-.6-.5-.9-1.1-.9-2 0-1 .5-1.9 1.4-2.5 1-.5 2.5-1 4.6-1.2l-.1-.9c0-.3-.2-.5-.3-.7l-.6-.6a2 2 0 0 0-1-.2 4 4 0 0 0-1.6.3 6 6 0 0 0-1.3.7l-.7-1.1c.5-.3 1-.6 1.7-.8.6-.3 1.4-.5 2.2-.5 1.1 0 2 .4 2.5 1.1.6.8.8 1.7.8 3v5.9h-1.3l-.2-1.2c-.5.4-1 .8-1.5 1-.6.3-1.1.4-1.8.4zm.4-1.3c.5 0 1 0 1.4-.3l1.3-1V221l-2 .4-1.4.5c-.4.2-.6.5-.8.7l-.2.9c0 .5.2 1 .5 1.2.3.2.7.3 1.2.3zm14.7 1.3c-1.2 0-2.2-.4-3-1.3a5.7 5.7 0 0 1-1-3.7 5.6 5.6 0 0 1 1.3-3.8 3.9 3.9 0 0 1 2.9-1.4c.6 0 1 .1 1.5.3l1.2.9v-5.4h1.6V226H559l-.1-1.1a7 7 0 0 1-1.4 1c-.5.2-1 .3-1.6.3zm.4-1.3c.4 0 .9-.1 1.3-.4a5 5 0 0 0 1.2-1v-5a4 4 0 0 0-1.2-.8 3 3 0 0 0-1.2-.3c-.4 0-.7.1-1.1.3l-.9.8-.6 1.1-.2 1.5c0 1.2.2 2.1.7 2.8.5.6 1.1 1 2 1zm11.2 1.3a4.3 4.3 0 0 1-3.2-1.3c-.4-.4-.7-1-1-1.6-.2-.6-.3-1.3-.3-2.1s0-1.6.3-2.2c.3-.6.6-1.2 1-1.6.4-.5 1-.8 1.4-1a4.4 4.4 0 0 1 5.9 2.6c.3.6.4 1.4.4 2.2a5.5 5.5 0 0 1-1.4 3.7 4.2 4.2 0 0 1-3.1 1.3zm0-1.3c.4 0 .8-.1 1.1-.3.4-.2.7-.4.9-.7l.6-1.2.2-1.5-.2-1.6-.6-1.2c-.3-.3-.6-.6-1-.7a2.5 2.5 0 0 0-2.3 0l-.8.7a4 4 0 0 0-.5 1.2c-.2.5-.2 1-.2 1.6l.2 1.5c0 .4.3.8.5 1.2l1 .7c.3.2.6.3 1 .3zm9.9 1.3c-1 0-1.8-.3-2.3-1-.5-.6-.7-1.5-.7-2.8v-6.1h1.6v6c0 .8.2 1.5.5 2 .3.3.7.5 1.4.5.5 0 1-.1 1.3-.4.4-.2.8-.7 1.3-1.2v-7h1.6v9.8H581l-.2-1.5c-.5.5-1 1-1.5 1.3-.5.3-1 .4-1.7.4zm12.3 0c-.4 0-1 0-1.4-.3-.5-.2-1-.5-1.4-.9l-.1 1h-1.4v-14.2h1.7v5.6l1.4-1a3.6 3.6 0 0 1 3.3 0c.4.2.8.6 1.1 1 .4.4.6 1 .8 1.6.2.6.3 1.2.3 2s-.1 1.6-.4 2.2c-.2.7-.5 1.2-.9 1.7-.4.4-.8.8-1.3 1-.5.2-1 .3-1.6.3zm-.3-1.3c.4 0 .8-.1 1.1-.3.4-.2.7-.4 1-.8l.5-1.2c.2-.5.2-1 .2-1.6l-.1-1.5-.5-1a2 2 0 0 0-.8-.8c-.3-.2-.7-.3-1.1-.3-.8 0-1.7.5-2.6 1.3v5.1c.4.4.8.7 1.2.8l1.2.3zm8.8 1.3c-.6 0-1-.2-1.3-.5-.3-.4-.4-1-.4-1.7v-12.2h1.6v12.4c0 .2 0 .4.2.5l.3.2h.4l.2 1.2-.4.1a3 3 0 0 1-.6 0zm7.3 0c-.6 0-1.2 0-1.8-.3-.6-.2-1-.6-1.5-1a5 5 0 0 1-1-1.6 6 6 0 0 1 0-4.3c.3-.6.6-1.2 1-1.6.4-.4.9-.8 1.4-1 .5-.2 1-.4 1.6-.4.6 0 1.2.1 1.7.4.5.2.9.5 1.2.9.3.4.6.9.7 1.4.2.6.3 1.2.3 1.9v.9h-6.6a4 4 0 0 0 1 2.5 3 3 0 0 0 2.2 1c.5 0 .9-.2 1.3-.3l1.1-.5.6 1-1.4.7c-.5.2-1.1.3-1.8.3zm-3-5.8h5.2c0-1-.2-1.8-.7-2.3-.4-.5-1-.8-1.7-.8l-1 .2-.9.6a3.5 3.5 0 0 0-1 2.3zm2.5-5.9l-.9-.8 2.8-3.3 1.2 1-3.1 3.1zm6.2 14.9l-.4-1c.6-.2 1-.6 1.3-1 .3-.4.5-.9.5-1.4h-.2c-.3 0-.6 0-.9-.3-.2-.2-.3-.5-.3-.8s.1-.7.4-.9c.2-.2.5-.3.8-.3.4 0 .8.2 1 .5s.4.9.4 1.5c0 .8-.2 1.6-.7 2.2-.5.7-1.1 1.2-2 1.5zm13.1-3.2c-.6 0-1.2 0-1.8-.3-.5-.2-1-.5-1.4-1a5 5 0 0 1-1-1.6c-.2-.6-.3-1.3-.3-2.1s0-1.6.3-2.2a5 5 0 0 1 1-1.6 4.4 4.4 0 0 1 3.3-1.4c.7 0 1.2.1 1.7.4l1.2.8-.9 1-.9-.6-1-.2a2.8 2.8 0 0 0-2.2 1 4 4 0 0 0-.6 1.2c-.2.5-.2 1-.2 1.6a4.6 4.6 0 0 0 .8 2.7l1 .7a2.9 2.9 0 0 0 2.4 0l1-.7.8 1.1a5 5 0 0 1-1.5 1l-1.7.2zm8.8 0c-.6 0-1.3 0-1.8-.3-.6-.2-1-.6-1.5-1a5 5 0 0 1-1-1.6 6 6 0 0 1 0-4.3c.3-.6.6-1.2 1-1.6a4.1 4.1 0 0 1 3-1.4 4 4 0 0 1 1.6.4c.5.2 1 .5 1.3.9.3.4.6.9.7 1.4.2.6.3 1.2.3 1.9v.9h-6.6a4 4 0 0 0 1 2.5 3 3 0 0 0 2.2 1c.5 0 .9-.1 1.3-.3a6 6 0 0 0 1.1-.5l.6 1-1.4.7c-.5.2-1.1.3-1.8.3zm-3-5.8h5.1c0-1-.2-1.8-.6-2.3-.4-.5-1-.8-1.8-.8l-1 .2-.8.6c-.2.3-.5.6-.6 1l-.4 1.3zm19.1 9.7v-3.5l.1-1.7a6 6 0 0 1-1.3 1c-.5.2-1 .3-1.6.3-1.2 0-2.2-.4-3-1.3-.6-.9-1-2.1-1-3.7 0-.8 0-1.5.3-2.2l1-1.6a4 4 0 0 1 1.3-1 3.7 3.7 0 0 1 3.1 0c.4.1.9.4 1.3.8l.2-1h1.3v13.9h-1.6zm-2.4-5.2c.4 0 .8-.1 1.2-.4a5 5 0 0 0 1.2-1v-5c-.4-.4-.8-.7-1.2-.8a3 3 0 0 0-1.1-.3c-.4 0-.8.1-1.1.3l-1 .8-.5 1.1-.2 1.5c0 1.2.2 2.1.7 2.8.4.6 1 1 2 1zm10.2 1.3c-1 0-1.8-.3-2.3-1-.4-.6-.7-1.5-.7-2.8v-6.1h1.7v6c0 .8.1 1.5.4 2 .3.3.8.5 1.4.5.5 0 1-.1 1.4-.4a7 7 0 0 0 1.2-1.2v-7h1.7v9.8h-1.4l-.1-1.5c-.5.5-1 1-1.5 1.3-.5.3-1.1.4-1.8.4zm8-.2v-9.7h1.7v9.7h-1.6zm.9-11.7c-.3 0-.6-.1-.8-.3a1 1 0 0 1-.3-.8c0-.3 0-.5.3-.7.2-.2.5-.3.8-.3.3 0 .6 0 .8.3.2.2.3.4.3.7 0 .3 0 .6-.3.8-.2.2-.5.3-.8.3zm12 12c-.6 0-1.2-.2-1.8-.4-.6-.2-1-.6-1.5-1a5 5 0 0 1-1-1.6c-.2-.6-.3-1.3-.3-2.1s0-1.5.3-2.2a5 5 0 0 1 1-1.6 4.4 4.4 0 0 1 3-1.4c.6 0 1.2.1 1.7.4.5.2.9.5 1.2.9.3.4.6.9.7 1.4.2.6.3 1.2.3 1.9v.9H675c0 1 .4 2 1 2.5a3 3 0 0 0 2.2 1c.5 0 1-.1 1.3-.3a6 6 0 0 0 1.1-.5l.6 1a8 8 0 0 1-1.4.7c-.5.2-1.1.3-1.8.3zm-3-6h5.2c0-1-.3-1.7-.7-2.2-.4-.5-1-.8-1.7-.8a2.5 2.5 0 0 0-2 .8l-.5 1-.4 1.3zm2.5-5.8l-.9-.8 2.8-3.3 1.2 1-3.1 3.1zm12.7 15.6v-5.2a6 6 0 0 1-1.3 1c-.5.2-1 .3-1.6.3-1.2 0-2.2-.4-3-1.3a5.7 5.7 0 0 1-1-3.7c0-.8.1-1.5.3-2.2l1-1.6a4 4 0 0 1 1.3-1c.5-.2 1-.4 1.6-.4s1 .1 1.5.3c.4.2.9.5 1.3.9l.2-1h1.3v13.9h-1.6zm-2.5-5.2c.4 0 .8-.1 1.2-.4a5 5 0 0 0 1.2-1v-5c-.4-.4-.8-.7-1.2-.8a3 3 0 0 0-1.1-.3c-.4 0-.8.1-1.1.3l-.9.8-.6 1.1-.2 1.5c0 1.2.2 2.1.7 2.8.5.6 1.1 1 2 1zm10.2 1.3c-1 0-1.8-.3-2.3-1-.4-.6-.7-1.5-.7-2.8v-6.1h1.7v6c0 .8.1 1.5.4 2 .3.3.8.5 1.4.5.5 0 1-.1 1.4-.4.4-.2.8-.7 1.2-1.2v-7h1.7v9.8h-1.4l-.1-1.5c-.5.5-1 1-1.5 1.3-.5.3-1 .4-1.8.4zm8.1-.2v-9.7h1.6v9.7H706zm.8-11.7c-.3 0-.6-.1-.8-.3a1 1 0 0 1-.3-.8c0-.3.1-.5.3-.7.2-.2.5-.3.8-.3.4 0 .6 0 .8.3.3.2.4.4.4.7 0 .3-.1.6-.4.8-.2.2-.4.3-.8.3zM713 226l-3.5-9.7h1.7l1.8 5.5.5 1.4.4 1.5h.1a58.9 58.9 0 0 0 .9-2.9l1.8-5.5h1.7l-3.5 9.7H713zm9.1.2a3 3 0 0 1-2-.7c-.6-.5-.8-1.1-.8-2 0-1 .4-1.9 1.4-2.5 1-.5 2.4-1 4.5-1.2v-.9l-.4-.7c-.1-.3-.3-.4-.6-.6a2 2 0 0 0-1-.2l-1.6.3-1.3.7-.6-1.1 1.6-.8c.7-.3 1.4-.5 2.2-.5 1.2 0 2 .4 2.6 1.1.5.8.8 1.7.8 3v5.9h-1.4l-.1-1.2c-.5.4-1 .8-1.6 1-.5.3-1 .4-1.7.4zm.5-1.3c.4 0 .9 0 1.3-.3l1.3-1V221l-2 .4-1.4.5a2 2 0 0 0-.7.7l-.3.9c0 .5.2 1 .5 1.2.4.2.8.3 1.3.3zm10.2 1.3c-1 0-1.8-.3-2.3-1-.5-.6-.7-1.5-.7-2.8v-6.1h1.6v6c0 .8.2 1.5.4 2 .3.3.8.5 1.4.5.5 0 1-.1 1.4-.4.4-.2.8-.7 1.3-1.2v-7h1.6v9.8h-1.4v-1.5h-.1c-.5.5-1 1-1.5 1.3-.5.3-1 .4-1.7.4zm11 0c-.5 0-.9 0-1.3-.2l-.8-.7a3 3 0 0 1-.5-1l-.1-1.3v-5.4h-1.5v-1.2l1.6-.1.2-2.7h1.3v2.7h2.7v1.3h-2.7v5.4c0 .6.1 1 .4 1.4.2.3.6.5 1.1.5h.6l.5-.3.4 1.3a6.2 6.2 0 0 1-1.8.3zm10 0a3 3 0 0 1-2-.7c-.5-.5-.8-1.1-.8-2 0-1 .5-1.9 1.4-2.5 1-.5 2.5-1 4.5-1.2v-.9l-.4-.7c-.1-.3-.3-.4-.6-.6l-1-.2-1.5.3-1.3.7-.7-1.1c.5-.3 1-.6 1.7-.8.6-.3 1.3-.5 2.1-.5 1.2 0 2 .4 2.6 1.1.6.8.8 1.7.8 3v5.9h-1.3l-.2-1.2c-.5.4-1 .8-1.5 1-.6.3-1.1.4-1.8.4zm.5-1.3c.5 0 1 0 1.3-.3.4-.2.9-.5 1.4-1V221l-2.1.4-1.3.5a2 2 0 0 0-.8.7l-.2.9c0 .5.1 1 .5 1.2.3.2.7.3 1.2.3zM235 255.2a3 3 0 0 1-2-.7c-.6-.5-.8-1.1-.8-2 0-1 .4-1.9 1.4-2.5 1-.5 2.4-1 4.5-1.2v-.9l-.4-.7c-.1-.3-.3-.4-.6-.6a2 2 0 0 0-1-.2l-1.5.3-1.4.7-.6-1.1c.5-.3 1-.6 1.7-.8.6-.3 1.3-.5 2.1-.5 1.2 0 2 .4 2.6 1.1.5.8.8 1.7.8 3v5.9h-1.4l-.1-1.2c-.5.4-1 .8-1.6 1-.5.3-1 .4-1.7.4zm.5-1.3c.5 0 .9 0 1.3-.3l1.3-1V250l-2 .4-1.4.5-.7.7c-.2.3-.2.6-.2.9 0 .5.1 1 .5 1.2.3.2.7.3 1.2.3zm7.3 5.2v-13.8h1.4l.1 1.1 1.5-1c.6-.2 1.1-.4 1.7-.4.6 0 1.2.2 1.6.4.5.2 1 .6 1.2 1 .4.4.6 1 .8 1.6a7.5 7.5 0 0 1-.1 4.2l-1 1.7c-.4.4-.8.8-1.3 1-.5.2-1 .3-1.6.3-.5 0-.9 0-1.4-.3-.4-.2-.9-.4-1.3-.8v5h-1.6zm4-5.2c.5 0 .8-.1 1.2-.3.3-.2.6-.4.8-.8.3-.3.5-.7.6-1.2.2-.5.3-1 .3-1.6l-.2-1.5c0-.4-.2-.8-.5-1a2 2 0 0 0-.8-.8c-.3-.2-.7-.3-1.1-.3-.4 0-.9.1-1.3.4a8 8 0 0 0-1.3 1v5c.4.4.9.7 1.3.8l1 .3zm7.1 5.2v-13.8h1.4l.1 1.1h.1l1.4-1c.6-.2 1.1-.4 1.7-.4.7 0 1.2.2 1.7.4s.9.6 1.2 1c.3.4.5 1 .7 1.6.2.6.3 1.2.3 2s-.1 1.6-.4 2.2a5 5 0 0 1-.9 1.7 3.8 3.8 0 0 1-3 1.4c-.4 0-.8-.2-1.3-.4-.4-.2-.9-.4-1.3-.8v5H254zm4-5.2c.5 0 .8-.1 1.2-.3.3-.2.6-.4.8-.8.3-.3.5-.7.6-1.2.2-.5.2-1 .2-1.6v-1.5l-.5-1a2 2 0 0 0-.8-.8c-.3-.2-.7-.3-1.2-.3-.4 0-.8.1-1.3.4l-1.3 1v5c.4.4.9.7 1.3.8l1 .3zm7.1 1.1v-9.7h1.4l.2 1.7 1.2-1.4a2.6 2.6 0 0 1 2.6-.4l-.3 1.5-.4-.1h-.5c-.4 0-.9 0-1.3.4a4 4 0 0 0-1.2 1.8v6.2H265zm10.6.2a4.2 4.2 0 0 1-3.2-1.3c-.4-.4-.7-1-1-1.6-.2-.6-.3-1.3-.3-2.1s0-1.6.3-2.2c.3-.6.6-1.2 1-1.6.5-.5 1-.8 1.5-1a4.4 4.4 0 0 1 4.8 1c.4.4.8 1 1 1.6.3.6.4 1.4.4 2.2 0 .8-.1 1.5-.4 2.1-.2.7-.6 1.2-1 1.6a4.2 4.2 0 0 1-3.1 1.3zm0-1.3c.4 0 .8-.1 1.1-.3l.9-.7.6-1.2.2-1.5-.2-1.6-.6-1.2c-.3-.3-.6-.6-1-.7-.3-.2-.6-.3-1-.3-.5 0-.9.1-1.2.3l-.9.7-.5 1.2c-.2.5-.2 1-.2 1.6l.2 1.5c0 .4.3.8.5 1.2l1 .7c.3.2.7.3 1 .3zm5.3 1.1l3.2-5-3-4.7h1.8l1.3 2.1.5.8.5.8.5-.8.5-.8 1.1-2.1h1.8l-3 4.8 3.1 4.9h-1.7l-1.4-2.3a18.5 18.5 0 0 0-1.1-1.7h-.1l-.5.9-.5.8-1.3 2.3h-1.7zm10.3 0v-9.7h1.7v9.7H291zm.9-11.7c-.4 0-.6-.1-.9-.3a1 1 0 0 1-.3-.8c0-.3.1-.5.3-.7.3-.2.5-.3.9-.3.3 0 .5 0 .8.3.2.2.3.4.3.7 0 .3-.1.6-.3.8-.3.2-.5.3-.8.3zm4 11.7v-9.7h1.4l.1 1.4a7 7 0 0 1 1.4-1.2 3 3 0 0 1 1.7-.5c.7 0 1.3.2 1.7.5.4.4.8.8 1 1.4.5-.6 1-1 1.5-1.3a3 3 0 0 1 1.7-.6c1 0 1.7.4 2.2 1 .5.6.7 1.6.7 2.8v6.2h-1.6v-6c0-.9-.2-1.5-.5-2-.3-.3-.7-.5-1.3-.5-.7 0-1.6.5-2.5 1.5v7H302v-6c0-.9-.1-1.5-.4-2-.3-.3-.8-.5-1.4-.5-.7 0-1.6.5-2.5 1.5v7H296zm18.8.2a3 3 0 0 1-2-.7c-.6-.5-.8-1.1-.8-2 0-1 .4-1.9 1.4-2.5 1-.5 2.5-1 4.5-1.2v-.9a2 2 0 0 0-.4-.7c-.1-.3-.3-.4-.6-.6l-1-.2-1.5.3-1.4.7-.6-1.1c.5-.3 1-.6 1.7-.8.6-.3 1.3-.5 2.1-.5 1.2 0 2 .4 2.6 1.1.5.8.8 1.7.8 3v5.9h-1.4l-.1-1.2c-.5.4-1 .8-1.6 1-.5.3-1 .4-1.7.4zm.5-1.3c.5 0 .9 0 1.3-.3.4-.2.9-.5 1.3-1V250l-2 .4-1.4.5a2 2 0 0 0-.7.7l-.2.9c0 .5.1 1 .5 1.2.3.2.7.3 1.2.3zm10.2 1.3c-.6 0-1 0-1.4-.2a2.3 2.3 0 0 1-1.3-1.7l-.1-1.3v-5.4h-1.4v-1.2l1.5-.1.2-2.7h1.3v2.7h2.7v1.3h-2.7v5.4c0 .6.1 1 .4 1.4.2.3.6.5 1.1.5h.6l.5-.3.4 1.3a6.6 6.6 0 0 1-1.8.3zm3.6-.2v-9.7h1.7v9.7H329zm.9-11.7c-.3 0-.6-.1-.8-.3a1 1 0 0 1-.4-.8c0-.3.1-.5.4-.7.2-.2.5-.3.8-.3.3 0 .6 0 .8.3.2.2.3.4.3.7 0 .3 0 .6-.3.8-.2.2-.5.3-.8.3zm6.2 11.7l-3.5-9.7h1.7l1.8 5.5.5 1.4.4 1.5h.1l.5-1.5.4-1.4 1.8-5.5h1.7L338 255h-2zm11 .2c-.6 0-1.2 0-1.8-.3-.5-.2-1-.6-1.5-1a5 5 0 0 1-1-1.6c-.2-.6-.3-1.3-.3-2.1s.1-1.5.4-2.2c.2-.6.5-1.2 1-1.6a4.4 4.4 0 0 1 3-1.4c.6 0 1.1.1 1.6.4.5.2.9.5 1.2.9.4.4.6.9.8 1.4.2.6.2 1.2.2 1.9v.9h-6.6a4 4 0 0 0 1 2.5 3 3 0 0 0 2.3 1l1.2-.3a6 6 0 0 0 1.2-.5l.6 1-1.5.7c-.5.2-1 .3-1.7.3zm-3-5.8h5.2c0-1-.2-1.8-.6-2.3-.4-.5-1-.8-1.8-.8l-1 .2-.8.6a3.5 3.5 0 0 0-1 2.3zm9 5.6v-9.7h1.4l.2 1.4 1.4-1.2a3 3 0 0 1 1.6-.5c.8 0 1.4.2 1.8.5.4.4.7.8 1 1.4.4-.6 1-1 1.5-1.3a3 3 0 0 1 1.7-.6c1 0 1.7.4 2.2 1 .5.6.7 1.6.7 2.8v6.2H365v-6c0-.9 0-1.5-.4-2-.3-.3-.7-.5-1.3-.5-.8 0-1.6.5-2.5 1.5v7h-1.6v-6c0-.9-.2-1.5-.5-2-.3-.3-.7-.5-1.3-.5-.8 0-1.6.5-2.5 1.5v7h-1.6zm20.6.2c-.7 0-1.3 0-1.9-.3-.5-.2-1-.6-1.5-1-.4-.4-.7-1-1-1.6-.2-.6-.3-1.3-.3-2.1s.1-1.5.4-2.2c.2-.6.6-1.2 1-1.6a4.1 4.1 0 0 1 3-1.4 4 4 0 0 1 1.6.4c.5.2 1 .5 1.3.9l.7 1.4c.2.6.3 1.2.3 1.9v.9h-6.7c.1 1 .4 2 1 2.5a3 3 0 0 0 2.3 1l1.2-.3a6 6 0 0 0 1.2-.5l.6 1-1.5.7a5 5 0 0 1-1.7.3zm-3-5.8h5.1c0-1-.2-1.8-.6-2.3-.4-.5-1-.8-1.8-.8l-1 .2-.8.6a3 3 0 0 0-.7 1l-.3 1.3zm9 5.6v-9.7h1.3l.2 1.4 1.5-1.2c.5-.3 1.1-.5 1.8-.5 1 0 1.8.4 2.2 1 .5.6.8 1.6.8 2.8v6.2h-1.7v-6c0-.9-.1-1.5-.4-2-.3-.3-.8-.5-1.4-.5-.5 0-1 0-1.3.3l-1.3 1.2v7h-1.7zm14 .2c-.6 0-1 0-1.4-.2a2.3 2.3 0 0 1-1.3-1.7l-.1-1.3v-5.4h-1.5v-1.2l1.6-.1.2-2.7h1.3v2.7h2.7v1.3h-2.7v5.4c0 .6.1 1 .4 1.4.2.3.6.5 1.1.5h.6l.5-.3.4 1.3a6.6 6.6 0 0 1-1.8.3zm9.4 0c-.6 0-1-.2-1.3-.5-.3-.4-.4-1-.4-1.7v-12.2h1.6v12.4l.1.5.3.2h.4l.2 1.2-.4.1a3 3 0 0 1-.5 0zm5.6 0a3 3 0 0 1-2-.7c-.6-.5-.8-1.1-.8-2 0-1 .4-1.9 1.4-2.5 1-.5 2.4-1 4.5-1.2v-.9l-.4-.7c-.1-.3-.3-.4-.6-.6a2 2 0 0 0-1-.2l-1.5.3-1.4.7-.6-1.1c.4-.3 1-.6 1.7-.8.6-.3 1.3-.5 2.1-.5 1.2 0 2 .4 2.6 1.1.5.8.8 1.7.8 3v5.9h-1.4v-1.2h-.2c-.5.4-1 .8-1.5 1-.5.3-1 .4-1.7.4zm.5-1.3c.4 0 .9 0 1.3-.3l1.3-1V250l-2 .4-1.4.5a2 2 0 0 0-.7.7l-.3.9c0 .5.2 1 .5 1.2.4.2.8.3 1.3.3zm11.3 1.1v-9.7h1.4l.1 1.4a6 6 0 0 1 1.4-1.2 3 3 0 0 1 1.7-.5c.7 0 1.3.2 1.7.5.5.4.8.8 1 1.4.5-.6 1-1 1.5-1.3a3 3 0 0 1 1.7-.6c1 0 1.7.4 2.2 1 .5.6.7 1.6.7 2.8v6.2h-1.6v-6c0-.9-.2-1.5-.4-2-.4-.3-.8-.5-1.4-.5-.7 0-1.5.5-2.4 1.5v7h-1.7v-6c0-.9-.1-1.5-.4-2-.3-.3-.8-.5-1.4-.5-.7 0-1.5.5-2.4 1.5v7h-1.7zm18.9.2a3 3 0 0 1-2-.7c-.6-.5-.9-1.1-.9-2 0-1 .5-1.9 1.5-2.5 1-.5 2.4-1 4.5-1.2l-.1-.9a2 2 0 0 0-.3-.7l-.6-.6-1-.2c-.6 0-1.1.1-1.6.3l-1.3.7-.7-1.1c.5-.3 1-.6 1.7-.8.6-.3 1.4-.5 2.1-.5 1.2 0 2.1.4 2.6 1.1.6.8.8 1.7.8 3v5.9H443l-.2-1.2c-.5.4-1 .8-1.5 1-.6.3-1.1.4-1.8.4zm.4-1.3c.5 0 1 0 1.4-.3l1.3-1V250l-2 .4a6 6 0 0 0-1.4.5 2 2 0 0 0-.7.7l-.3.9c0 .5.2 1 .5 1.2.4.2.8.3 1.3.3zm10 1.3c-.8 0-1.4 0-2-.3l-1.7-1 .9-1.1c.4.4.8.6 1.3.8.4.2 1 .4 1.5.4.6 0 1.1-.2 1.4-.5.4-.3.5-.6.5-1 0-.3 0-.5-.2-.7 0-.2-.3-.4-.5-.5l-.7-.4-.8-.3-1-.4a5 5 0 0 1-1-.6l-.6-.7a2 2 0 0 1-.3-1.1l.2-1a2.8 2.8 0 0 1 1.8-1.5 4 4 0 0 1 1.4-.3c.6 0 1.1.1 1.7.4.5.2 1 .4 1.3.7l-.8 1a6 6 0 0 0-1-.5l-1.2-.3c-.6 0-1 .2-1.4.4-.3.3-.4.6-.4 1 0 .2 0 .4.2.6l.5.5.7.3.8.3a22.6 22.6 0 0 1 2 1l.7.8c.2.3.3.7.3 1.1a2.8 2.8 0 0 1-1 2l-1 .7c-.5.2-1 .2-1.6.2zm8.3 0c-.7 0-1.3 0-2-.3l-1.6-1 .8-1.1 1.3.8c.5.2 1 .4 1.6.4.6 0 1.1-.2 1.4-.5.4-.3.5-.6.5-1 0-.3 0-.5-.2-.7l-.5-.5-.7-.4c-.3 0-.5-.2-.8-.3l-1-.4a5 5 0 0 1-1-.6 3 3 0 0 1-.6-.7 2.5 2.5 0 0 1 .6-3 3 3 0 0 1 1-.6c.4-.2 1-.3 1.4-.3.6 0 1.2.1 1.7.4.5.2 1 .4 1.3.7l-.7 1-1-.5-1.2-.3c-.7 0-1.1.2-1.4.4-.3.3-.4.6-.4 1 0 .2 0 .4.2.6 0 .2.2.3.4.5l.7.3.8.3a23 23 0 0 1 2 1c.4.2.6.5.8.8l.2 1.1a2.7 2.7 0 0 1-.9 2l-1.1.7c-.5.2-1 .2-1.5.2zm9.8 0c-.6 0-1.3 0-1.8-.3-.6-.2-1-.6-1.5-1-.4-.4-.7-1-1-1.6a6 6 0 0 1 0-4.3c.2-.6.6-1.2 1-1.6a4.1 4.1 0 0 1 4.6-1c.5.2 1 .5 1.2.9.4.4.6.9.8 1.4.2.6.3 1.2.3 1.9v.9H465c0 1 .3 2 1 2.5.5.6 1.3 1 2.2 1 .5 0 1-.1 1.3-.3a6 6 0 0 0 1.1-.5l.6 1-1.4.7a5 5 0 0 1-1.8.3zm-3-5.8h5.2c0-1-.3-1.8-.7-2.3-.4-.5-1-.8-1.8-.8l-1 .2-.8.6c-.3.3-.5.6-.6 1l-.4 1.3zm16.3 5.8c-1.2 0-2.2-.4-3-1.3-.7-.9-1-2.1-1-3.7 0-.8.1-1.5.3-2.2l1-1.6c.4-.4.8-.8 1.3-1a3.6 3.6 0 0 1 3 0c.5.1 1 .4 1.3.8v-5.4h1.6V255h-1.3l-.2-1.1-1.4 1c-.5.2-1 .3-1.6.3zm.4-1.3c.4 0 .9-.1 1.3-.4a5 5 0 0 0 1.1-1v-5c-.4-.4-.8-.7-1.2-.8-.3-.2-.7-.3-1.1-.3-.4 0-.8.1-1.1.3l-.9.8a4.5 4.5 0 0 0-.8 2.7c0 1.1.2 2 .7 2.7.4.6 1.1 1 2 1zm11.3 1.3c-.6 0-1.2 0-1.8-.3-.5-.2-1-.6-1.5-1-.4-.4-.7-1-1-1.6-.2-.6-.3-1.3-.3-2.1s.1-1.5.3-2.2c.3-.6.6-1.2 1-1.6a4.1 4.1 0 0 1 3-1.4 4 4 0 0 1 1.7.4c.5.2.9.5 1.2.9.4.4.6.9.8 1.4.2.6.2 1.2.2 1.9v.9H490c0 1 .4 2 1 2.5a3 3 0 0 0 2.3 1 4.1 4.1 0 0 0 2.4-.8l.6 1-1.4.7a5 5 0 0 1-1.8.3zm-3-5.8h5.2c0-1-.2-1.8-.6-2.3a2 2 0 0 0-1.8-.8l-1 .2-.8.6-.7 1-.3 1.3zm12.4.3v-.8l1.6-1.4a15.2 15.2 0 0 0 1.9-2.2l.2-1a1.4 1.4 0 0 0-1.5-1.6c-.3 0-.6.1-1 .4-.2.2-.5.4-.7.8l-.7-.7c.3-.5.7-.9 1-1.1.6-.3 1-.5 1.6-.5.8 0 1.4.2 1.9.7.4.4.7 1 .7 1.9l-.2 1-.7 1.1a419.2 419.2 0 0 1-2 2.3h3.3v1h-5.4zm3 5.5l7.2-13.6h1.1l-7.2 13.6h-1.1zm8.6 0c-.6 0-1.2-.1-1.7-.4l-1.2-1 1-.7c.2.3.4.6.8.8.3.2.7.3 1.1.3.4 0 .8-.1 1.1-.3.3-.3.5-.6.5-1a1 1 0 0 0-.7-1.1c-.4-.2-1-.4-1.8-.4v-.8c.7 0 1.2-.1 1.6-.4.4-.2.6-.6.6-1a1 1 0 0 0-.4-.9c-.3-.2-.6-.3-1-.3-.3 0-.6 0-.9.3a4 4 0 0 0-.7.6l-.8-.7c.3-.4.7-.7 1.1-.9.4-.2 1-.3 1.4-.3l1 .1.8.4a2 2 0 0 1 .7 1.6c0 .4-.1.8-.4 1.1a3 3 0 0 1-1 .8c.5 0 .9.3 1.2.6.3.4.5.8.5 1.3 0 .4 0 .7-.2 1l-.6.7-1 .5-1 .1zm12.8 0c-1.3 0-2.2-.4-3-1.3a5.7 5.7 0 0 1-1-3.7c0-.8 0-1.5.3-2.2.2-.6.5-1.1 1-1.6.3-.4.7-.8 1.2-1a3.7 3.7 0 0 1 3.1 0c.4.1.8.4 1.3.8l-.1-1.7v-3.7h1.6V255H530l-.2-1.1c-.4.3-.8.7-1.4 1-.5.2-1 .3-1.6.3zm.3-1.3c.5 0 .9-.1 1.3-.4a5 5 0 0 0 1.2-1v-5c-.4-.4-.8-.7-1.2-.8l-1.2-.3a2.5 2.5 0 0 0-2 1l-.5 1.2-.3 1.5c0 1.2.3 2.1.7 2.8.5.6 1.2 1 2 1zm11.4 1.3a4.7 4.7 0 0 1-3.4-1.3 5 5 0 0 1-1-1.6c-.2-.6-.3-1.3-.3-2.1s.1-1.5.4-2.2c.2-.6.6-1.2 1-1.6a4.1 4.1 0 0 1 4.6-1c.5.2 1 .5 1.2.9.4.4.6.9.8 1.4.2.6.3 1.2.3 1.9v.9h-6.6c0 1 .4 2 1 2.5a3 3 0 0 0 2.2 1c.5 0 .9-.1 1.3-.3l1.1-.5.6 1-1.4.7a5 5 0 0 1-1.8.3zm-3-5.8h5.1c0-1-.2-1.8-.6-2.3a2 2 0 0 0-1.8-.8 2.5 2.5 0 0 0-1.8.8 3 3 0 0 0-.7 1l-.3 1.3zm14.7 5.8c-.6 0-1-.2-1.3-.5-.3-.4-.4-1-.4-1.7v-12.2h1.6v12.4l.1.5.4.2H550.9l.2 1.2-.3.1h-.6zm5.6 0a3 3 0 0 1-2-.7c-.6-.5-.8-1.1-.8-2 0-1 .4-1.9 1.4-2.5 1-.5 2.4-1 4.5-1.2v-.9l-.4-.7c-.1-.3-.3-.4-.6-.6l-1-.2a4 4 0 0 0-1.6.3l-1.3.7-.6-1.1 1.6-.8c.7-.3 1.4-.5 2.2-.5 1.2 0 2 .4 2.6 1.1.5.8.8 1.7.8 3v5.9h-1.4l-.1-1.2h-.1c-.5.4-1 .8-1.5 1-.5.3-1.1.4-1.7.4zm.5-1.3c.4 0 .9 0 1.3-.3l1.3-1V250l-2 .4-1.4.5a2 2 0 0 0-.7.7l-.3.9c0 .5.2 1 .5 1.2.4.2.8.3 1.3.3zm11.3 5.2v-13.8h1.4l.1 1.1h.1l1.5-1a3.7 3.7 0 0 1 3.3 0c.5.2.9.6 1.2 1 .3.4.5 1 .7 1.6a7.5 7.5 0 0 1 0 4.2 5 5 0 0 1-1 1.7c-.4.4-.8.8-1.3 1-.5.2-1 .3-1.6.3-.5 0-1 0-1.4-.3-.4-.2-.9-.4-1.3-.8v5h-1.6zm4-5.2c.5 0 .8-.1 1.2-.3.3-.2.6-.4.8-.8.3-.3.5-.7.6-1.2.2-.5.2-1 .2-1.6v-1.5l-.5-1a2 2 0 0 0-.8-.8 2.6 2.6 0 0 0-2.4 0 8 8 0 0 0-1.4 1v5.1c.4.4.9.7 1.3.8l1 .3zm11 1.3a4.3 4.3 0 0 1-4.2-2.9c-.3-.6-.4-1.3-.4-2.1s.1-1.6.4-2.2c.2-.6.6-1.2 1-1.6a4.1 4.1 0 0 1 3.1-1.4 4.1 4.1 0 0 1 3.1 1.4 5.6 5.6 0 0 1 1.4 3.8 5.7 5.7 0 0 1-1.4 3.7 4.2 4.2 0 0 1-3.1 1.3zm0-1.3c.3 0 .7-.1 1-.3l1-.7.5-1.2c.2-.5.2-1 .2-1.5l-.2-1.6-.6-1.2c-.2-.3-.5-.6-.8-.7-.4-.2-.7-.3-1.2-.3-.4 0-.8.1-1.1.3l-1 .7-.5 1.2-.2 1.6c0 .6 0 1 .2 1.5l.6 1.2c.2.3.5.5.9.7.3.2.7.3 1.1.3zm7 5.2v-13.8h1.3l.2 1.1 1.5-1c.5-.2 1-.4 1.7-.4.6 0 1.1.2 1.6.4s.9.6 1.2 1c.3.4.6 1 .7 1.6a8 8 0 0 1 0 4.2l-1 1.7a3.8 3.8 0 0 1-3 1.4c-.4 0-.8-.2-1.3-.4a7 7 0 0 1-1.3-.8v5h-1.6zm4-5.2c.4 0 .8-.1 1-.3.4-.2.7-.4 1-.8l.6-1.2.2-1.6c0-.5 0-1-.2-1.5 0-.4-.2-.8-.4-1a2 2 0 0 0-.8-.8c-.3-.2-.7-.3-1.2-.3-.4 0-.8.1-1.2.4-.5.2-1 .5-1.4 1v5c.5.4.9.7 1.3.8l1 .3zm9.9 1.3c-1 0-1.8-.3-2.3-1-.5-.6-.7-1.5-.7-2.8v-6.1h1.7v6c0 .8.1 1.5.4 2 .3.3.7.5 1.4.5.5 0 1-.1 1.3-.4.4-.2.9-.7 1.3-1.2v-7h1.7v9.8h-1.4l-.1-1.5c-.5.5-1 1-1.5 1.3-.5.3-1.1.4-1.8.4zm9.8 0c-.6 0-1.1-.2-1.4-.5-.2-.4-.4-1-.4-1.7v-12.2h1.7v12.4l.1.5.3.2h.4l.2 1.2-.4.1h-.5zm5.6 0a3 3 0 0 1-2-.7c-.6-.5-.9-1.1-.9-2 0-1 .5-1.9 1.5-2.5 1-.5 2.4-1 4.5-1.2v-.9l-.4-.7c-.1-.3-.4-.4-.6-.6l-1-.2c-.6 0-1 .1-1.6.3l-1.3.7-.7-1.1c.5-.3 1-.6 1.7-.8.7-.3 1.4-.5 2.2-.5 1.2 0 2 .4 2.6 1.1.5.8.7 1.7.7 3v5.9h-1.3l-.1-1.2h-.1c-.5.4-1 .8-1.5 1-.5.3-1.1.4-1.7.4zm.5-1.3c.4 0 .9 0 1.3-.3l1.3-1V250l-2 .4-1.4.5a2 2 0 0 0-.7.7l-.3.9c0 .5.2 1 .5 1.2.4.2.8.3 1.3.3zm10.1 1.3c-.5 0-1 0-1.3-.2-.4-.2-.7-.4-.9-.7l-.5-1v-6.7h-1.6v-1.2l1.6-.1.2-2.7h1.3v2.7h2.7v1.3h-2.7v5.4c0 .6.1 1 .4 1.4.2.3.6.5 1.1.5h.6l.6-.3.3 1.3a6.6 6.6 0 0 1-1.8.3zm3.7-.2v-9.7h1.6v9.7h-1.6zm.8-11.7c-.3 0-.6-.1-.8-.3a1 1 0 0 1-.3-.8c0-.3.1-.5.3-.7.2-.2.5-.3.8-.3.3 0 .6 0 .8.3.2.2.4.4.4.7 0 .3-.2.6-.4.8a1 1 0 0 1-.8.3zm8 12a4.3 4.3 0 0 1-3.2-1.4 5.2 5.2 0 0 1-1.4-3.7c0-.8.1-1.6.4-2.2.2-.6.6-1.2 1-1.6a4.2 4.2 0 0 1 3-1.4c.7 0 1.3.1 1.8.4.5.2 1 .5 1.4 1 .4.4.8 1 1 1.6.3.6.4 1.4.4 2.2 0 .8-.1 1.5-.4 2.1-.2.7-.6 1.2-1 1.6a4.3 4.3 0 0 1-3.1 1.3zm0-1.4c.3 0 .7-.1 1-.3l1-.7.5-1.2.2-1.5c0-.5 0-1.1-.2-1.6l-.6-1.2c-.2-.3-.5-.6-.9-.7-.3-.2-.7-.3-1.1-.3a2.5 2.5 0 0 0-2 1l-.6 1.2-.2 1.6a5 5 0 0 0 .7 2.7l1 .7c.3.2.7.3 1 .3zm7 1.1v-9.7h1.3l.2 1.4 1.5-1.2c.5-.3 1-.5 1.8-.5 1 0 1.7.4 2.2 1 .5.6.7 1.6.7 2.8v6.2h-1.6v-6c0-.9-.2-1.5-.5-2-.3-.3-.7-.5-1.4-.5-.5 0-1 0-1.3.3a8 8 0 0 0-1.3 1.2v7h-1.7zm10.6 3.4l-.4-1c.6-.2 1-.6 1.3-1 .4-.4.5-.9.5-1.4h-.2c-.3 0-.6 0-.8-.3-.3-.2-.4-.5-.4-.8s.1-.7.4-.9c.2-.2.5-.3.8-.3.5 0 .8.2 1 .5.3.4.4.9.4 1.5 0 .8-.2 1.6-.7 2.2-.5.7-1 1.2-1.9 1.5zm11-3.2c-.6 0-1-.2-1.3-.5-.3-.4-.4-1-.4-1.7v-12.2h1.6v12.4l.1.5.3.2h.4l.2 1.2-.4.1a3 3 0 0 1-.5 0zm3.7-8.8l-.3-3.4v-1.8h1.7v1.8l-.4 3.4h-1zm7.5 8.8c-1 0-1.8-.3-2.3-1-.5-.6-.7-1.5-.7-2.8v-6.1h1.7v6c0 .8 0 1.5.4 2 .3.3.7.5 1.4.5.5 0 1-.1 1.3-.4.4-.2.8-.7 1.3-1.2v-7h1.6v9.8h-1.3l-.2-1.5-1.4 1.3c-.6.3-1.1.4-1.8.4zm11 0c-.4 0-.9 0-1.2-.2a2.4 2.4 0 0 1-1.3-1.7c-.2-.4-.2-.8-.2-1.3v-5.4h-1.5v-1.2l1.5-.1.2-2.7h1.4v2.7h2.6v1.3h-2.6v5.4c0 .6.1 1 .3 1.4.3.3.7.5 1.2.5h.6l.5-.3.4 1.3a6.6 6.6 0 0 1-1.9.3zm3.8-.2v-9.7h1.6v9.7h-1.6zm.8-11.7c-.3 0-.6-.1-.8-.3a1 1 0 0 1-.3-.8c0-.3 0-.5.3-.7.2-.2.5-.3.8-.3.3 0 .6 0 .8.3.2.2.4.4.4.7 0 .3-.2.6-.4.8a1 1 0 0 1-.8.3zm5.9 12c-.7 0-1.1-.3-1.4-.6-.3-.4-.4-1-.4-1.7v-12.2h1.7v12.9l.4.2h.4l.2 1.2-.4.1h-.6zm3.3-.3v-9.7h1.7v9.7h-1.7zm.8-11.7c-.3 0-.6-.1-.8-.3a1 1 0 0 1-.3-.8c0-.3.1-.5.3-.7.3-.2.5-.3.8-.3.4 0 .6 0 .8.3.3.2.4.4.4.7 0 .3-.1.6-.4.8-.2.2-.4.3-.8.3zm6.7 12a5.9 5.9 0 0 1-3.6-1.3l.8-1.2 1.3.8c.4.2 1 .4 1.5.4.7 0 1.2-.2 1.5-.5.3-.3.5-.6.5-1l-.2-.7c-.2-.2-.3-.4-.6-.5a3 3 0 0 0-.7-.4l-.8-.3-1-.4a5 5 0 0 1-1-.6 3 3 0 0 1-.6-.7 2 2 0 0 1-.2-1.1 2.5 2.5 0 0 1 .8-2l1-.5a4 4 0 0 1 1.5-.3c.6 0 1.2.1 1.7.4.5.2 1 .4 1.3.7l-.8 1-1-.5-1.2-.3c-.6 0-1 .2-1.4.4-.2.3-.4.6-.4 1 0 .2 0 .4.2.6l.5.5.7.3.8.3a22.6 22.6 0 0 1 2 1 2.4 2.4 0 0 1 1 2 2.6 2.6 0 0 1-1 2l-1.1.6c-.5.2-1 .2-1.5.2zm8 0a3 3 0 0 1-2-.8c-.5-.5-.8-1.1-.8-2 0-1 .5-1.9 1.4-2.5 1-.5 2.5-1 4.6-1.2l-.1-.9-.3-.7-.7-.6a2 2 0 0 0-1-.2l-1.5.3-1.3.7-.7-1.1c.5-.3 1-.6 1.7-.8.7-.3 1.4-.5 2.2-.5 1.1 0 2 .4 2.5 1.1.6.8.8 1.7.8 3v5.9h-1.3l-.1-1.2h-.1c-.5.4-1 .8-1.5 1-.5.3-1.1.4-1.7.4zm.5-1.4c.5 0 1 0 1.4-.3l1.3-1V250l-2 .4c-.6.1-1 .3-1.4.5a2 2 0 0 0-.8.7l-.2.9c0 .5.2 1 .5 1.2l1.2.3zm10.2 1.3c-.5 0-1 0-1.3-.2-.4-.2-.7-.4-.9-.7l-.5-1-.1-1.3v-5.4h-1.4v-1.2l1.5-.1.2-2.7h1.4v2.7h2.6v1.3h-2.6v5.4c0 .6 0 1 .3 1.4.2.3.6.5 1.2.5h.5l.6-.3.3 1.3a6.6 6.6 0 0 1-1.8.3zm3.7-.2v-9.7h1.6v9.7h-1.6zm.8-11.7c-.3 0-.6-.1-.8-.3a1 1 0 0 1-.3-.8c0-.3 0-.5.3-.7.2-.2.5-.3.8-.3.3 0 .6 0 .8.3.2.2.4.4.4.7 0 .3-.1.6-.4.8-.2.2-.5.3-.8.3zm7.9 12a4.2 4.2 0 0 1-3.2-1.4c-.4-.4-.7-1-1-1.6-.2-.6-.3-1.3-.3-2.1s.1-1.6.4-2.2c.2-.6.6-1.2 1-1.6a4.4 4.4 0 0 1 4.8-1c.6.2 1 .5 1.4 1 .4.4.8 1 1 1.6.3.6.4 1.4.4 2.2 0 .8-.1 1.5-.4 2.1-.2.7-.6 1.2-1 1.6a4.2 4.2 0 0 1-3.1 1.3zm0-1.4c.4 0 .8-.1 1.1-.3.4-.2.7-.4.9-.7l.6-1.2.2-1.5-.2-1.6-.6-1.2c-.2-.3-.5-.6-.9-.7-.4-.2-.7-.3-1.1-.3l-1.2.3-.9.7a4 4 0 0 0-.5 1.2c-.2.5-.2 1-.2 1.6l.2 1.5c0 .4.3.8.5 1.2l1 .7c.3.2.7.3 1 .3zm7 1.1v-9.7h1.4l.1 1.4h.1l1.5-1.2c.5-.3 1-.5 1.8-.5 1 0 1.7.4 2.2 1 .5.6.7 1.6.7 2.8v6.2h-1.6v-6c0-.9-.2-1.5-.5-2-.2-.3-.7-.5-1.4-.5-.5 0-.9 0-1.3.3a8 8 0 0 0-1.3 1.2v7h-1.6zM236 284.2c-1.2 0-2.2-.4-3-1.3-.7-.9-1-2.1-1-3.7 0-.8 0-1.5.3-2.2l1-1.6c.4-.4.8-.8 1.3-1a3.7 3.7 0 0 1 3 0c.5.1.9.4 1.3.8v-5.4h1.6V284h-1.4l-.1-1.1-1.4 1c-.5.2-1 .3-1.6.3zm.4-1.3c.4 0 .8-.1 1.2-.4a5 5 0 0 0 1.2-1v-5c-.4-.4-.8-.7-1.2-.8-.3-.2-.7-.3-1.1-.3-.4 0-.8.1-1.1.3l-.9.8-.6 1.1-.2 1.5c0 1.2.2 2.1.7 2.8.5.6 1.1 1 2 1zm11.3 1.3c-.6 0-1.3 0-1.8-.3-.6-.2-1-.6-1.5-1a5 5 0 0 1-1-1.6 6 6 0 0 1 0-4.3c.3-.6.6-1.2 1-1.6a4.4 4.4 0 0 1 3-1.4c.6 0 1.2.1 1.6.4.5.2 1 .5 1.3.9.3.4.6.9.7 1.4.2.6.3 1.2.3 1.9v.9h-6.6a4 4 0 0 0 1 2.5 3 3 0 0 0 2.2 1c.5 0 .9-.1 1.3-.3a6 6 0 0 0 1.1-.5l.6 1-1.4.7c-.6.2-1.1.3-1.8.3zm-3-5.8h5.1c0-1-.2-1.8-.6-2.3-.4-.5-1-.8-1.7-.8l-1 .2-.9.6-.6 1c-.2.4-.3.8-.3 1.3zm11.5 5.8c-.7 0-1.3 0-2-.3l-1.6-1 .9-1.1 1.3.8c.4.2 1 .4 1.5.4.6 0 1.1-.2 1.4-.5.4-.3.5-.6.5-1 0-.3 0-.5-.2-.7l-.5-.5-.7-.4c-.3 0-.5-.2-.8-.3l-1-.4a5 5 0 0 1-1-.6 3 3 0 0 1-.6-.7 2 2 0 0 1-.3-1.1c0-.4 0-.8.2-1a2.8 2.8 0 0 1 1.8-1.5 4 4 0 0 1 1.4-.3c.6 0 1.1.1 1.6.4l1.4.7-.8 1-1-.5-1.2-.3c-.6 0-1 .2-1.4.4-.3.3-.4.6-.4 1 0 .3 0 .5.2.6 0 .2.3.3.5.5l.6.3.9.3a22.6 22.6 0 0 1 2 1c.2.2.5.5.6.8.2.3.3.7.3 1.1a2.8 2.8 0 0 1-.9 2c-.3.4-.7.6-1.1.7-.4.2-1 .2-1.5.2zm13.8 0c-.6 0-1.2 0-1.8-.3-.6-.2-1-.6-1.5-1-.4-.4-.7-1-1-1.6-.2-.6-.3-1.3-.3-2.1s0-1.5.3-2.2c.3-.6.6-1.2 1-1.6a4 4 0 0 1 1.4-1c.5-.2 1-.4 1.6-.4a4 4 0 0 1 1.7.4c.5.2.9.5 1.2.9l.8 1.4.2 1.9v.9H267c0 1 .4 2 1 2.5a3 3 0 0 0 2.2 1 4.2 4.2 0 0 0 2.5-.8l.5 1-1.4.7a5 5 0 0 1-1.8.3zm-3-5.8h5.2c0-1-.2-1.8-.7-2.3a2 2 0 0 0-1.7-.8l-1 .2-.9.6-.6 1c-.1.4-.3.8-.3 1.3zm2.5-5.9l-.9-.8 2.9-3.3 1.1 1-3.1 3.1zM276 284v-9.7h1.4v1.4h.1l1.5-1.2c.5-.3 1.1-.5 1.8-.5 1 0 1.8.4 2.3 1 .4.6.7 1.6.7 2.8v6.2H282v-6c0-.9-.1-1.5-.4-2-.3-.3-.8-.5-1.4-.5-.5 0-1 0-1.4.3a8 8 0 0 0-1.3 1.2v7H276zm14.9.2c-.7 0-1.3 0-1.9-.3-.5-.2-1-.6-1.4-1-.5-.4-.8-1-1-1.6-.3-.6-.4-1.3-.4-2.1s.1-1.5.4-2.2c.2-.6.6-1.2 1-1.6a4.1 4.1 0 0 1 3-1.4 4 4 0 0 1 1.6.4c.5.2 1 .5 1.2.9.4.4.6.9.8 1.4.2.6.3 1.2.3 1.9v.5l-.1.4h-6.6c0 1 .4 2 1 2.5a3 3 0 0 0 2.3 1c.4 0 .9-.1 1.2-.3a6 6 0 0 0 1.2-.5l.5 1-1.4.7a5 5 0 0 1-1.8.3zm-3-5.8h5.1c0-1-.2-1.8-.6-2.3-.4-.5-1-.8-1.8-.8l-1 .2-.8.6a3 3 0 0 0-.6 1l-.4 1.3zm9 5.6v-9.7h1.3l.2 1.7 1.2-1.4a2.6 2.6 0 0 1 2.6-.4l-.3 1.5-.4-.1h-.5c-.4 0-.9 0-1.3.4-.4.3-.8 1-1.2 1.8v6.2H297zm10 4.5a7 7 0 0 1-1.7-.2l-1.2-.5c-.4-.2-.7-.5-.9-.8a2 2 0 0 1-.2-1.1c0-.4 0-.8.3-1.2l1-1v-.1a2 2 0 0 1-.5-.6c-.2-.3-.3-.6-.3-1s.1-.8.4-1c.2-.4.4-.6.7-.8l-.9-1.1a3.4 3.4 0 0 1-.1-3c.2-.5.5-.8.8-1.1.3-.3.7-.6 1.2-.7a4.2 4.2 0 0 1 2.8 0h3.4v1.2h-2a3 3 0 0 1 .7 2c0 .6 0 1-.2 1.5l-.8 1-1.1.7a4 4 0 0 1-2.2.1 4 4 0 0 1-.7-.2l-.4.5-.2.6c0 .3.1.6.4.8.2.2.7.3 1.3.3h2c1 0 1.9.2 2.4.6.6.3.9 1 .9 1.7 0 .5-.1.9-.3 1.3-.3.4-.6.8-1 1-.5.4-1 .6-1.6.8-.6.2-1.3.3-2 .3zm0-8.7l.8-.1.6-.5.5-.7.2-1c0-.7-.2-1.3-.6-1.7a2 2 0 0 0-1.5-.6 2 2 0 0 0-1.5.6c-.4.4-.6 1-.6 1.7 0 .4 0 .7.2 1a2 2 0 0 0 1.1 1.2l.8.1zm.2 7.5a4.1 4.1 0 0 0 2.3-.6l.6-.6.2-.7c0-.5-.2-.8-.5-1-.3-.2-.8-.2-1.5-.2H306l-.6-.2c-.4.2-.6.5-.8.8l-.2.8c0 .6.2 1 .7 1.3a4 4 0 0 0 2.1.4zm6.6-3.3v-9.7h1.6v9.7h-1.6zm.8-11.7c-.3 0-.6-.1-.8-.3a1 1 0 0 1-.3-.8c0-.3.1-.6.3-.7.2-.2.5-.3.8-.3.3 0 .6 0 .8.3.2.2.4.4.4.7 0 .3-.1.6-.4.8a1 1 0 0 1-.8.3zm8 12a4.7 4.7 0 0 1-3.3-1.4 5 5 0 0 1-1-1.6c-.2-.6-.3-1.3-.3-2.1s.1-1.5.3-2.2c.3-.6.6-1.2 1-1.6a4.4 4.4 0 0 1 3-1.4 4 4 0 0 1 1.7.4c.5.2.9.5 1.2.9l.8 1.4.2 1.9v.9h-6.6c0 1 .4 2 1 2.5a3 3 0 0 0 2.2 1c.5 0 1-.2 1.3-.3l1.2-.5.6 1-1.5.7c-.5.2-1 .3-1.7.3zm-3-6h5.2c0-1-.2-1.7-.6-2.2-.5-.5-1-.8-1.8-.8l-1 .2-.8.6-.7 1a4 4 0 0 0-.3 1.3zm11.6 6a6 6 0 0 1-3.6-1.3l.8-1.2 1.3.8c.4.2 1 .4 1.5.4.7 0 1.2-.2 1.5-.5.3-.3.5-.6.5-1l-.2-.7c-.2-.2-.3-.4-.6-.5l-.7-.4-.8-.3-1-.4a5 5 0 0 1-1-.6 3 3 0 0 1-.6-.7c-.2-.3-.2-.7-.2-1.1a2.5 2.5 0 0 1 .9-2 3 3 0 0 1 1-.5 4 4 0 0 1 1.4-.3c.6 0 1.2.1 1.7.4.5.2 1 .4 1.3.7l-.8 1a6 6 0 0 0-1-.5l-1.2-.3c-.6 0-1 .2-1.4.4-.2.3-.3.6-.3 1l.1.6.5.5a6.2 6.2 0 0 0 1.5.6l1 .4c.4.2.7.3 1 .6l.7.8c.2.3.3.7.3 1.1a2.6 2.6 0 0 1-1 2c-.3.4-.6.6-1 .7-.5.2-1 .2-1.6.2zm10.1-.3v-8.4h-1.3v-1.2l1.3-.1v-1.6c0-1 .2-1.8.7-2.3.4-.6 1.2-.9 2.1-.9l1 .1.7.2-.4 1.3c-.4-.2-.7-.2-1-.2-1 0-1.5.6-1.5 1.8v1.6h2.1v1.3h-2v8.4h-1.7zm9.1.2a4.2 4.2 0 0 1-3.1-1.3c-.4-.4-.8-1-1-1.6-.3-.6-.4-1.3-.4-2.1s.1-1.6.4-2.2c.2-.6.6-1.2 1-1.6a4 4 0 0 1 1.4-1 4.4 4.4 0 0 1 5.8 2.6c.3.6.4 1.3.4 2.2 0 .8 0 1.5-.4 2.1-.2.6-.5 1.2-1 1.6a4.4 4.4 0 0 1-3 1.3zm0-1.3l1.2-.3.9-.7.6-1.2a5.9 5.9 0 0 0 0-3l-.6-1.3c-.3-.3-.6-.6-1-.7-.3-.2-.6-.3-1-.3-.5 0-.9.1-1.2.3-.4.2-.7.4-.9.7l-.6 1.2-.2 1.6.2 1.5.6 1.2c.2.3.5.5.9.7.3.2.7.3 1.1.3zm9.6 1.3c-.7 0-1.3 0-2-.3a6 6 0 0 1-1.6-1l.8-1.1 1.3.8c.5.2 1 .4 1.6.4.6 0 1.1-.2 1.4-.5.3-.3.5-.6.5-1 0-.3 0-.5-.2-.7l-.5-.5-.7-.4c-.3 0-.6-.2-.8-.3l-1-.4-1-.6a3 3 0 0 1-.7-.7l-.2-1.1a2.5 2.5 0 0 1 .9-2 3 3 0 0 1 1-.5 4 4 0 0 1 1.4-.3c.6 0 1.2.1 1.7.4.5.2 1 .4 1.3.7l-.7 1-1-.5a3 3 0 0 0-1.3-.3c-.6 0-1 .2-1.3.4-.3.3-.4.6-.4 1 0 .2 0 .4.2.6 0 .2.3.3.5.5l.6.3.8.3a22.6 22.6 0 0 1 2 1l.7.8c.2.3.3.7.3 1.1l-.3 1.2c0 .3-.3.6-.6.9-.3.3-.7.5-1.1.6-.5.2-1 .2-1.5.2zm8.4 0c-.7 0-1.4 0-2-.3-.6-.3-1.2-.6-1.6-1l.8-1.1 1.3.8c.4.2 1 .4 1.6.4.6 0 1-.2 1.4-.5.3-.3.5-.6.5-1 0-.3 0-.5-.2-.7l-.5-.5-.7-.4c-.3 0-.6-.2-.8-.3l-1-.4-1-.6a3 3 0 0 1-.7-.7c-.2-.3-.3-.7-.3-1.1a2.5 2.5 0 0 1 1-2 4 4 0 0 1 2.5-.8c.5 0 1 .1 1.6.4.5.2 1 .4 1.3.7l-.8 1-1-.5-1.2-.3c-.7 0-1.1.2-1.4.4-.3.3-.4.6-.4 1 0 .2 0 .4.2.6l.5.5.6.3.9.3a22.6 22.6 0 0 1 2 1 2.4 2.4 0 0 1 1 2 2.7 2.7 0 0 1-1 2c-.3.3-.7.5-1.1.6-.5.2-1 .2-1.5.2zm5.8-.2v-9.7h1.7v9.7h-1.6zm.9-11.7c-.3 0-.6-.1-.8-.3a1 1 0 0 1-.3-.8c0-.3 0-.6.3-.7.2-.2.5-.3.8-.3.3 0 .6 0 .8.3.2.2.3.4.3.7 0 .3 0 .6-.3.8-.2.2-.5.3-.8.3zm5.8 12c-.6 0-1-.3-1.3-.6-.3-.4-.4-1-.4-1.7v-12.2h1.6v12.4c0 .2 0 .4.2.5l.3.2h.4l.2 1.2-.4.1a3 3 0 0 1-.6 0zm7.3 0c-.6 0-1.3-.2-1.8-.4-.6-.2-1-.6-1.5-1a5 5 0 0 1-1-1.6 6 6 0 0 1 0-4.3c.2-.6.6-1.2 1-1.6a4.4 4.4 0 0 1 3-1.4c.6 0 1.1.1 1.6.4.5.2 1 .5 1.2.9.4.4.6.9.8 1.4.2.6.3 1.2.3 1.9v.9H385a4 4 0 0 0 1 2.5c.5.6 1.3 1 2.2 1 .5 0 1-.2 1.3-.3a6 6 0 0 0 1.1-.5l.6 1a8 8 0 0 1-1.4.7c-.5.2-1.1.3-1.8.3zm-3-6h5.1c0-1-.2-1.7-.6-2.2-.4-.5-1-.8-1.8-.8l-1 .2-.8.6-.7 1-.3 1.3zm11.5 6c-.7 0-1.3-.2-2-.4a6 6 0 0 1-1.6-1l.8-1.1 1.3.8c.5.2 1 .4 1.6.4.6 0 1.1-.2 1.4-.5.3-.3.5-.6.5-1 0-.3 0-.5-.2-.7l-.5-.5-.7-.4c-.3 0-.5-.2-.8-.3l-1-.4-1-.6a3 3 0 0 1-.7-.7l-.2-1.1a2.5 2.5 0 0 1 .9-2 4 4 0 0 1 2.5-.8c.5 0 1.1.1 1.6.4.5.2 1 .4 1.3.7l-.7 1-1-.5a3 3 0 0 0-1.3-.3c-.6 0-1 .2-1.3.4-.3.3-.4.6-.4 1l.1.6.5.5.7.3.8.3a37.6 37.6 0 0 1 2 1 2.4 2.4 0 0 1 1 2c0 .3-.1.7-.3 1-.1.4-.3.7-.6 1-.3.3-.7.5-1.2.6-.4.2-.9.2-1.5.2zm13.8 0c-.6 0-1.3-.2-1.8-.4-.6-.2-1-.6-1.5-1a5 5 0 0 1-1-1.6c-.2-.6-.3-1.3-.3-2.1s0-1.5.3-2.2c.3-.6.6-1.2 1-1.6a4 4 0 0 1 1.4-1c.5-.2 1-.4 1.6-.4a4 4 0 0 1 1.7.4c.5.2.9.5 1.2.9l.8 1.4.2 1.9v.9h-6.6a4 4 0 0 0 1 2.5 3 3 0 0 0 2.2 1c.5 0 1-.2 1.3-.3a6 6 0 0 0 1.1-.5l.6 1-1.4.7c-.5.2-1.1.3-1.8.3zm-3-6h5.2c0-1-.2-1.7-.7-2.2a2 2 0 0 0-1.7-.8l-1 .2-.9.6-.6 1c-.2.3-.3.8-.3 1.3zm11.6 6a6.1 6.1 0 0 1-3.6-1.3l.8-1.2 1.3.8c.4.2 1 .4 1.5.4.6 0 1.1-.2 1.4-.5.3-.3.5-.6.5-1 0-.3 0-.5-.2-.7l-.5-.5a3 3 0 0 0-.7-.4c-.3 0-.5-.2-.8-.3l-1-.4-1-.6a2.2 2.2 0 0 1-1-1.8l.3-1a2.8 2.8 0 0 1 1.7-1.5 4 4 0 0 1 1.4-.3c.6 0 1.2.1 1.7.4.5.2 1 .4 1.3.7l-.7 1-1-.5a3 3 0 0 0-1.3-.3c-.6 0-1 .2-1.3.4-.3.3-.4.6-.4 1l.1.6.5.5.7.3.8.3a28 28 0 0 1 2 1l.7.8c.2.3.3.7.3 1.1l-.3 1.2-.6.9c-.3.3-.7.5-1.2.6-.4.2-.9.2-1.5.2zm8.5 0c-.6 0-1-.1-1.4-.3l-.8-.7-.5-1-.1-1.3v-5.4h-1.5v-1.2l1.6-.1.2-2.7h1.3v2.7h2.7v1.3h-2.7v5.4c0 .6.1 1 .4 1.4.2.3.6.5 1.1.5h.6l.5-.3.4 1.3a6.6 6.6 0 0 1-1.8.3zm7.7 3.8v-13.8h1.3l.2 1.1 1.5-1a3.7 3.7 0 0 1 3.3 0c.5.2.9.6 1.2 1 .3.4.5 1 .7 1.6a7.5 7.5 0 0 1 0 4.2 5 5 0 0 1-1 1.7c-.4.4-.8.8-1.3 1-.5.2-1 .3-1.6.3-.5 0-1 0-1.4-.3-.4-.2-.9-.4-1.3-.8v5h-1.6zm4-5.2c.4 0 .7-.1 1-.3.4-.2.7-.4 1-.8l.5-1.2c.2-.5.3-1 .3-1.6 0-.5 0-1-.2-1.5 0-.4-.2-.8-.4-1a2 2 0 0 0-.8-.8 2.6 2.6 0 0 0-2.4 0 8 8 0 0 0-1.4 1v5.1c.4.4.9.7 1.3.8l1 .3zm7 1.1v-9.7h1.4l.1 1.7c.4-.6.8-1 1.3-1.4.5-.4 1-.6 1.5-.6l1 .2-.2 1.5-.5-.1h-.5c-.4 0-.8 0-1.3.4a4 4 0 0 0-1.1 1.8v6.2h-1.7zm7 0v-9.7h1.6v9.7h-1.6zm.8-11.7c-.3 0-.6-.1-.8-.3a1 1 0 0 1-.3-.8c0-.3 0-.6.3-.7.2-.2.5-.3.8-.3.3 0 .6 0 .8.3.2.2.4.4.4.7 0 .3-.1.6-.4.8a1 1 0 0 1-.8.3zm4.1 11.7v-9.7h1.4l.1 1.4 1.5-1.2c.5-.3 1.1-.5 1.8-.5 1 0 1.8.4 2.3 1 .5.6.7 1.6.7 2.8v6.2h-1.7v-6c0-.9-.1-1.5-.4-2-.3-.3-.8-.5-1.4-.5-.5 0-1 0-1.3.3l-1.3 1.2v7H458zm14.8.2a4.5 4.5 0 0 1-3.3-1.3 5 5 0 0 1-1-1.6 6.6 6.6 0 0 1 .1-4.3 4.3 4.3 0 0 1 2.5-2.6c.6-.3 1.2-.4 1.8-.4.7 0 1.2.1 1.7.4l1.2.8-.9 1-.9-.6-1-.2c-.5 0-.9.1-1.2.3-.4.1-.7.4-1 .7s-.5.8-.6 1.2a4.6 4.6 0 0 0 .6 4.2 2.7 2.7 0 0 0 3.3.8 5 5 0 0 0 1.1-.7l.7 1.1a4.8 4.8 0 0 1-3.1 1.2zm5.3-.2v-9.7h1.6v9.7h-1.6zm.8-11.7c-.3 0-.6-.1-.8-.3a1 1 0 0 1-.3-.8c0-.3 0-.6.3-.7.2-.2.5-.3.8-.3.3 0 .6 0 .8.3.2.2.3.4.3.7 0 .3 0 .6-.3.8-.2.2-.5.3-.8.3zm4 15.8v-13.8h1.4l.2 1.1 1.5-1a3.7 3.7 0 0 1 3.3 0c.5.2.9.6 1.2 1 .3.4.5 1 .7 1.6a7.5 7.5 0 0 1 0 4.2l-1 1.7c-.4.4-.8.8-1.4 1-.5.2-1 .3-1.6.3-.4 0-.9 0-1.3-.3-.5-.2-1-.4-1.4-.8v5H483zm4.1-5.2c.4 0 .8-.1 1.1-.3l.9-.8.5-1.2c.2-.5.3-1 .3-1.6 0-.5 0-1-.2-1.5 0-.4-.2-.8-.4-1a2 2 0 0 0-.8-.8 2.5 2.5 0 0 0-2.4 0 8 8 0 0 0-1.4 1v5.1c.5.4.9.7 1.3.8l1.1.3zm9 1.3a3 3 0 0 1-2-.7c-.6-.5-.8-1.1-.8-2 0-1 .4-1.9 1.4-2.5 1-.5 2.5-1 4.5-1.2v-.9l-.4-.7c-.1-.3-.3-.4-.6-.6a2 2 0 0 0-1-.2l-1.5.3-1.4.7-.6-1.1c.5-.3 1-.6 1.7-.8.6-.3 1.3-.5 2.1-.5 1.2 0 2 .4 2.6 1.1.5.8.8 1.7.8 3v5.9h-1.3l-.2-1.2c-.5.4-1 .8-1.5 1-.6.3-1.1.4-1.7.4zm.5-1.3c.5 0 .9 0 1.3-.3l1.3-1V279l-2 .4c-.6.1-1 .3-1.4.5l-.7.7c-.2.3-.2.5-.2.9 0 .5.1 1 .5 1.2.3.2.7.3 1.2.3zm9.1 1.3c-.6 0-1-.2-1.3-.5-.3-.4-.4-1-.4-1.7v-12.2h1.6v12.4l.1.5.4.2H506.4l.2 1.2-.3.1a3 3 0 0 1-.6 0zm7.3 0c-.7 0-1.3 0-1.8-.3-.6-.2-1.1-.6-1.5-1-.4-.4-.8-1-1-1.6a6 6 0 0 1 0-4.3c.3-.6.6-1.2 1-1.6a4 4 0 0 1 1.4-1c.5-.2 1-.4 1.6-.4a4 4 0 0 1 1.7.4c.5.2.9.5 1.2.9.3.4.6.9.7 1.4.2.6.3 1.2.3 1.9v.9H510c0 1 .3 2 1 2.5a3 3 0 0 0 2.2 1l1.3-.3a6 6 0 0 0 1.1-.5l.6 1-1.4.7a5 5 0 0 1-1.8.3zm-3-5.8h5.1c0-1-.2-1.8-.6-2.3a2 2 0 0 0-1.7-.8l-1 .2-.9.6a3 3 0 0 0-.6 1c-.2.3-.3.8-.3 1.3zm9 5.6v-9.7h1.4l.1 1.4 1.5-1.2a3 3 0 0 1 1.6-.5c.7 0 1.3.2 1.7.5.4.4.8.8 1 1.4.5-.6 1-1 1.5-1.3a3 3 0 0 1 1.7-.6c1 0 1.7.4 2.2 1 .5.6.7 1.6.7 2.8v6.2h-1.6v-6c0-.9-.1-1.5-.4-2-.3-.3-.8-.5-1.4-.5-.7 0-1.5.5-2.4 1.5v7h-1.7v-6c0-.9-.1-1.5-.4-2-.3-.3-.8-.5-1.4-.5-.7 0-1.5.5-2.4 1.5v7H519zm20.5.2c-.6 0-1.3 0-1.8-.3-.6-.2-1-.6-1.5-1-.4-.4-.8-1-1-1.6a6 6 0 0 1 0-4.3c.3-.6.6-1.2 1-1.6a4.1 4.1 0 0 1 3-1.4 4 4 0 0 1 1.6.4c.5.2 1 .5 1.3.9.3.4.6.9.7 1.4.2.6.3 1.2.3 1.9v.9h-6.7a4 4 0 0 0 1 2.5 3 3 0 0 0 2.3 1 6 6 0 0 0 2.4-.8l.6 1-1.5.7c-.5.2-1 .3-1.7.3zm-3-5.8h5.2c0-1-.2-1.8-.7-2.3-.4-.5-1-.8-1.7-.8l-1 .2-.9.6-.6 1a4 4 0 0 0-.3 1.3zm9 5.6v-9.7h1.4l.1 1.4c.6-.5 1-.9 1.6-1.2.5-.3 1-.5 1.8-.5 1 0 1.7.4 2.2 1 .5.6.7 1.6.7 2.8v6.2h-1.6v-6c0-.9-.2-1.5-.5-2-.3-.3-.7-.5-1.4-.5-.5 0-1 0-1.3.3l-1.3 1.2v7h-1.6zm14 .2c-.5 0-1 0-1.3-.2-.4-.2-.7-.4-.9-.7-.2-.2-.4-.6-.4-1l-.2-1.3v-5.4h-1.4v-1.2l1.5-.1.2-2.7h1.4v2.7h2.6v1.3h-2.6v5.4c0 .6 0 1 .3 1.4.2.3.6.5 1.2.5h.5l.6-.3.3 1.3a6.6 6.6 0 0 1-1.8.3zm10.5 0c-1 0-1.8-.3-2.3-1-.4-.6-.7-1.5-.7-2.8v-6.1h1.7v6c0 .8.2 1.5.4 2 .3.3.8.5 1.4.5.5 0 1-.1 1.4-.4a7 7 0 0 0 1.2-1.2v-7h1.7v9.8h-1.4l-.1-1.5c-.5.5-1 1-1.5 1.3-.5.3-1.1.4-1.8.4zm11.1 0c-.5 0-1 0-1.3-.2l-.8-.7-.5-1-.1-1.3v-5.4h-1.5v-1.2l1.6-.1.2-2.7h1.3v2.7h2.6v1.3H580v5.4c0 .6.1 1 .3 1.4.3.3.6.5 1.2.5h.6l.5-.3.3 1.3a7 7 0 0 1-1.8.3zm3.7-.2v-9.7h1.7v9.7h-1.7zm.9-11.7c-.3 0-.6-.1-.8-.3a1 1 0 0 1-.3-.8c0-.3 0-.6.3-.7.2-.2.5-.3.8-.3.3 0 .6 0 .8.3.2.2.3.4.3.7 0 .3-.1.6-.3.8-.2.2-.5.3-.8.3zm5.8 12c-.6 0-1-.3-1.4-.6-.2-.4-.4-1-.4-1.7v-12.2h1.7v12.4l.1.5.3.2h.4l.2 1.2-.4.1h-.5zm3.3-.3v-9.7h1.7v9.7h-1.6zm.9-11.7c-.3 0-.6-.1-.8-.3a1 1 0 0 1-.3-.8c0-.3 0-.6.3-.7.2-.2.5-.3.8-.3.3 0 .6 0 .8.3.2.2.3.4.3.7 0 .3-.1.6-.3.8-.2.2-.5.3-.8.3zm6.6 12c-.7 0-1.3-.2-2-.4a6 6 0 0 1-1.6-1l.8-1.1 1.3.8c.4.2 1 .4 1.6.4.6 0 1-.2 1.4-.5.3-.3.5-.6.5-1 0-.3 0-.5-.2-.7l-.5-.5a3 3 0 0 0-.7-.4c-.3 0-.6-.2-.8-.3l-1-.4-1-.6a3 3 0 0 1-.7-.7 2 2 0 0 1-.3-1.1 2.5 2.5 0 0 1 1-2l1-.5a4 4 0 0 1 1.4-.3c.6 0 1.2.1 1.7.4.5.2 1 .4 1.3.7l-.8 1a5 5 0 0 0-1-.5 3 3 0 0 0-1.2-.3c-.6 0-1 .2-1.4.4-.3.3-.4.6-.4 1 0 .2 0 .4.2.6l.5.5a6 6 0 0 0 1.5.6 18.5 18.5 0 0 1 2 1c.2.2.5.5.6.8.2.3.3.7.3 1.1a2.7 2.7 0 0 1-1 2 3 3 0 0 1-1 .7c-.5.2-1 .2-1.5.2zm9.8 0c-.7 0-1.3-.2-1.8-.4-.6-.2-1.1-.6-1.5-1-.4-.4-.8-1-1-1.6-.2-.6-.4-1.3-.4-2.1s.1-1.5.4-2.2c.2-.6.6-1.2 1-1.6a4.1 4.1 0 0 1 3-1.4 4 4 0 0 1 1.6.4c.5.2 1 .5 1.2.9.4.4.6.9.8 1.4.2.6.3 1.2.3 1.9v.9H609a4 4 0 0 0 1 2.5 3 3 0 0 0 2.3 1l1.2-.3a6 6 0 0 0 1.2-.5l.5 1-1.4.7a5 5 0 0 1-1.7.3zm-3-6h5.1c0-1-.2-1.7-.6-2.2-.4-.5-1-.8-1.8-.8a2.5 2.5 0 0 0-1.8.8 3.2 3.2 0 0 0-1 2.3zm2.4-5.8l-.8-.8 2.8-3.3 1.2 1-3.2 3.1zm13.9 11.7c-1.2 0-2.2-.4-3-1.3a6 6 0 0 1-1-3.7c0-.8 0-1.5.3-2.2l1-1.6a4 4 0 0 1 1.3-1 3.7 3.7 0 0 1 3 0c.5.1.9.4 1.3.8v-5.4h1.6V284h-1.4l-.1-1.1a7 7 0 0 1-1.4 1c-.5.2-1 .3-1.6.3zm.4-1.3c.4 0 .8-.1 1.2-.4a5 5 0 0 0 1.2-1v-5c-.4-.4-.8-.7-1.2-.8a3 3 0 0 0-1.1-.3c-.4 0-.8.1-1.1.3-.4.2-.7.4-1 .8a4.5 4.5 0 0 0-.8 2.7c0 1.1.3 2 .7 2.7.5.6 1.2 1 2 1zm9.6 1.3c-.8 0-1.5-.2-2-.7s-.8-1.1-.8-2c0-1 .4-1.9 1.4-2.5 1-.5 2.4-1 4.5-1.2v-.9l-.4-.7c-.1-.3-.3-.4-.6-.6l-1-.2a4 4 0 0 0-1.6.3l-1.3.7-.6-1.1 1.6-.8c.7-.3 1.4-.5 2.2-.5 1.2 0 2 .4 2.6 1.1.5.8.8 1.7.8 3v5.9h-1.4l-.1-1.2h-.1c-.5.4-1 .8-1.5 1-.5.3-1.1.4-1.7.4zm.5-1.3c.5 0 .9 0 1.3-.3l1.3-1V279l-2 .4c-.6.1-1 .3-1.4.5-.3.2-.6.4-.7.7-.2.3-.2.5-.2.9 0 .5.1 1 .5 1.2.3.2.7.3 1.2.3zm7.4 1.1v-9.7h1.3l.2 1.4 1.5-1.2c.5-.3 1-.5 1.8-.5 1 0 1.8.4 2.2 1 .5.6.7 1.6.7 2.8v6.2h-1.6v-6c0-.9-.2-1.5-.4-2-.3-.3-.8-.5-1.4-.5-.5 0-1 0-1.4.3a8 8 0 0 0-1.3 1.2v7h-1.6zm13.4.2c-.7 0-1.3 0-2-.3l-1.6-1 .8-1.1 1.3.8c.5.2 1 .4 1.6.4.6 0 1.1-.2 1.4-.5.4-.3.5-.6.5-1 0-.3 0-.5-.2-.7l-.5-.5-.7-.4c-.3 0-.5-.2-.8-.3a15 15 0 0 1-1-.4l-1-.6a4 4 0 0 1-.6-.7c-.2-.3-.3-.7-.3-1.1 0-.4 0-.8.2-1a2.8 2.8 0 0 1 1.7-1.5l1.4-.3c.7 0 1.2.1 1.7.4l1.4.7-.8 1-1-.5-1.2-.3c-.6 0-1 .2-1.4.4-.3.3-.4.6-.4 1 0 .2 0 .4.2.6 0 .2.2.3.4.5l.7.3.9.3 1 .4c.4.2.7.3 1 .6.2.2.5.5.6.8.2.3.3.7.3 1.1a2.8 2.8 0 0 1-.9 2 3 3 0 0 1-1.1.7c-.5.2-1 .2-1.5.2zm13.7 0a4.4 4.4 0 0 1-3.2-1.3 5.1 5.1 0 0 1-1.3-3.7 5.5 5.5 0 0 1 1.4-3.8 4.7 4.7 0 0 1 3.3-1.3c.6 0 1.2 0 1.6.3.5.2.9.5 1.2.8l-.8 1-1-.6-1-.2-1.2.3c-.4.1-.7.4-1 .7s-.4.8-.6 1.2l-.2 1.6a4.6 4.6 0 0 0 .8 2.7l1 .7c.3.2.7.3 1.2.3l1.2-.3a5 5 0 0 0 1-.7l.8 1.1-1.5 1-1.7.2zm8.8 0c-.6 0-1.2 0-1.8-.3-.6-.2-1-.6-1.5-1-.4-.4-.7-1-1-1.6-.2-.6-.3-1.3-.3-2.1s0-1.5.3-2.2c.3-.6.6-1.2 1-1.6a4 4 0 0 1 1.4-1c.5-.2 1-.4 1.6-.4a4 4 0 0 1 1.7.4c.5.2.9.5 1.2.9.3.4.6.9.7 1.4.2.6.3 1.2.3 1.9v.9h-6.6c0 1 .4 2 1 2.5a3 3 0 0 0 2.2 1 4.1 4.1 0 0 0 2.4-.8l.6 1-1.4.7a5 5 0 0 1-1.8.3zm-3-5.8h5.2c0-1-.2-1.8-.7-2.3a2 2 0 0 0-1.7-.8l-1 .2-.9.6-.6 1c-.2.3-.3.8-.3 1.3zm11.9 5.8c-.5 0-1 0-1.4-.2a2.3 2.3 0 0 1-1.3-1.7l-.1-1.3v-5.4h-1.4v-1.2l1.5-.1.2-2.7h1.4v2.7h2.6v1.3H687v5.4c0 .6 0 1 .3 1.4.2.3.6.5 1.2.5h.5l.6-.3.3 1.3a5.9 5.9 0 0 1-1.8.3zm6.3 0c-.5 0-1 0-1.3-.2l-.8-.7c-.3-.2-.4-.6-.5-1l-.2-1.3v-5.4h-1.4v-1.2l1.5-.1.2-2.7h1.4v2.7h2.6v1.3h-2.6v5.4c0 .6 0 1 .3 1.4.2.3.6.5 1.2.5h.6l.5-.3.3 1.3a5.7 5.7 0 0 1-1.8.3zm7.4 0c-.7 0-1.3 0-1.8-.3-.6-.2-1.1-.6-1.5-1-.4-.4-.8-1-1-1.6-.3-.6-.4-1.3-.4-2.1s.1-1.5.4-2.2a5 5 0 0 1 1-1.6 4.1 4.1 0 0 1 4.6-1c.5.2.9.5 1.2.9.4.4.6.9.8 1.4.2.6.3 1.2.3 1.9v.5l-.1.4h-6.6c.1 1 .4 2 1 2.5a3 3 0 0 0 2.3 1c.5 0 .9-.2 1.3-.3a6 6 0 0 0 1.1-.5l.6 1-1.4.7a5 5 0 0 1-1.8.3zm-3-5.8h5.1c0-1-.2-1.8-.6-2.3-.4-.5-1-.8-1.8-.8l-1 .2-.8.6a3 3 0 0 0-.7 1l-.3 1.3zm13 5.6v-9.7h1.6v9.7h-1.6zm.8-11.7c-.3 0-.6-.1-.8-.3a1 1 0 0 1-.3-.8c0-.3 0-.6.3-.7.2-.2.5-.3.8-.3.3 0 .6 0 .8.3.2.2.4.4.4.7 0 .3-.1.6-.4.8a1 1 0 0 1-.8.3zm4.1 11.7v-9.7h1.3l.2 1.4a8 8 0 0 1 1.5-1.2c.5-.3 1-.5 1.8-.5 1 0 1.8.4 2.2 1 .5.6.7 1.6.7 2.8v6.2h-1.6v-6c0-.9-.1-1.5-.4-2-.3-.3-.8-.5-1.4-.5-.5 0-1 0-1.4.3l-1.3 1.2v7h-1.6zm14.3.2c-1.3 0-2.2-.4-3-1.3a6 6 0 0 1-1-3.7c0-.8 0-1.5.3-2.2.2-.6.5-1.1 1-1.6.3-.4.8-.8 1.3-1a3.7 3.7 0 0 1 3 0c.5.1.9.4 1.3.8v-5.4h1.6V284H734l-.1-1.1-1.4 1c-.5.2-1 .3-1.6.3zm.3-1.3c.5 0 1-.1 1.3-.4a5 5 0 0 0 1.2-1v-5c-.4-.4-.8-.7-1.2-.8a3 3 0 0 0-1.1-.3c-.4 0-.8.1-1.1.3-.4.2-.7.4-1 .8l-.5 1.1c-.2.5-.2 1-.2 1.5 0 1.2.2 2.1.7 2.8.4.6 1 1 2 1zm10.3 1.3c-1 0-1.8-.3-2.3-1-.4-.6-.7-1.5-.7-2.8v-6.1h1.7v6c0 .8.1 1.5.4 2 .3.3.8.5 1.4.5.5 0 1-.1 1.3-.4.4-.2.8-.7 1.3-1.2v-7h1.6v9.8H745l-.1-1.5h-.1c-.5.5-1 1-1.5 1.3-.5.3-1 .4-1.7.4zm10.6 0c-.7 0-1.4 0-2-.3-.6-.3-1.2-.6-1.6-1l.8-1.1 1.3.8c.4.2 1 .4 1.5.4.7 0 1.1-.2 1.5-.5.3-.3.4-.6.4-1 0-.3 0-.5-.2-.7 0-.2-.3-.4-.5-.5l-.7-.4-.8-.3a5.7 5.7 0 0 1-2-1l-.6-.7c-.2-.3-.3-.7-.3-1.1 0-.4.1-.8.3-1 .1-.4.4-.7.6-1a3 3 0 0 1 1-.5 4 4 0 0 1 1.5-.3c.6 0 1.2.1 1.7.4.5.2 1 .4 1.3.7l-.8 1a6 6 0 0 0-1-.5 3 3 0 0 0-1.2-.3c-.6 0-1 .2-1.4.4-.3.3-.4.6-.4 1 0 .2 0 .4.2.6l.5.5a6 6 0 0 0 1.5.6 18.5 18.5 0 0 1 2 1c.2.2.5.5.6.8.2.3.3.7.3 1.1a2.8 2.8 0 0 1-2 2.7c-.4.2-1 .2-1.5.2zm8.5 0c-.5 0-1 0-1.3-.2-.4-.2-.7-.4-.9-.7a3 3 0 0 1-.5-1l-.1-1.3v-5.4h-1.4v-1.2l1.5-.1.2-2.7h1.4v2.7h2.6v1.3h-2.6v5.4c0 .6 0 1 .3 1.4.2.3.6.5 1.2.5h.5l.6-.3.3 1.3a6.2 6.2 0 0 1-1.8.3zm3.7-.2v-9.7h1.3l.2 1.7 1.2-1.4c.5-.4 1-.6 1.6-.6l1 .2-.3 1.5-.4-.1h-.5c-.4 0-.9 0-1.3.4-.5.3-.8 1-1.2 1.8v6.2h-1.6zm7 0v-9.7h1.5v9.7h-1.6zm.7-11.7c-.3 0-.6-.1-.8-.3a1 1 0 0 1-.3-.8c0-.3.1-.6.3-.7.3-.2.5-.3.9-.3.3 0 .6 0 .8.3.2.2.3.4.3.7 0 .3-.1.6-.3.8-.2.2-.5.3-.8.3zm8 12c-.6 0-1.2-.2-1.8-.4-.5-.2-1-.6-1.4-1-.5-.4-.8-1-1-1.6-.3-.6-.4-1.3-.4-2.1s.1-1.5.4-2.2c.2-.6.6-1.2 1-1.6a4.1 4.1 0 0 1 3-1.4 4 4 0 0 1 1.6.4c.5.2 1 .5 1.2.9.4.4.6.9.8 1.4.2.6.3 1.2.3 1.9v.5l-.1.4H777c0 1 .4 2 1 2.5a3 3 0 0 0 2.3 1l1.3-.3a6 6 0 0 0 1-.5l.7 1-1.4.7a5 5 0 0 1-1.8.3zm-3-6h5.2c0-1-.2-1.7-.6-2.2-.4-.5-1-.8-1.8-.8l-1 .2-.8.6a3 3 0 0 0-.7 1l-.3 1.3zm-540.5 35a4.5 4.5 0 0 1-3.3-1.4 5 5 0 0 1-1-1.6c-.2-.6-.3-1.3-.3-2.1s.1-1.6.4-2.2a5 5 0 0 1 1-1.6 4.4 4.4 0 0 1 3.3-1.4c.6 0 1.2.1 1.6.4.5.2.9.5 1.2.8l-.8 1-1-.6-1-.2a2.8 2.8 0 0 0-2.1 1l-.7 1.2-.2 1.6a4.6 4.6 0 0 0 .8 2.7l1 .7a2.9 2.9 0 0 0 2.4 0c.4-.2.8-.4 1-.7l.8 1.1a4.8 4.8 0 0 1-3.1 1.2zm8.8 0c-.7 0-1.3-.2-1.9-.4-.6-.2-1-.6-1.5-1a5 5 0 0 1-1-1.6c-.2-.6-.3-1.3-.3-2.1s.1-1.5.3-2.2c.3-.6.6-1.2 1-1.6a4.4 4.4 0 0 1 3-1.4c.7 0 1.2.1 1.7.4.5.2.9.5 1.2.9.4.4.6.9.8 1.4l.2 1.9v.9h-6.6a4 4 0 0 0 1 2.5 3 3 0 0 0 2.2 1c.5 0 1-.2 1.3-.3a6 6 0 0 0 1.1-.5l.6 1-1.4.7a5 5 0 0 1-1.8.3zm-3.1-6h5.2c0-1-.2-1.7-.6-2.2-.4-.5-1-.8-1.8-.8l-1 .2-.8.6-.7 1-.3 1.3zm19.2 9.8v-5.2a6 6 0 0 1-1.3 1l-1.5.3c-1.3 0-2.2-.4-3-1.3a6 6 0 0 1-1-3.7c0-.8 0-1.5.3-2.2.2-.6.5-1.1 1-1.6.3-.4.8-.8 1.3-1 .5-.2 1-.4 1.6-.4s1 .1 1.5.3l1.3.9.2-1h1.3v13.9h-1.7zm-2.5-5.2c.5 0 .9-.1 1.3-.4a5 5 0 0 0 1.2-1v-5c-.4-.4-.8-.7-1.2-.8a3 3 0 0 0-1.2-.3c-.4 0-.7.1-1 .3-.4.2-.7.4-1 .8l-.5 1.1-.3 1.5c0 1.2.3 2.1.7 2.8.5.6 1.2 1 2 1zm10.3 1.3c-1 0-1.8-.3-2.3-1-.5-.6-.7-1.5-.7-2.8v-6.1h1.6v6c0 .8.2 1.5.5 2 .2.3.7.5 1.4.5.5 0 .9-.1 1.3-.4a7 7 0 0 0 1.3-1.2v-7h1.6v9.8h-1.4l-.1-1.5c-.5.5-1 1-1.5 1.3-.5.3-1.1.4-1.8.4zm8-.2v-9.7h1.6v9.7h-1.6zm.8-11.7c-.3 0-.6-.1-.8-.3a1 1 0 0 1-.3-.8c0-.3.1-.6.3-.7.2-.2.5-.3.8-.3.4 0 .6 0 .8.3.3.2.4.4.4.7 0 .3-.1.6-.4.8-.2.2-.4.3-.8.3zm8.1 15.8v-13.8h1.4l.1 1.1 1.5-1c.5-.2 1-.4 1.7-.4.6 0 1.2.2 1.6.4.5.2 1 .6 1.2 1 .4.4.6 1 .8 1.6a7.5 7.5 0 0 1-.1 4.2l-1 1.7c-.3.4-.8.8-1.3 1-.5.2-1 .3-1.6.3-.4 0-.9 0-1.3-.3-.5-.2-1-.4-1.4-.8v5h-1.6zm4-5.2c.4 0 .8-.1 1.1-.3.4-.2.7-.4 1-.8l.5-1.2.2-1.6-.1-1.5-.5-1a2 2 0 0 0-.8-.8c-.3-.2-.7-.3-1.1-.3-.5 0-.9.1-1.3.4-.4.2-.9.5-1.3 1v5c.4.4.8.7 1.2.8l1.1.3zm9 1.3c-.7 0-1.4-.2-2-.7s-.8-1.1-.8-2c0-1 .5-1.9 1.5-2.5.9-.5 2.4-1 4.5-1.2l-.1-.9c0-.3-.2-.5-.3-.7l-.6-.6a2 2 0 0 0-1-.2c-.6 0-1.1.1-1.6.3l-1.3.7-.6-1.1 1.6-.8c.7-.3 1.4-.5 2.2-.5 1.2 0 2 .4 2.6 1.1.5.8.8 1.7.8 3v5.9h-1.4l-.1-1.2h-.1c-.5.4-1 .8-1.5 1-.5.3-1.1.4-1.7.4zm.6-1.3c.4 0 .9 0 1.3-.3l1.3-1V308l-2 .4c-.6.1-1 .3-1.4.5a2 2 0 0 0-.7.7c-.2.3-.3.5-.3.9 0 .5.2 1 .5 1.2.4.2.8.3 1.3.3zm7.3 1.1v-9.7h1.4l.1 1.7c.4-.6.8-1 1.3-1.4a2.6 2.6 0 0 1 2.6-.4l-.3 1.5-.5-.1h-.5c-.4 0-.8 0-1.3.4a4 4 0 0 0-1.1 1.8v6.2H307zm14.8.2a4.4 4.4 0 0 1-3.3-1.3 5 5 0 0 1-1-1.6 6.6 6.6 0 0 1 .1-4.3 5 5 0 0 1 1-1.6 4.4 4.4 0 0 1 3.3-1.4c.7 0 1.2.1 1.7.4l1.2.8-.9 1-.9-.6-1-.2-1.2.3c-.4.1-.7.4-1 .7a4 4 0 0 0-.6 1.2 4.6 4.6 0 0 0 .6 4.2c.2.4.5.6 1 .8a3 3 0 0 0 2.4 0l1-.7.8 1.1a4.6 4.6 0 0 1-3.1 1.2zm8.6 0a4.2 4.2 0 0 1-3.1-1.3c-.4-.4-.8-1-1-1.6-.3-.6-.4-1.3-.4-2.1s.1-1.6.4-2.2c.2-.6.6-1.2 1-1.6.4-.5.9-.8 1.4-1a4.4 4.4 0 0 1 5.8 2.6c.3.6.4 1.3.4 2.2 0 .8-.1 1.5-.4 2.1-.2.6-.5 1.2-1 1.6-.3.4-.8.8-1.4 1-.5.2-1 .3-1.7.3zm0-1.3l1.2-.3.8-.7.6-1.2c.2-.5.2-1 .2-1.5l-.2-1.6-.6-1.2c-.2-.3-.5-.6-.8-.7l-1.2-.3c-.4 0-.8.1-1.1.3-.4.1-.7.4-1 .7a4 4 0 0 0-.5 1.2l-.2 1.6c0 .6 0 1 .2 1.5l.6 1.2c.2.3.5.5.9.7.3.2.7.3 1.1.3zm7 1.1v-9.7h1.4l.2 1.4a8 8 0 0 1 1.5-1.2c.5-.3 1.1-.5 1.8-.5 1 0 1.8.4 2.2 1 .5.6.8 1.6.8 2.8v6.2h-1.7v-6c0-.9-.1-1.5-.4-2-.3-.3-.8-.5-1.4-.5-.5 0-1 0-1.4.3l-1.3 1.2v7h-1.6zm13.6.2c-.7 0-1.4 0-2-.3a6 6 0 0 1-1.7-1l.9-1.1 1.3.8c.4.2 1 .4 1.5.4.7 0 1.1-.2 1.5-.5.3-.3.4-.6.4-1 0-.3 0-.5-.2-.7 0-.2-.3-.4-.5-.5a3 3 0 0 0-.7-.4l-.8-.3-1-.4a5 5 0 0 1-1-.6 3 3 0 0 1-.6-.7c-.2-.3-.3-.7-.3-1.1a2.5 2.5 0 0 1 .9-2l1-.5a4 4 0 0 1 1.5-.3c.6 0 1.1.1 1.6.4l1.4.7-.8 1-1-.5-1.2-.3c-.6 0-1 .2-1.4.4-.3.3-.4.6-.4 1 0 .2 0 .4.2.6l.5.5a6.2 6.2 0 0 0 1.5.6l1 .4c.4.2.7.3 1 .6.2.2.5.5.6.8.2.3.3.7.3 1.1a2.7 2.7 0 0 1-.9 2l-1.1.7c-.5.2-1 .2-1.5.2zm9.7 0c-.6 0-1.2 0-1.8-.3-.6-.2-1-.6-1.5-1a5 5 0 0 1-1-1.6c-.2-.6-.3-1.3-.3-2.1s.1-1.5.3-2.2c.3-.6.6-1.2 1-1.6a4.1 4.1 0 0 1 3-1.4 4 4 0 0 1 1.7.4c.5.2.9.5 1.2.9l.8 1.4.2 1.9v.9h-6.6a4 4 0 0 0 1 2.5 3 3 0 0 0 2.2 1c.5 0 1-.2 1.3-.3a6 6 0 0 0 1.2-.5l.5 1-1.4.7c-.5.2-1 .3-1.8.3zm-3-5.8h5.2c0-1-.2-1.8-.7-2.3-.4-.5-1-.8-1.7-.8l-1 .2-.9.6-.6 1c-.2.3-.3.8-.3 1.3zm2.5-5.9l-.9-.8 2.9-3.3 1.1 1-3.1 3.1zm12.7 15.6v-5.2c-.3.4-.8.7-1.3 1-.5.2-1 .3-1.6.3-1.2 0-2.2-.4-2.9-1.3-.7-.9-1-2.1-1-3.7 0-.8 0-1.5.3-2.2a4.2 4.2 0 0 1 2.3-2.6c.4-.2 1-.4 1.5-.4s1 .1 1.5.3c.5.2.9.5 1.3.9l.2-1h1.3v13.9H373zm-2.5-5.2c.5 0 .9-.1 1.3-.4a5 5 0 0 0 1.2-1v-5c-.4-.4-.8-.7-1.2-.8l-1.2-.3c-.4 0-.7.1-1 .3-.4.2-.7.4-1 .8l-.6 1.1-.2 1.5c0 1.2.3 2.1.7 2.8.5.6 1.2 1 2 1zm10.3 1.3c-1.1 0-1.8-.3-2.3-1-.5-.6-.7-1.5-.7-2.8v-6.1h1.6v6c0 .8.2 1.5.5 2 .3.3.7.5 1.4.5.5 0 .9-.1 1.3-.4.4-.2.8-.7 1.3-1.2v-7h1.6v9.8h-1.3l-.2-1.5c-.5.5-1 1-1.5 1.3-.5.3-1 .4-1.7.4zm12 0c-.7 0-1.3 0-2-.3-.5-.2-1-.6-1.4-1a5 5 0 0 1-1-1.6c-.2-.6-.3-1.3-.3-2.1s0-1.5.3-2.2c.3-.6.6-1.2 1-1.6l1.4-1c.5-.2 1-.4 1.6-.4.7 0 1.2.1 1.7.4.5.2.9.5 1.2.9.4.4.6.9.8 1.4l.2 1.9v.9h-6.6a4 4 0 0 0 1 2.5 3 3 0 0 0 2.2 1 4.1 4.1 0 0 0 2.5-.8l.5 1-1.4.7c-.5.2-1 .3-1.8.3zm-3.1-5.8h5.2c0-1-.2-1.8-.7-2.3-.4-.5-1-.8-1.7-.8l-1 .2-.9.6a3.5 3.5 0 0 0-1 2.3zm9 5.6v-9.7h1.4l.1 1.4 1.5-1.2c.6-.3 1.2-.5 1.8-.5 1 0 1.8.4 2.3 1 .5.6.7 1.6.7 2.8v6.2h-1.6v-6c0-.9-.2-1.5-.5-2-.3-.3-.7-.5-1.4-.5-.5 0-1 0-1.3.3a8 8 0 0 0-1.3 1.2v7h-1.7zm14.8.2a4.4 4.4 0 0 1-3.3-1.3 5 5 0 0 1-1-1.6c-.1-.6-.3-1.3-.3-2.1s.2-1.6.4-2.2a5 5 0 0 1 1-1.6 4.4 4.4 0 0 1 3.3-1.4c.7 0 1.2.1 1.7.4l1.2.8-.9 1-.9-.6-1-.2c-.5 0-.9.1-1.2.3-.4.1-.7.4-1 .7a4 4 0 0 0-.6 1.2 5 5 0 0 0 0 3c0 .5.3 1 .6 1.3.2.3.5.5.9.7a3 3 0 0 0 2.5 0l1-.7.7 1.1-1.4 1-1.7.2zm8.8 0c-.7 0-1.3 0-1.9-.3-.5-.2-1-.6-1.4-1a5.6 5.6 0 0 1-1.4-3.7c0-.8.1-1.5.4-2.2a5 5 0 0 1 1-1.6c.4-.4.8-.8 1.3-1 .6-.2 1-.4 1.7-.4.6 0 1.1.1 1.6.4.5.2.9.5 1.2.9l.8 1.4.2 1.9v.9h-6.6a4 4 0 0 0 1 2.5 3 3 0 0 0 2.2 1c.5 0 1-.2 1.3-.3l1.1-.5.6 1-1.4.7c-.5.2-1.1.3-1.8.3zm-3-5.8h5.1c0-1-.2-1.8-.6-2.3-.4-.5-1-.8-1.8-.8l-1 .2-.8.6a3 3 0 0 0-.7 1c-.2.3-.3.8-.3 1.3zm15.2 5.8a3 3 0 0 1-2-.7c-.5-.5-.8-1.1-.8-2 0-1 .5-1.9 1.4-2.5 1-.5 2.5-1 4.5-1.2v-.9a2 2 0 0 0-.4-.7c-.1-.3-.3-.4-.6-.6l-1-.2-1.5.3-1.4.7-.6-1.1 1.6-.8c.7-.3 1.4-.5 2.2-.5 1.2 0 2 .4 2.6 1.1.5.8.8 1.7.8 3v5.9h-1.4l-.1-1.2c-.6.4-1 .8-1.6 1-.5.3-1 .4-1.7.4zm.5-1.3c.5 0 .9 0 1.3-.3l1.3-1V308l-2 .4c-.6.1-1 .3-1.4.5a2 2 0 0 0-.7.7l-.2.9c0 .5.2 1 .5 1.2.3.2.7.3 1.2.3zm10.2 1.3c-1 0-1.8-.3-2.3-1-.5-.6-.7-1.5-.7-2.8v-6.1h1.7v6c0 .8.1 1.5.4 2 .3.3.8.5 1.4.5.5 0 1-.1 1.3-.4.4-.2.8-.7 1.3-1.2v-7h1.7v9.8h-1.4l-.2-1.5c-.5.5-1 1-1.5 1.3-.5.3-1 .4-1.7.4zm11.3 4.3c-.6 0-1.1 0-1.6-.2l-1.3-.5-.8-.8a2 2 0 0 1 .1-2.3l1-1v-.1a2 2 0 0 1-.6-.6l-.2-1c0-.4 0-.8.3-1l.8-.8-1-1.1a3 3 0 0 1-.3-1.6c0-.5 0-1 .3-1.4.2-.5.4-.8.8-1.1.3-.3.7-.6 1.1-.7a4.2 4.2 0 0 1 2.8 0h3.4v1.2h-2l.6.9.2 1.1c0 .6-.1 1-.3 1.5l-.7 1a4 4 0 0 1-3.3.8l-.7-.2-.4.5c-.2.1-.2.4-.2.6 0 .3.1.6.3.8.3.2.7.3 1.4.3h1.9c1.1 0 2 .2 2.5.6.6.3.9 1 .9 1.7 0 .5-.1.9-.4 1.3-.2.4-.5.8-1 1-.4.4-.9.6-1.5.8-.6.2-1.3.3-2 .3zm0-8.7a2 2 0 0 0 1.5-.6l.4-.7.2-1c0-.7-.2-1.3-.6-1.7-.4-.4-1-.6-1.5-.6s-1 .2-1.4.6c-.4.4-.6 1-.6 1.7l.1 1a2 2 0 0 0 1.1 1.2l.8.1zm.3 7.5a4.1 4.1 0 0 0 2.2-.6l.6-.6.2-.7c0-.5-.1-.8-.5-1-.3-.2-.8-.2-1.4-.2h-2.3a2 2 0 0 1-.7-.2c-.3.2-.6.5-.7.8l-.3.8c0 .6.3 1 .8 1.3a4 4 0 0 0 2 .4zm6.5-3.3v-9.7h1.4l.1 1.4a7 7 0 0 1 1.4-1.2 3 3 0 0 1 1.7-.5c.7 0 1.3.2 1.7.5.5.4.8.8 1 1.4.5-.6 1-1 1.5-1.3a3 3 0 0 1 1.7-.6c1 0 1.7.4 2.2 1 .5.6.7 1.6.7 2.8v6.2h-1.6v-6c0-.9-.2-1.5-.5-2-.3-.3-.7-.5-1.3-.5-.8 0-1.6.5-2.5 1.5v7h-1.6v-6c0-.9-.2-1.5-.5-2-.3-.3-.7-.5-1.3-.5-.8 0-1.6.5-2.5 1.5v7h-1.6zm20.5.2c-.6 0-1.2 0-1.8-.3-.6-.2-1-.6-1.5-1-.4-.4-.7-1-1-1.6-.2-.6-.3-1.3-.3-2.1s0-1.5.3-2.2c.3-.6.6-1.2 1-1.6a4.4 4.4 0 0 1 3-1.4 4 4 0 0 1 1.7.4c.5.2.9.5 1.2.9l.8 1.4.2 1.9v.9h-6.6c0 1 .4 2 1 2.5a3 3 0 0 0 2.2 1 4.2 4.2 0 0 0 2.5-.8l.5 1-1.4.7a5 5 0 0 1-1.8.3zm-3-5.8h5.2c0-1-.2-1.8-.7-2.3-.4-.5-1-.8-1.7-.8l-1 .2-.9.6a3 3 0 0 0-.6 1c-.2.3-.3.8-.3 1.3zm9 5.6v-9.7h1.4l.1 1.4c.6-.5 1-.9 1.6-1.2.5-.3 1-.5 1.8-.5 1 0 1.7.4 2.2 1 .5.6.7 1.6.7 2.8v6.2H496v-6c0-.9-.2-1.5-.5-2-.3-.3-.7-.5-1.4-.5-.5 0-1 0-1.3.3l-1.3 1.2v7h-1.7zm14 .2c-.5 0-1 0-1.3-.2a2.2 2.2 0 0 1-1.3-1.7l-.1-1.3v-5.4h-1.5v-1.2l1.5-.1.2-2.7h1.4v2.7h2.6v1.3h-2.6v5.4c0 .6.1 1 .3 1.4.3.3.7.5 1.2.5h.6l.5-.3.3 1.3a6 6 0 0 1-1.8.3zm7.4 0c-.7 0-1.3 0-1.8-.3-.6-.2-1.1-.6-1.5-1-.4-.4-.8-1-1-1.6-.3-.6-.4-1.3-.4-2.1s.2-1.5.4-2.2c.3-.6.6-1.2 1-1.6a4 4 0 0 1 1.4-1c.5-.2 1-.4 1.6-.4.6 0 1.2.1 1.6.4.5.2 1 .5 1.3.9.3.4.6.9.7 1.4.2.6.3 1.2.3 1.9v.9H508a4 4 0 0 0 1 2.5 3 3 0 0 0 2.3 1 4.1 4.1 0 0 0 2.4-.8l.6 1-1.4.7a5 5 0 0 1-1.8.3zm-3-5.8h5.1c0-1-.2-1.8-.6-2.3a2 2 0 0 0-1.8-.8l-1 .2-.8.6a3.5 3.5 0 0 0-1 2.3zm16.3 5.8c-1.2 0-2.2-.4-3-1.3-.7-.9-1-2.1-1-3.7 0-.8 0-1.5.3-2.2l1-1.6a4 4 0 0 1 1.3-1 3.6 3.6 0 0 1 3 0c.5.1.9.4 1.3.8v-5.4h1.6V313h-1.4l-.1-1.1a7 7 0 0 1-1.4 1c-.5.2-1 .3-1.6.3zm.4-1.3c.4 0 .8-.1 1.2-.4a5 5 0 0 0 1.2-1v-5c-.4-.4-.8-.7-1.2-.8a3 3 0 0 0-1.1-.3c-.4 0-.8.1-1.1.3-.4.2-.7.4-1 .8a4.5 4.5 0 0 0-.8 2.7c0 1.1.3 2 .8 2.7.4.6 1 1 2 1zm7.4 1.1v-9.7h1.3l.2 1.7 1.2-1.4c.5-.4 1-.6 1.6-.6l1 .2-.3 1.5-.4-.1h-.5c-.4 0-.9 0-1.3.4-.5.3-.9 1-1.2 1.8v6.2h-1.6zm8.7.2c-.9 0-1.5-.2-2-.7s-.9-1.1-.9-2c0-1 .5-1.9 1.4-2.5 1-.5 2.5-1 4.6-1.2l-.1-.9c0-.3-.2-.5-.3-.7l-.6-.6a2 2 0 0 0-1-.2c-.6 0-1.1.1-1.6.3l-1.3.7-.7-1.1c.5-.3 1-.6 1.7-.8.6-.3 1.4-.5 2.1-.5 1.2 0 2 .4 2.6 1.1.6.8.8 1.7.8 3v5.9h-1.3l-.2-1.2c-.5.4-1 .8-1.5 1-.6.3-1.1.4-1.8.4zm.4-1.3c.5 0 1 0 1.4-.3l1.3-1V308l-2 .4c-.6.1-1 .3-1.4.5a2 2 0 0 0-.8.7l-.2.9c0 .5.2 1 .5 1.2.4.2.8.3 1.3.3zm10 1.3c-.8 0-1.4 0-2-.3l-1.7-1 .8-1.1 1.3.8c.5.2 1 .4 1.6.4.6 0 1.1-.2 1.4-.5.4-.3.5-.6.5-1 0-.3 0-.5-.2-.7l-.5-.5a3 3 0 0 0-.7-.4l-.8-.3-1-.4-1-.6-.6-.7c-.2-.3-.3-.7-.3-1.1l.2-1 .7-1a3 3 0 0 1 1-.5l1.4-.3c.7 0 1.2.1 1.7.4l1.4.7-.8 1a6 6 0 0 0-1-.5l-1.2-.3c-.6 0-1.1.2-1.4.4-.3.3-.4.6-.4 1 0 .2 0 .4.2.6 0 .2.2.3.4.5a6.2 6.2 0 0 0 1.5.6l1 .4c.4.2.7.3 1 .6l.7.8c.2.3.3.7.3 1.1a2.7 2.7 0 0 1-1 2 3 3 0 0 1-1 .7c-.5.2-1 .2-1.6.2zm8.4 0c-.5 0-1 0-1.3-.2l-.8-.7a3 3 0 0 1-.5-1l-.1-1.3v-5.4h-1.5v-1.2l1.5-.1.2-2.7h1.4v2.7h2.7v1.3h-2.7v5.4c0 .6.1 1 .4 1.4.2.3.6.5 1.1.5h.6l.6-.3.3 1.3a6.2 6.2 0 0 1-1.8.3zm3.7-.2v-9.7h1.7v9.7h-1.7zm.9-11.7c-.3 0-.6-.1-.8-.3a1 1 0 0 1-.4-.8c0-.3.1-.6.4-.7.2-.2.5-.3.8-.3.3 0 .6 0 .8.3.2.2.3.4.3.7 0 .3 0 .6-.3.8-.2.2-.5.3-.8.3zm10.2 15.8v-3.5l.1-1.7-1.3 1c-.5.2-1 .3-1.6.3-1.2 0-2.2-.4-3-1.3-.7-.9-1-2.1-1-3.7 0-.8 0-1.5.3-2.2.2-.6.6-1.1 1-1.6.3-.4.8-.8 1.3-1 .5-.2 1-.4 1.6-.4s1 .1 1.5.3l1.3.9.1-1h1.4v13.9h-1.7zm-2.5-5.2c.5 0 1-.1 1.3-.4a5 5 0 0 0 1.2-1v-5c-.4-.4-.8-.7-1.2-.8-.3-.2-.7-.3-1.1-.3-.4 0-.8.1-1.1.3l-1 .8-.5 1.1-.2 1.5c0 1.2.2 2.1.7 2.8.4.6 1.1 1 2 1zm10.3 1.3c-1 0-1.8-.3-2.3-1-.5-.6-.7-1.5-.7-2.8v-6.1h1.6v6c0 .8.1 1.5.4 2 .3.3.8.5 1.4.5.5 0 1-.1 1.4-.4l1.2-1.2v-7h1.7v9.8h-1.4l-.1-1.5c-.5.5-1 1-1.5 1.3-.5.3-1.1.4-1.8.4zm12 0a4.7 4.7 0 0 1-3.4-1.3 5 5 0 0 1-1-1.6c-.2-.6-.3-1.3-.3-2.1s.1-1.5.4-2.2c.2-.6.5-1.2 1-1.6a4.1 4.1 0 0 1 4.6-1c.5.2.9.5 1.2.9.4.4.6.9.8 1.4.2.6.2 1.2.2 1.9v.9h-6.6a4 4 0 0 0 1 2.5 3 3 0 0 0 2.3 1l1.2-.3a6 6 0 0 0 1.2-.5l.6 1-1.4.7a5 5 0 0 1-1.8.3zm-3.1-5.8h5.2c0-1-.2-1.8-.6-2.3-.5-.5-1-.8-1.8-.8a2.5 2.5 0 0 0-1.9.8 3.3 3.3 0 0 0-1 2.3zm9 5.6v-9.7h1.4l.1 1.4h.1c.4-.5.9-.9 1.4-1.2a3 3 0 0 1 1.6-.5c.8 0 1.3.2 1.8.5.4.4.7.8.9 1.4.5-.6 1-1 1.5-1.3a3 3 0 0 1 1.7-.6c1 0 1.7.4 2.2 1 .5.6.8 1.6.8 2.8v6.2H612v-6c0-.9-.1-1.5-.4-2-.3-.3-.8-.5-1.4-.5-.7 0-1.5.5-2.4 1.5v7h-1.7v-6c0-.9-.1-1.5-.4-2-.3-.3-.8-.5-1.4-.5-.7 0-1.5.5-2.4 1.5v7h-1.7zm20.6.2c-.7 0-1.3 0-1.9-.3-.5-.2-1-.6-1.5-1a5 5 0 0 1-1-1.6c-.2-.6-.3-1.3-.3-2.1s.1-1.5.4-2.2c.2-.6.5-1.2 1-1.6a4.1 4.1 0 0 1 3-1.4 4 4 0 0 1 1.6.4c.5.2.9.5 1.2.9.4.4.6.9.8 1.4.2.6.2 1.2.2 1.9v.9h-6.6c0 1 .4 2 1 2.5a3 3 0 0 0 2.3 1l1.2-.3a6 6 0 0 0 1.2-.5l.6 1-1.5.7a5 5 0 0 1-1.7.3zm-3.1-5.8h5.2c0-1-.2-1.8-.6-2.3-.4-.5-1-.8-1.8-.8l-1 .2-.8.6-.7 1-.3 1.3zm9 5.6v-9.7h1.4l.1 1.4h.1l1.5-1.2c.5-.3 1-.5 1.8-.5 1 0 1.7.4 2.2 1 .5.6.7 1.6.7 2.8v6.2H633v-6c0-.9-.2-1.5-.5-2-.3-.3-.7-.5-1.4-.5-.5 0-1 0-1.3.3a8 8 0 0 0-1.3 1.2v7h-1.7zm14 .2c-.5 0-1 0-1.3-.2l-.8-.7c-.3-.2-.4-.6-.5-1l-.1-1.3v-5.4h-1.5v-1.2l1.5-.1.2-2.7h1.4v2.7h2.6v1.3h-2.6v5.4c0 .6.1 1 .3 1.4.3.3.7.5 1.2.5h.6l.5-.3.3 1.3a6.6 6.6 0 0 1-1.8.3zm9.5 0c-.6 0-1-.2-1.4-.5-.2-.4-.4-1-.4-1.7v-12.2h1.7v12.4l.1.5.3.2h.4l.2 1.2-.4.1a3 3 0 0 1-.5 0zm7.3 0c-.7 0-1.3 0-1.9-.3-.5-.2-1-.6-1.4-1-.5-.4-.8-1-1-1.6-.3-.6-.4-1.3-.4-2.1s.1-1.5.4-2.2c.2-.6.6-1.2 1-1.6a4.1 4.1 0 0 1 3-1.4 4 4 0 0 1 1.6.4c.5.2 1 .5 1.2.9.4.4.6.9.8 1.4.2.6.3 1.2.3 1.9v.5l-.1.4h-6.6c.1 1 .4 2 1 2.5a3 3 0 0 0 2.3 1l1.3-.3a6 6 0 0 0 1.1-.5l.6 1-1.4.7a5 5 0 0 1-1.8.3zm-3-5.8h5.1c0-1-.2-1.8-.6-2.3-.4-.5-1-.8-1.8-.8l-1 .2-.8.6a3 3 0 0 0-.7 1l-.3 1.3zm12.9 5.6v-9.7h1.4l.1 1.7c.4-.6.8-1 1.3-1.4.4-.4 1-.6 1.5-.6l1 .2-.3 1.5-.4-.1h-.5c-.4 0-.8 0-1.3.4a4 4 0 0 0-1.2 1.8v6.2h-1.6zm10.7.2c-.7 0-1.3 0-1.9-.3-.5-.2-1-.6-1.4-1a5 5 0 0 1-1-1.6c-.3-.6-.4-1.3-.4-2.1s.1-1.5.4-2.2c.2-.6.6-1.2 1-1.6a4.1 4.1 0 0 1 3-1.4c.6 0 1.1.1 1.6.4.5.2 1 .5 1.2.9.4.4.6.9.8 1.4.2.6.3 1.2.3 1.9v.5l-.1.4h-6.6a4 4 0 0 0 1 2.5 3 3 0 0 0 2.3 1c.5 0 .9-.1 1.3-.3a6 6 0 0 0 1.1-.5l.6 1-1.4.7c-.6.2-1.1.3-1.8.3zm-3-5.8h5.1c0-1-.2-1.8-.6-2.3-.4-.5-1-.8-1.8-.8l-1 .2-.8.6-.7 1-.3 1.3zm8 10a4 4 0 0 1-1.5-.3l.4-1.3a3.3 3.3 0 0 0 .9.2c.5 0 .8-.2 1-.5l.2-1.4v-10.8h1.6V314c0 1-.2 1.8-.6 2.4-.4.6-1 .8-2 .8zm1.8-16.1c-.3 0-.6-.1-.8-.3a1 1 0 0 1-.3-.8c0-.3 0-.5.3-.7.2-.2.5-.3.8-.3.3 0 .6 0 .8.3.2.2.3.4.3.7 0 .3 0 .6-.3.8a1 1 0 0 1-.8.3zm8 12c-.6 0-1.2-.2-1.8-.4-.5-.2-1-.6-1.5-1a5 5 0 0 1-1-1.6c-.2-.6-.3-1.3-.3-2.1s.1-1.5.4-2.2c.2-.6.5-1.2 1-1.6a4.1 4.1 0 0 1 4.6-1c.5.2.9.5 1.2.9l.8 1.4.2 1.9v.9H690c0 1 .4 2 1 2.5a3 3 0 0 0 2.2 1c.5 0 1-.1 1.3-.3a6 6 0 0 0 1.2-.5l.6 1-1.5.7a5 5 0 0 1-1.8.3zm-3-6h5.2c0-1-.2-1.7-.7-2.2-.4-.5-1-.8-1.7-.8a2.5 2.5 0 0 0-1.9.8 3.3 3.3 0 0 0-1 2.3zm11.9 6c-.5 0-1-.1-1.3-.3l-1-.7-.4-1-.1-1.3v-5.4h-1.4v-1.2l1.5-.1.2-2.7h1.4v2.7h2.6v1.3h-2.6v5.4c0 .6 0 1 .3 1.4.2.3.6.5 1.1.5h.6l.6-.3.3 1.3a7 7 0 0 1-1.8.3zm11 0c-1.2 0-2.2-.5-3-1.4-.7-.9-1-2.1-1-3.7 0-.8 0-1.5.3-2.2.2-.6.6-1.1 1-1.6.3-.4.8-.8 1.3-1a3.7 3.7 0 0 1 3 0c.5.1.9.4 1.3.8v-5.4h1.6V313H716l-.1-1.1-1.4 1c-.5.2-1 .3-1.6.3zm.4-1.4c.4 0 .8-.1 1.2-.4a5 5 0 0 0 1.2-1v-5c-.4-.4-.8-.7-1.2-.8-.3-.2-.7-.3-1.1-.3-.4 0-.8.1-1.1.3-.4.2-.7.4-1 .8l-.5 1.1c-.2.5-.2 1-.2 1.5 0 1.2.2 2.1.7 2.8.4.6 1 1 2 1zm11.3 1.3a4.7 4.7 0 0 1-3.3-1.3 5 5 0 0 1-1-1.6c-.2-.6-.3-1.3-.3-2.1s0-1.5.3-2.2c.3-.6.6-1.2 1-1.6a4.4 4.4 0 0 1 3-1.4 4 4 0 0 1 1.7.4c.5.2.9.5 1.2.9.3.4.6.9.7 1.4.2.6.3 1.2.3 1.9v.9h-6.6c0 1 .4 2 1 2.5a3 3 0 0 0 2.2 1 4.2 4.2 0 0 0 2.5-.8l.5 1-1.4.7c-.5.2-1 .3-1.8.3zm-3-5.8h5.2c0-1-.3-1.8-.7-2.3-.4-.5-1-.8-1.7-.8l-1 .2-.9.6a3 3 0 0 0-.6 1 4 4 0 0 0-.4 1.3zm16.3 10a7 7 0 0 1-1.7-.1l-1.3-.5-.8-.8c-.2-.3-.3-.7-.3-1.1 0-.4.2-.8.4-1.2l1-1v-.1l-.6-.6-.2-1c0-.4.1-.8.3-1l.8-.8-1-1.1c-.2-.5-.3-1-.3-1.6 0-.5 0-1 .3-1.4.2-.5.4-.8.8-1.1a3.8 3.8 0 0 1 3.3-.9l.6.2h3.4v1.2h-2l.6.9.2 1.1c0 .6-.1 1-.3 1.5l-.7 1c-.3.3-.7.5-1.2.7a3.8 3.8 0 0 1-2.1.1 4 4 0 0 1-.7-.2l-.5.5a1 1 0 0 0-.2.6c0 .3.2.6.4.8.2.2.7.3 1.4.3h1.8c1.2 0 2 .2 2.6.6.6.3.9 1 .9 1.7 0 .5-.1.9-.4 1.3-.2.4-.5.8-1 1a6.5 6.5 0 0 1-3.6 1zm0-8.6l.7-.1.7-.5.5-.7.1-1c0-.7-.2-1.3-.6-1.7-.4-.4-.9-.6-1.4-.6s-1.1.2-1.5.6c-.4.4-.6 1-.6 1.7l.1 1a2 2 0 0 0 2 1.3zm.2 7.5a4.1 4.1 0 0 0 2.2-.6l.7-.6c.2-.2.2-.5.2-.7 0-.5-.2-.8-.5-1-.4-.2-.8-.2-1.5-.2H737l-.6-.2-.8.8-.2.8c0 .6.3 1 .8 1.3a4 4 0 0 0 2 .4zm8.5-3c-.8 0-1.5-.3-2-.8s-.8-1.1-.8-2c0-1 .4-1.9 1.4-2.5 1-.5 2.4-1 4.5-1.2v-.9a2 2 0 0 0-.4-.7c-.1-.3-.3-.4-.6-.6l-1-.2-1.6.3-1.3.7-.6-1.1 1.6-.8c.7-.3 1.4-.5 2.2-.5 1.2 0 2 .4 2.6 1.1.5.8.8 1.7.8 3v5.9H750l-.1-1.2c-.5.4-1 .8-1.6 1-.5.3-1 .4-1.7.4zm.5-1.4c.5 0 .9 0 1.3-.3l1.3-1V308l-2 .4c-.6.1-1 .3-1.4.5a2 2 0 0 0-.7.7c-.2.3-.2.5-.2.9 0 .5.1 1 .5 1.2.3.2.7.3 1.2.3zm6.3 1.1v-.9l5.1-7.5H754v-1.3h6.6v.9l-5 7.5h5.2v1.3h-7.4zm15.8.2c-.8 0-1.5-.2-2-.7s-.9-1.1-.9-2c0-1 .5-1.9 1.5-2.5.9-.5 2.4-1 4.5-1.2l-.1-.9c0-.3-.2-.5-.3-.7-.1-.3-.4-.4-.6-.6a2 2 0 0 0-1-.2c-.6 0-1.1.1-1.6.3l-1.3.7-.6-1.1 1.6-.8c.7-.3 1.4-.5 2.2-.5 1.2 0 2 .4 2.6 1.1.5.8.8 1.7.8 3v5.9h-1.4l-.1-1.2h-.1c-.5.4-1 .8-1.5 1-.5.3-1.1.4-1.7.4zm.5-1.3c.4 0 .9 0 1.3-.3l1.3-1V308l-2 .4c-.6.1-1 .3-1.4.5a2 2 0 0 0-.7.7c-.2.3-.3.5-.3.9 0 .5.2 1 .5 1.2.4.2.8.3 1.3.3zm1.1-10.4l-3.1-3 1.1-1.1 2.9 3.3-.9.8zm-534.2 40.7c-.7 0-1.3 0-1.9-.3-.5-.2-1-.6-1.5-1a5 5 0 0 1-1-1.6c-.2-.6-.3-1.3-.3-2.1s.1-1.5.4-2.2c.2-.6.5-1.2 1-1.6a4.1 4.1 0 0 1 3-1.4 4 4 0 0 1 1.6.4c.5.2.9.5 1.2.9.4.4.6.9.8 1.4.2.6.2 1.2.2 1.9v.9h-6.6a4 4 0 0 0 1 2.5 3 3 0 0 0 2.3 1l1.2-.3a6 6 0 0 0 1.2-.5l.6 1-1.5.7c-.5.2-1 .3-1.7.3zm-3.1-5.8h5.2c0-1-.2-1.8-.6-2.3-.4-.5-1-.8-1.8-.8l-1 .2-.8.6-.7 1-.3 1.3zm15 5.6v-8.4h-4v8.4h-1.7v-8.4h-1.3v-1.2l1.3-.1V331c0-1 .3-1.8.8-2.4.5-.6 1.2-.9 2.2-.9a4.2 4.2 0 0 1 1.8.4l-.3 1.2-1.3-.2c-.5 0-.9.1-1.1.5-.3.3-.4.8-.4 1.4v1.3h4v-1.6c0-1 .3-1.8.7-2.3.5-.6 1.2-.9 2.2-.9l.8.1.8.2-.4 1.3c-.3-.2-.7-.2-1-.2-1 0-1.4.6-1.4 1.8v1.6h2v1.3h-2v8.4h-1.7zm9.3.2c-.6 0-1.2 0-1.8-.3-.6-.2-1-.6-1.5-1a5 5 0 0 1-1-1.6c-.2-.6-.3-1.3-.3-2.1s0-1.5.3-2.2c.3-.6.6-1.2 1-1.6a4.4 4.4 0 0 1 3-1.4 4 4 0 0 1 1.7.4c.5.2.9.5 1.2.9.3.4.6.9.7 1.4.2.6.3 1.2.3 1.9v.9h-6.6a4 4 0 0 0 1 2.5 3 3 0 0 0 2.2 1c.5 0 1-.2 1.3-.3a6 6 0 0 0 1.2-.5l.5 1-1.4.7c-.5.2-1 .3-1.8.3zm-3-5.8h5.2c0-1-.2-1.8-.7-2.3-.4-.5-1-.8-1.7-.8a2.5 2.5 0 0 0-1.9.8 3.4 3.4 0 0 0-1 2.3zm11.9 5.8c-.5 0-1 0-1.3-.2a2.3 2.3 0 0 1-1.4-1.7l-.1-1.3v-5.4h-1.5v-1.2l1.6-.1.2-2.7h1.3v2.7h2.7v1.3h-2.7v5.4c0 .6.1 1 .4 1.4.2.3.6.5 1.1.5h.6l.5-.3.4 1.3a6.6 6.6 0 0 1-1.8.3zm6 0c-.7 0-1.3 0-2-.3l-1.6-1 .8-1.1 1.3.8c.5.2 1 .4 1.6.4.6 0 1-.2 1.4-.5.3-.3.5-.6.5-1 0-.3 0-.5-.2-.7l-.5-.5-.7-.4c-.3 0-.6-.2-.8-.3l-1-.4a5 5 0 0 1-1-.6 3 3 0 0 1-.7-.7 2.5 2.5 0 0 1 .6-3 3 3 0 0 1 1.1-.6c.4-.2.9-.3 1.4-.3.6 0 1.2.1 1.7.4.5.2 1 .4 1.3.7l-.7 1-1-.5c-.4-.2-.8-.3-1.3-.3-.6 0-1 .2-1.3.4-.3.3-.4.6-.4 1l.1.6.5.5.7.3a69.3 69.3 0 0 0 1.9.7c.3.2.7.3 1 .6l.6.8c.2.3.3.7.3 1.1a2.7 2.7 0 0 1-1 2c-.2.4-.6.6-1 .7-.5.2-1 .2-1.6.2zm13.2 0c-1.2 0-2.2-.4-3-1.3-.7-.9-1-2.1-1-3.7 0-.8 0-1.5.3-2.2a5 5 0 0 1 1-1.6c.3-.4.8-.8 1.3-1a3.7 3.7 0 0 1 3 0c.5.1.9.4 1.3.8l-.1-1.7v-3.7h1.7V342H289l-.1-1.1-1.4 1c-.5.2-1 .3-1.6.3zm.3-1.3c.5 0 1-.1 1.3-.4a5 5 0 0 0 1.2-1v-5c-.4-.4-.8-.7-1.2-.8-.3-.2-.7-.3-1.1-.3-.4 0-.8.1-1.1.3-.4.2-.7.4-1 .8l-.5 1.1c-.2.5-.2 1-.2 1.5 0 1.2.2 2.1.7 2.8.4.6 1.1 1 2 1zm11.4 1.3c-.7 0-1.3 0-1.9-.3a4.5 4.5 0 0 1-2.4-2.6c-.3-.6-.4-1.3-.4-2.1s.2-1.5.4-2.2c.2-.6.6-1.2 1-1.6a4.1 4.1 0 0 1 4.6-1c.5.2.9.5 1.2.9.4.4.6.9.8 1.4.2.6.2 1.2.2 1.9v.9h-6.6c0 1 .4 2 1 2.5a3 3 0 0 0 2.2 1 4.1 4.1 0 0 0 2.5-.8l.6 1a7 7 0 0 1-1.4.7 5 5 0 0 1-1.8.3zm-3-5.8h5.1c0-1-.2-1.8-.6-2.3-.4-.5-1-.8-1.8-.8a2.6 2.6 0 0 0-1.8.8l-.7 1a4 4 0 0 0-.3 1.3zm15.5 5.8c-.7 0-1.3 0-2-.3a6 6 0 0 1-1.6-1l.8-1.1 1.3.8c.5.2 1 .4 1.6.4.6 0 1-.2 1.4-.5.3-.3.5-.6.5-1 0-.3 0-.5-.2-.7l-.5-.5a3 3 0 0 0-.7-.4c-.3 0-.5-.2-.8-.3l-1-.4a5 5 0 0 1-1-.6 3 3 0 0 1-.7-.7l-.2-1.1a2.5 2.5 0 0 1 .8-2l1.1-.5c.4-.2.9-.3 1.4-.3.6 0 1.2.1 1.7.4.5.2 1 .4 1.3.7l-.7 1-1-.5c-.4-.2-.8-.3-1.3-.3-.6 0-1 .2-1.3.4-.3.3-.4.6-.4 1l.1.6.5.5.7.3a69.3 69.3 0 0 0 1.9.7c.3.2.7.3 1 .6l.6.8c.2.3.3.7.3 1.1a2.7 2.7 0 0 1-1 2c-.2.4-.6.6-1 .7-.5.2-1 .2-1.6.2zm9.8 0c-.6 0-1.3 0-1.8-.3-.6-.2-1-.6-1.5-1a5 5 0 0 1-1-1.6 6 6 0 0 1 0-4.3 5 5 0 0 1 1-1.6 4.1 4.1 0 0 1 4.6-1c.5.2 1 .5 1.2.9.4.4.6.9.8 1.4.2.6.3 1.2.3 1.9v.5l-.1.4h-6.5a4 4 0 0 0 1 2.5c.5.6 1.3 1 2.2 1 .5 0 1-.2 1.3-.3a6 6 0 0 0 1.1-.5l.6 1-1.4.7c-.5.2-1.1.3-1.8.3zm-3-5.8h5.1c0-1-.2-1.8-.6-2.3-.4-.5-1-.8-1.8-.8l-1 .2-.8.6a3 3 0 0 0-.7 1l-.3 1.3zm9 5.6v-9.7h1.3l.2 1.7 1.2-1.4a2.5 2.5 0 0 1 2.6-.4l-.3 1.5-.4-.1h-.5c-.4 0-.9 0-1.3.4a4 4 0 0 0-1.2 1.8v6.2H326zm7 0v-9.7h1.3l.1 1.7c.4-.6.8-1 1.3-1.4.5-.4 1-.6 1.5-.6l1 .2-.2 1.5-.5-.1h-.5c-.4 0-.8 0-1.3.4-.4.3-.8 1-1.1 1.8v6.2h-1.7zm10.6.2c-.6 0-1.2 0-1.8-.3-.6-.2-1-.6-1.5-1-.4-.4-.8-1-1-1.6a6 6 0 0 1 0-4.3c.3-.6.6-1.2 1-1.6a4 4 0 0 1 1.4-1c.5-.2 1-.4 1.6-.4.6 0 1.2.1 1.7.4.5.2.9.5 1.2.9a5.6 5.6 0 0 1 1 3.3v.9h-6.6a4 4 0 0 0 1 2.5 3 3 0 0 0 2.2 1 4.1 4.1 0 0 0 2.4-.8l.6 1-1.4.7c-.5.2-1 .3-1.8.3zm-3-5.8h5.2c0-1-.2-1.8-.7-2.3-.4-.5-1-.8-1.7-.8l-1 .2-.9.6-.6 1c-.2.3-.3.8-.3 1.3zm8.7 9l-.4-1c.6-.2 1-.6 1.3-1 .4-.4.5-.9.5-1.4h-.2c-.3 0-.6 0-.8-.3-.3-.2-.4-.5-.4-.8s.1-.7.4-.9c.2-.2.5-.3.9-.3s.7.2 1 .5.3.9.3 1.5c0 .8-.2 1.6-.7 2.2-.4.7-1 1.2-1.9 1.5zm11.8-3.2c-.7 0-1.3 0-2-.3a6 6 0 0 1-1.6-1l.8-1.1 1.3.8c.5.2 1 .4 1.6.4.6 0 1.1-.2 1.4-.5.3-.3.5-.6.5-1 0-.3 0-.5-.2-.7l-.5-.5a3 3 0 0 0-.7-.4c-.3 0-.5-.2-.8-.3l-1-.4a5 5 0 0 1-1-.6 3 3 0 0 1-.7-.7l-.2-1.1a2.5 2.5 0 0 1 .9-2l1-.5a4 4 0 0 1 1.4-.3c.6 0 1.2.1 1.7.4.5.2 1 .4 1.3.7l-.7 1-1-.5c-.4-.2-.8-.3-1.3-.3-.6 0-1 .2-1.3.4-.3.3-.4.6-.4 1l.1.6.5.5a6.2 6.2 0 0 0 1.5.6l1 .4c.4.2.7.3 1 .6l.7.8c.2.3.3.7.3 1.1a2.7 2.7 0 0 1-1 2c-.2.4-.6.6-1 .7-.5.2-1 .2-1.6.2zm8.1 0c-.8 0-1.5-.2-2-.7s-.8-1.1-.8-2c0-1 .4-1.9 1.4-2.5 1-.5 2.4-1 4.5-1.2v-.9l-.4-.7c-.1-.3-.3-.4-.6-.6l-1-.2-1.6.3-1.3.7-.6-1.1 1.6-.8c.7-.3 1.4-.5 2.2-.5 1.2 0 2 .4 2.6 1.1.5.8.8 1.7.8 3v5.9h-1.4l-.1-1.2c-.5.4-1 .8-1.6 1-.5.3-1 .4-1.7.4zm.5-1.3c.5 0 .9 0 1.3-.3l1.3-1V337l-2 .4c-.6.1-1 .3-1.4.5a2 2 0 0 0-.7.7c-.2.3-.2.5-.2.9 0 .5.1 1 .5 1.2.3.2.7.3 1.2.3zm7.3 1.1v-9.7h1.4l.1 1.4h.1l1.5-1.2c.5-.3 1-.5 1.8-.5 1 0 1.7.4 2.2 1 .5.6.7 1.6.7 2.8v6.2h-1.6v-6c0-.9-.2-1.5-.5-2-.3-.3-.7-.5-1.4-.5-.5 0-1 0-1.3.3a8 8 0 0 0-1.3 1.2v7h-1.7zm13.5.2c-.7 0-1.3 0-2-.3l-1.6-1 .8-1.1 1.3.8c.5.2 1 .4 1.6.4.6 0 1-.2 1.4-.5.3-.3.5-.6.5-1 0-.3 0-.5-.2-.7l-.5-.5a3 3 0 0 0-.7-.4c-.3 0-.6-.2-.8-.3l-1-.4-1-.6-.7-.7-.2-1.1c0-.4 0-.8.2-1 .1-.4.4-.7.6-1l1-.5 1.5-.3c.6 0 1.2.1 1.7.4.5.2 1 .4 1.3.7l-.7 1-1-.5c-.4-.2-.8-.3-1.3-.3-.6 0-1 .2-1.3.4-.3.3-.4.6-.4 1l.1.6.5.5.7.3a69.3 69.3 0 0 0 1.9.7l1 .6c.2.2.5.5.6.8.2.3.3.7.3 1.1a2.7 2.7 0 0 1-1 2 3 3 0 0 1-1 .7c-.5.2-1 .2-1.6.2zm13.6 0a4.2 4.2 0 0 1-3-1.3c-.5-.4-.8-1-1-1.6-.3-.6-.4-1.3-.4-2.1s0-1.6.3-2.2a4.6 4.6 0 0 1 2.4-2.6 4.4 4.4 0 0 1 4.9 1c.4.4.7 1 1 1.6.2.6.3 1.3.3 2.2 0 .8 0 1.5-.3 2.1-.3.6-.6 1.2-1 1.6a4.4 4.4 0 0 1-3.2 1.3zm0-1.3l1.2-.3.9-.7.5-1.2c.2-.5.2-1 .2-1.5l-.2-1.6-.5-1.2c-.3-.3-.6-.6-1-.7-.3-.2-.6-.3-1-.3-.5 0-.9.1-1.2.3-.4.2-.7.4-.9.7l-.6 1.2-.2 1.6c0 .6 0 1 .2 1.5l.6 1.2c.2.3.5.5.9.7.3.2.7.3 1.1.3zm10 1.3c-1.1 0-1.9-.3-2.3-1-.5-.6-.7-1.5-.7-2.8v-6.1h1.6v6c0 .8.2 1.5.5 2 .3.3.7.5 1.4.5.5 0 .9-.1 1.3-.4.4-.2.8-.7 1.3-1.2v-7h1.6v9.8h-1.4l-.1-1.5c-.5.5-1 1-1.5 1.3-.5.3-1.1.4-1.8.4zm12.3 0c-.5 0-1 0-1.4-.3-.5-.2-1-.5-1.4-.9l-.2 1H422v-14.2h1.6v5.6l1.4-1a3.7 3.7 0 0 1 3.3 0c.5.2.9.6 1.2 1 .3.4.6 1 .7 1.6a6.9 6.9 0 0 1 0 4.2l-1 1.7c-.4.4-.8.8-1.3 1-.5.2-1 .3-1.6.3zm-.3-1.3c.4 0 .8-.1 1.1-.3l.9-.8.6-1.2.2-1.6c0-.5 0-1-.2-1.5 0-.4-.2-.8-.4-1a2 2 0 0 0-.8-.8c-.3-.2-.7-.3-1.2-.3-.8 0-1.6.5-2.6 1.3v5.1c.4.4.9.7 1.3.8l1.1.3zm8.8 1.3c-.7 0-1.1-.2-1.4-.5-.2-.4-.4-1-.4-1.7v-12.2h1.7v12.4l.1.5.3.2h.4l.2 1.2-.4.1a3 3 0 0 1-.5 0zm3.3-.2v-9.7h1.7v9.7H438zm.9-11.7c-.4 0-.6-.1-.9-.3a1 1 0 0 1-.3-.8c0-.3.1-.6.3-.7.3-.2.5-.3.9-.3.3 0 .5 0 .8.3.2.2.3.4.3.7 0 .3-.1.6-.3.8-.2.2-.5.3-.8.3zm8 12c-.7 0-1.3-.2-1.9-.4-.5-.2-1-.6-1.4-1a5 5 0 0 1-1-1.6c-.3-.6-.4-1.3-.4-2.1s.1-1.5.4-2.2a5 5 0 0 1 1-1.6 4.1 4.1 0 0 1 4.6-1c.5.2.9.5 1.2.9l.8 1.4.2 1.9v.9h-6.6a4 4 0 0 0 1 2.5c.6.6 1.4 1 2.3 1 .5 0 .9-.2 1.3-.3a6 6 0 0 0 1.1-.5l.6 1-1.4.7c-.6.2-1.1.3-1.8.3zm-3-6h5.1c0-1-.2-1.7-.6-2.2-.4-.5-1-.8-1.8-.8l-1 .2-.8.6a3 3 0 0 0-.7 1l-.3 1.3zm9 5.7v-9.7h1.3l.2 1.7 1.2-1.4a2.6 2.6 0 0 1 2.6-.4l-.3 1.5-.4-.1h-.5c-.4 0-.9 0-1.3.4a4 4 0 0 0-1.2 1.8v6.2H453zm14 .2c-.6 0-1 0-1.4-.2l-.8-.7-.5-1-.1-1.3v-5.4h-1.5v-1.2l1.6-.1.2-2.7h1.3v2.7h2.7v1.3h-2.7v5.4c0 .6.1 1 .4 1.4.2.3.6.5 1.2.5h.5l.6-.3.3 1.3a6.6 6.6 0 0 1-1.8.3zm7.2 0a4.2 4.2 0 0 1-3.2-1.3c-.4-.4-.7-1-1-1.6-.2-.6-.3-1.3-.3-2.1s0-1.6.3-2.2c.3-.6.6-1.2 1-1.6.5-.5 1-.8 1.5-1a4.4 4.4 0 0 1 5.8 2.6c.3.6.4 1.3.4 2.2 0 .8-.1 1.5-.4 2.1-.2.6-.6 1.2-1 1.6a4.2 4.2 0 0 1-3.1 1.3zm0-1.3c.4 0 .8-.1 1.1-.3l.9-.7.6-1.2.2-1.5-.2-1.6-.6-1.2c-.3-.3-.6-.6-1-.7-.2-.2-.6-.3-1-.3l-1.2.3c-.3.1-.6.4-.9.7l-.5 1.2c-.2.5-.2 1-.2 1.6l.2 1.5.5 1.2 1 .7c.3.2.7.3 1 .3zm9.9 1.3c-1 0-1.8-.3-2.3-1-.5-.6-.7-1.5-.7-2.8v-6.1h1.6v6c0 .8.2 1.5.5 2 .3.3.7.5 1.4.5.5 0 1-.1 1.3-.4.4-.2.8-.7 1.3-1.2v-7h1.6v9.8h-1.3l-.2-1.5c-.5.5-1 1-1.5 1.3-.5.3-1 .4-1.7.4zm11 0c-.5 0-.9 0-1.3-.2l-.8-.7-.5-1-.1-1.3v-5.4h-1.5v-1.2l1.6-.1.2-2.7h1.3v2.7h2.6v1.3H494v5.4c0 .6.1 1 .3 1.4.3.3.6.5 1.2.5h.6l.5-.3.3 1.3a6.2 6.2 0 0 1-1.8.3zm9.5 0c-.6 0-1-.2-1.3-.5-.3-.4-.4-1-.4-1.7v-12.2h1.6v12.4c0 .2 0 .4.2.5l.3.2h.4l.2 1.2-.4.1h-.6zm7.3 0c-.6 0-1.3 0-1.8-.3-.6-.2-1-.6-1.5-1-.4-.4-.8-1-1-1.6a6 6 0 0 1 0-4.3c.2-.6.6-1.2 1-1.6a4 4 0 0 1 1.4-1c.5-.2 1-.4 1.6-.4.6 0 1.2.1 1.6.4.5.2 1 .5 1.3.9.3.4.6.9.7 1.4.2.6.3 1.2.3 1.9v.5l-.1.4h-6.5a4 4 0 0 0 1 2.5c.5.6 1.3 1 2.2 1a4.2 4.2 0 0 0 2.4-.8l.6 1-1.4.7a5 5 0 0 1-1.8.3zm-3-5.8h5.1c0-1-.2-1.8-.6-2.3a2 2 0 0 0-1.7-.8l-1 .2-.9.6a4 4 0 0 0-.6 1c-.2.3-.3.8-.3 1.3zm11.5 5.8c-.7 0-1.3 0-2-.3l-1.6-1 .8-1.1 1.3.8c.5.2 1 .4 1.6.4.6 0 1-.2 1.4-.5.3-.3.5-.6.5-1 0-.3 0-.5-.2-.7l-.5-.5-.7-.4c-.3 0-.5-.2-.8-.3a15 15 0 0 1-1-.4l-1-.6-.6-.7c-.2-.3-.3-.7-.3-1.1 0-.4 0-.8.2-1a2.8 2.8 0 0 1 1.7-1.5c.4-.2 1-.3 1.4-.3.6 0 1.2.1 1.7.4l1.4.7-.8 1-1-.5-1.2-.3c-.6 0-1 .2-1.4.4-.3.3-.4.6-.4 1 0 .2 0 .4.2.6 0 .2.2.3.4.5l.7.3.9.3 1 .4c.4.2.7.3 1 .6.2.2.5.5.6.8.2.3.3.7.3 1.1a2.8 2.8 0 0 1-.9 2 3 3 0 0 1-1.1.7c-.5.2-1 .2-1.5.2zm9.9 3.9v-13.8h1.3l.2 1.1 1.5-1a3.7 3.7 0 0 1 3.3 0c.5.2.9.6 1.2 1a7.1 7.1 0 0 1 1 3.6c0 .8-.2 1.6-.4 2.2a4.2 4.2 0 0 1-2.3 2.7c-.4.2-1 .3-1.5.3s-1 0-1.4-.3c-.4-.2-.9-.4-1.3-.8v5h-1.6zm4-5.2c.4 0 .7-.1 1-.3.4-.2.7-.4 1-.8l.5-1.2c.2-.5.3-1 .3-1.6 0-.5 0-1-.2-1.5 0-.4-.2-.8-.4-1a2 2 0 0 0-.8-.8 2.5 2.5 0 0 0-2.4 0l-1.4 1v5.1c.5.4.9.7 1.3.8l1.1.3zm7 1.1v-9.7h1.4l.2 1.7c.3-.6.7-1 1.2-1.4a2.5 2.5 0 0 1 2.6-.4l-.3 1.5-.4-.1h-.5c-.4 0-.9 0-1.3.4-.5.3-.9 1-1.2 1.8v6.2h-1.6zm10.6.2a4.3 4.3 0 0 1-3.2-1.3 5.2 5.2 0 0 1-1.3-3.7c0-.8 0-1.6.3-2.2.3-.6.6-1.2 1-1.6a4 4 0 0 1 1.4-1 4.4 4.4 0 0 1 4.9 1 5.6 5.6 0 0 1 1.4 3.8 5.7 5.7 0 0 1-1.4 3.7c-.4.4-1 .8-1.5 1-.5.2-1 .3-1.7.3zm0-1.3c.4 0 .8-.1 1.1-.3.4-.2.7-.4.9-.7l.6-1.2.2-1.5-.2-1.6a4 4 0 0 0-.6-1.2c-.2-.3-.5-.6-.9-.7-.3-.2-.7-.3-1.1-.3l-1.2.3c-.3.1-.6.4-.9.7l-.5 1.2c-.2.5-.2 1-.2 1.6a4.7 4.7 0 0 0 .7 2.7l1 .7c.3.2.7.3 1 .3zm10.3 1.3c-1.2 0-2.2-.4-2.9-1.3a6 6 0 0 1-1-3.7 5.8 5.8 0 0 1 1.2-3.8 4 4 0 0 1 1.3-1 3.7 3.7 0 0 1 3.1 0c.4.1.8.4 1.3.8l-.1-1.7v-3.7h1.6V342h-1.3l-.2-1.1-1.3 1c-.5.2-1 .3-1.6.3zm.4-1.3c.5 0 .9-.1 1.3-.4a5 5 0 0 0 1.2-1v-5c-.4-.4-.8-.7-1.2-.8a3 3 0 0 0-1.2-.3c-.4 0-.7.1-1 .3-.4.2-.7.4-1 .8l-.5 1.1-.3 1.5c0 1.2.3 2.1.7 2.8.5.6 1.2 1 2 1zm10.3 1.3c-1 0-1.8-.3-2.3-1-.5-.6-.7-1.5-.7-2.8v-6.1h1.6v6c0 .8.2 1.5.5 2 .3.3.7.5 1.4.5.5 0 1-.1 1.3-.4.4-.2.8-.7 1.3-1.2v-7h1.6v9.8h-1.3l-.2-1.5c-.5.5-1 1-1.5 1.3-.5.3-1 .4-1.7.4zm8-.2v-9.7h1.6v9.7H581zm.8-11.7c-.3 0-.6-.1-.8-.3a1 1 0 0 1-.3-.8c0-.3.1-.6.3-.7.3-.2.5-.3.8-.3.4 0 .6 0 .8.3.3.2.4.4.4.7 0 .3-.1.6-.4.8-.2.2-.4.3-.8.3zm7.2 12c-.5 0-1-.1-1.3-.3-.4-.2-.7-.4-.9-.7a3 3 0 0 1-.5-1l-.1-1.3v-5.4h-1.4v-1.2l1.5-.1.2-2.7h1.4v2.7h2.6v1.3h-2.6v5.4c0 .6 0 1 .3 1.4.2.3.6.5 1.2.5h.5l.6-.3.3 1.3a6.2 6.2 0 0 1-1.8.3zm6 0c-.7 0-1.3-.2-2-.4l-1.6-1 .8-1.1 1.3.8c.5.2 1 .4 1.6.4.6 0 1.1-.2 1.4-.5.4-.3.5-.6.5-1 0-.3 0-.5-.2-.7l-.5-.5a3 3 0 0 0-.7-.4c-.3 0-.5-.2-.8-.3l-1-.4a5 5 0 0 1-1-.6 3 3 0 0 1-.6-.7 2 2 0 0 1-.3-1.1c0-.4.1-.8.3-1 .1-.4.3-.7.6-1l1-.5a4 4 0 0 1 1.5-.3c.6 0 1.1.1 1.6.4l1.4.7-.8 1-1-.5-1.2-.3c-.7 0-1.1.2-1.4.4-.3.3-.4.6-.4 1 0 .2 0 .4.2.6 0 .2.3.3.5.5l.6.3.8.3 1 .4c.4.2.8.3 1 .6a2.4 2.4 0 0 1 1 2 2.6 2.6 0 0 1-1 2l-1 .6c-.5.2-1 .2-1.6.2zm13.7 0c-.6 0-1.2-.2-1.8-.4-.5-.2-1-.6-1.4-1a5 5 0 0 1-1-1.6c-.2-.6-.3-1.3-.3-2.1s0-1.6.3-2.2a5 5 0 0 1 1-1.6c.5-.5 1-.8 1.5-1 .6-.3 1.2-.4 1.8-.4.7 0 1.2.1 1.7.4l1.2.8-.9 1-.9-.6-1-.2c-.4 0-.9.1-1.2.3-.4.1-.7.4-1 .7s-.5.8-.6 1.2a4.6 4.6 0 0 0 .6 4.2 2.7 2.7 0 0 0 2.1 1c.5 0 .9 0 1.3-.2a5 5 0 0 0 1-.7l.7 1.1a4.8 4.8 0 0 1-3.1 1.2zm5.3-.3v-14.2h1.6v5.8a9 9 0 0 1 1.4-1c.5-.4 1.1-.6 1.8-.6 1 0 1.8.4 2.3 1 .5.6.7 1.6.7 2.8v6.2H620v-6c0-.9-.1-1.5-.4-2-.3-.3-.8-.5-1.4-.5-.5 0-1 0-1.3.3a8 8 0 0 0-1.3 1.2v7h-1.7zm11 0v-9.7h1.5v9.7h-1.6zm.7-11.7c-.3 0-.6-.1-.8-.3a1 1 0 0 1-.3-.8c0-.3.1-.6.3-.7.2-.2.5-.3.8-.3.4 0 .6 0 .8.3.3.2.4.4.4.7 0 .3-.1.6-.4.8-.2.2-.4.3-.8.3zm4.1 11.7v-9.7h1.4l.1 1.4a7 7 0 0 1 1.5-1.2 3 3 0 0 1 1.6-.5c.8 0 1.3.2 1.7.5.5.4.8.8 1 1.4.5-.6 1-1 1.5-1.3.5-.4 1-.6 1.7-.6 1 0 1.7.4 2.2 1 .5.6.7 1.6.7 2.8v6.2h-1.6v-6c0-.9-.2-1.5-.5-2-.3-.3-.7-.5-1.3-.5-.8 0-1.6.5-2.5 1.5v7h-1.6v-6c0-.9-.1-1.5-.4-2-.3-.3-.8-.5-1.4-.5-.8 0-1.6.5-2.5 1.5v7h-1.6zm16.6 0v-9.7h1.6v9.7h-1.6zm.8-11.7c-.3 0-.6-.1-.8-.3a1 1 0 0 1-.3-.8c0-.3.1-.6.3-.7.3-.2.5-.3.9-.3.3 0 .6 0 .8.3.2.2.3.4.3.7 0 .3-.1.6-.3.8-.2.2-.5.3-.8.3zm10.3 15.8v-5.2c-.3.4-.8.7-1.3 1l-1.5.3c-1.3 0-2.2-.4-3-1.3a5.7 5.7 0 0 1-1-3.7c0-.8 0-1.5.3-2.2.2-.6.5-1.1.9-1.6a4 4 0 0 1 1.3-1c.5-.2 1-.4 1.6-.4s1 .1 1.5.3c.4.2.9.5 1.3.9l.2-1h1.4v13.9h-1.7zm-2.5-5.2c.4 0 .9-.1 1.3-.4a5 5 0 0 0 1.2-1v-5c-.4-.4-.8-.7-1.2-.8l-1.2-.3a2.5 2.5 0 0 0-2 1l-.6 1.2-.2 1.5c0 1.2.3 2.1.7 2.8.5.6 1.2 1 2 1zm10.2 1.3c-1 0-1.8-.3-2.2-1-.5-.6-.7-1.5-.7-2.8v-6.1h1.6v6c0 .8.2 1.5.4 2 .3.3.8.5 1.4.5.5 0 1-.1 1.4-.4.4-.2.8-.7 1.2-1.2v-7h1.7v9.8h-1.4l-.1-1.5c-.5.5-1 1-1.5 1.3-.5.3-1 .4-1.7.4zm12 0a4.7 4.7 0 0 1-3.3-1.3 5 5 0 0 1-1-1.6c-.2-.6-.3-1.3-.3-2.1s0-1.5.3-2.2c.3-.6.6-1.2 1-1.6a4.4 4.4 0 0 1 3-1.4 4 4 0 0 1 1.7.4c.5.2.9.5 1.2.9.3.4.6.9.7 1.4.2.6.3 1.2.3 1.9v.9H674c0 1 .4 2 1 2.5a3 3 0 0 0 2.2 1 4.2 4.2 0 0 0 2.5-.8l.5 1-1.4.7c-.5.2-1 .3-1.8.3zm-3-5.8h5.2c0-1-.3-1.8-.7-2.3-.4-.5-1-.8-1.7-.8l-1 .2-.9.6a3 3 0 0 0-.6 1 4 4 0 0 0-.4 1.3zm11.5 5.8c-.7 0-1.3 0-2-.3a6 6 0 0 1-1.6-1l.8-1.1 1.3.8c.5.2 1 .4 1.6.4.6 0 1.1-.2 1.4-.5.4-.3.5-.6.5-1 0-.3 0-.5-.2-.7l-.5-.5-.7-.4-.8-.3-1-.4a5 5 0 0 1-1-.6 3 3 0 0 1-.6-.7c-.2-.3-.3-.7-.3-1.1a2.5 2.5 0 0 1 1-2 3 3 0 0 1 1-.5 4 4 0 0 1 1.4-.3c.6 0 1.1.1 1.7.4.5.2 1 .4 1.3.7l-.8 1-1-.5-1.2-.3c-.6 0-1 .2-1.4.4-.2.3-.4.6-.4 1 0 .2 0 .4.2.6l.5.5.7.3a74 74 0 0 0 1.8.7c.4.2.7.3 1 .6l.7.8c.2.3.2.7.2 1.1a2.6 2.6 0 0 1-.9 2c-.3.4-.6.6-1.1.7-.4.2-1 .2-1.5.2zm16 3.9v-3.5l.1-1.7-1.3 1c-.5.2-1 .3-1.6.3-1.2 0-2.2-.4-3-1.3-.7-.9-1-2.1-1-3.7 0-.8 0-1.5.3-2.2.2-.6.5-1.1 1-1.6a3.8 3.8 0 0 1 4.4-1c.4.1.8.4 1.3.8l.2-1h1.3v13.9h-1.7zm-2.4-5.2c.4 0 .8-.1 1.2-.4a5 5 0 0 0 1.2-1v-5c-.4-.4-.8-.7-1.2-.8-.3-.2-.7-.3-1.1-.3-.4 0-.8.1-1.1.3-.4.2-.7.4-1 .8l-.5 1.1c-.2.5-.2 1-.2 1.5 0 1.2.2 2.1.7 2.8.4.6 1 1 2 1zm10.2 1.3c-1 0-1.8-.3-2.3-1-.4-.6-.7-1.5-.7-2.8v-6.1h1.7v6c0 .8.1 1.5.4 2 .3.3.8.5 1.4.5.5 0 1-.1 1.4-.4l1.2-1.2v-7h1.7v9.8h-1.4l-.1-1.5c-.5.5-1 1-1.5 1.3-.5.3-1.1.4-1.8.4zm8-.2v-9.7h1.7v9.7h-1.7zm.9-11.7c-.3 0-.6-.1-.8-.3a1 1 0 0 1-.4-.8c0-.3.1-.6.4-.7.2-.2.5-.3.8-.3.3 0 .6 0 .8.3.2.2.3.4.3.7 0 .3 0 .6-.3.8-.2.2-.5.3-.8.3zm12 12a4.7 4.7 0 0 1-3.3-1.4 5 5 0 0 1-1-1.6c-.2-.6-.3-1.3-.3-2.1s0-1.5.3-2.2c.3-.6.6-1.2 1-1.6a4.4 4.4 0 0 1 3-1.4 4 4 0 0 1 1.7.4c.5.2.9.5 1.2.9.3.4.6.9.7 1.4.2.6.3 1.2.3 1.9v.9h-6.6c0 1 .4 2 1 2.5a3 3 0 0 0 2.2 1 4.1 4.1 0 0 0 2.5-.8l.5 1-1.4.7c-.5.2-1 .3-1.8.3zm-3-6h5.2c0-1-.2-1.7-.7-2.2-.4-.5-1-.8-1.7-.8l-1 .2-.9.6c-.2.3-.5.6-.6 1a4 4 0 0 0-.4 1.3zm11.8 6c-1 0-1.8-.4-2.2-1-.5-.7-.7-1.6-.7-2.9v-6.1h1.6v6c0 .8.2 1.5.4 2 .3.3.8.5 1.4.5.5 0 1-.1 1.4-.4.4-.2.8-.7 1.2-1.2v-7h1.7v9.8h-1.4l-.1-1.5c-.5.5-1 1-1.5 1.3a3 3 0 0 1-1.7.4zm6.7-.3l3.2-5-3-4.7h1.8l1.3 2.1a77 77 0 0 0 1 1.6h.1l.4-.8.5-.8 1.2-2.1h1.7l-3 4.8 3.2 4.9h-1.8l-1.4-2.3a200.7 200.7 0 0 0-1-1.7h-.1a24.1 24.1 0 0 0-1 1.7l-1.3 2.3h-1.8zm-511 29.2a3 3 0 0 1-2-.7c-.5-.5-.8-1.1-.8-2 0-1 .5-1.9 1.4-2.5 1-.5 2.5-1 4.6-1.2l-.1-.9c0-.3-.2-.5-.3-.7l-.6-.6-1-.2a4 4 0 0 0-1.6.3l-1.3.7-.7-1.1c.5-.3 1-.6 1.7-.8.6-.3 1.4-.5 2.2-.5 1.2 0 2 .4 2.5 1.1.6.8.8 1.7.8 3v5.9h-1.3l-.2-1.2c-.5.4-1 .8-1.5 1-.6.3-1.1.4-1.8.4zm.5-1.3c.5 0 1 0 1.4-.3l1.3-1V366l-2 .4c-.6.1-1 .3-1.4.5a2 2 0 0 0-.8.7l-.2.9c0 .5.2 1 .5 1.2.3.2.7.3 1.2.3zm10.2 1.3c-1 0-1.8-.3-2.2-1-.5-.6-.7-1.5-.7-2.8v-6.1h1.6v6c0 .8.2 1.5.4 2 .3.3.8.5 1.4.5.5 0 1-.1 1.4-.4.4-.2.8-.7 1.3-1.2v-7h1.6v9.8h-1.4l-.1-1.5c-.5.5-1 1-1.5 1.3-.5.3-1 .4-1.7.4zm10.6 0c-.7 0-1.3 0-2-.3l-1.6-1 .8-1.1 1.3.8c.5.2 1 .4 1.6.4.6 0 1-.2 1.4-.5.3-.3.5-.6.5-1 0-.3 0-.5-.2-.7l-.5-.5-.7-.4c-.3 0-.5-.2-.8-.3l-1-.4a5 5 0 0 1-1-.6 3 3 0 0 1-.6-.7 2 2 0 0 1-.3-1.1c0-.4 0-.8.2-1a2.8 2.8 0 0 1 1.7-1.5 4 4 0 0 1 1.4-.3c.6 0 1.2.1 1.7.4l1.4.7-.8 1-1-.5-1.2-.3c-.7 0-1.1.2-1.4.4-.3.3-.4.6-.4 1 0 .2 0 .4.2.6 0 .2.2.3.4.5l.7.3.8.3a22.6 22.6 0 0 1 2 1l.7.8c.2.3.3.7.3 1.1a2.8 2.8 0 0 1-1 2c-.2.3-.6.5-1 .7-.5.2-1 .2-1.5.2zm8.4 0c-.7 0-1.3 0-2-.3l-1.6-1 .8-1.1 1.3.8c.5.2 1 .4 1.6.4.6 0 1-.2 1.4-.5.3-.3.5-.6.5-1 0-.3 0-.5-.2-.7l-.5-.5-.7-.4c-.3 0-.6-.2-.8-.3l-1-.4a5 5 0 0 1-1-.6 3 3 0 0 1-.7-.7 2.5 2.5 0 0 1 .6-3 3 3 0 0 1 1-.6l1.5-.3c.6 0 1.2.1 1.7.4.5.2 1 .4 1.3.7l-.8 1-1-.5c-.3-.2-.7-.3-1.2-.3-.6 0-1 .2-1.3.4-.3.3-.4.6-.4 1l.1.6.5.5.7.3.8.3a23 23 0 0 1 2 1l.7.8c.2.3.3.7.3 1.1a2.7 2.7 0 0 1-1 2c-.2.3-.6.5-1 .7-.5.2-1 .2-1.6.2zm5.9-.2v-9.7h1.6v9.7h-1.6zm.8-11.7c-.3 0-.6-.1-.8-.3a1 1 0 0 1-.4-.8c0-.3.1-.6.3-.7.3-.2.5-.3.9-.3.3 0 .6 0 .8.3.2.2.3.4.3.7 0 .3-.1.6-.3.8-.2.2-.5.3-.8.3zm11.8 12a4.2 4.2 0 0 1-3.1-1.4 5.2 5.2 0 0 1-1.4-3.7c0-.8.2-1.6.4-2.2.3-.6.6-1.2 1-1.6a4.2 4.2 0 0 1 3.1-1.4 4 4 0 0 1 1.7.4c.6.2 1 .5 1.5 1 .4.4.7 1 1 1.6.2.6.3 1.3.3 2.2 0 .8 0 1.5-.3 2.1-.3.6-.6 1.2-1 1.6-.4.4-1 .8-1.5 1-.5.2-1 .3-1.7.3zm0-1.4l1.2-.3.9-.7.5-1.2c.2-.5.2-1 .2-1.5l-.2-1.6c0-.4-.3-.8-.5-1.2-.3-.3-.6-.6-1-.7-.3-.2-.6-.3-1-.3-.5 0-.9.1-1.2.3-.3.1-.6.4-.9.7l-.6 1.2-.2 1.6.2 1.5.6 1.2.9.7c.4.2.7.3 1.1.3zm7.1 1.1v-9.7h1.4l.1 1.4 1.5-1.2c.5-.3 1.1-.5 1.8-.5 1 0 1.8.4 2.3 1 .4.6.7 1.6.7 2.8v6.2h-1.7v-6c0-.9-.1-1.5-.4-2-.3-.3-.8-.5-1.4-.5-.5 0-1 0-1.3.3a8 8 0 0 0-1.4 1.2v7h-1.6zm14 .2c-.5 0-1 0-1.3-.2l-.9-.7c-.2-.2-.3-.6-.4-1l-.2-1.3v-5.4H300v-1.2l1.5-.1.2-2.7h1.4v2.7h2.6v1.3H303v5.4c0 .6.1 1 .3 1.4.2.3.6.5 1.2.5h.6l.5-.3.3 1.3a6.6 6.6 0 0 1-1.8.3zm10.5 0c-1 0-1.8-.3-2.2-1-.5-.6-.7-1.5-.7-2.8v-6.1h1.6v6c0 .8.2 1.5.4 2 .3.3.8.5 1.4.5.5 0 1-.1 1.4-.4a7 7 0 0 0 1.3-1.2v-7h1.6v9.8H318l-.1-1.5c-.5.5-1 1-1.5 1.3-.5.3-1 .4-1.8.4zm8-.2v-9.7h1.4l.2 1.4 1.5-1.2c.5-.3 1.1-.5 1.8-.5 1 0 1.8.4 2.2 1 .5.6.8 1.6.8 2.8v6.2h-1.7v-6c0-.9-.1-1.5-.4-2-.3-.3-.8-.5-1.4-.5-.5 0-1 0-1.4.3a8 8 0 0 0-1.3 1.2v7h-1.6zm15 0v-9.7h1.7v9.7h-1.7zm.9-11.7c-.4 0-.6-.1-.9-.3a1 1 0 0 1-.3-.8c0-.3.1-.6.3-.7.3-.2.5-.3.9-.3.3 0 .6 0 .8.3.2.2.3.4.3.7 0 .3-.1.6-.3.8-.2.2-.5.3-.8.3zm4 11.7v-9.7h1.4l.1 1.4h.1a7 7 0 0 1 1.4-1.2 3 3 0 0 1 1.6-.5c.8 0 1.4.2 1.8.5.4.4.7.8.9 1.4.5-.6 1-1 1.5-1.3a3 3 0 0 1 1.7-.6c1 0 1.7.4 2.2 1 .5.6.8 1.6.8 2.8v6.2h-1.7v-6c0-.9-.1-1.5-.4-2-.3-.3-.8-.5-1.4-.5-.7 0-1.5.5-2.4 1.5v7h-1.7v-6c0-.9-.1-1.5-.4-2-.3-.3-.7-.5-1.4-.5s-1.5.5-2.4 1.5v7h-1.7zm16.6 4.1v-13.8h1.4l.1 1.1 1.5-1c.6-.2 1.1-.4 1.7-.4.6 0 1.2.2 1.6.4.5.2 1 .6 1.2 1 .4.4.6 1 .8 1.6l.2 2c0 .8 0 1.6-.3 2.2-.2.7-.5 1.2-1 1.7a3.8 3.8 0 0 1-3 1.4l-1.2-.4a7 7 0 0 1-1.4-.8v5h-1.6zm4-5.2c.4 0 .8-.1 1.1-.3.4-.2.7-.4 1-.8l.5-1.2c.2-.5.2-1 .2-1.6l-.1-1.5-.5-1a2 2 0 0 0-.8-.8c-.3-.2-.7-.3-1.1-.3-.4 0-.9.1-1.3.4a8 8 0 0 0-1.3 1v5c.4.4.8.7 1.2.8l1.1.3zm9 1.3a3 3 0 0 1-2-.7c-.5-.5-.8-1.1-.8-2 0-1 .5-1.9 1.5-2.5 1-.5 2.4-1 4.5-1.2l-.1-.9a2 2 0 0 0-.3-.7c-.1-.3-.3-.4-.6-.6l-1-.2c-.6 0-1 .1-1.6.3l-1.3.7-.6-1.1 1.6-.8c.7-.3 1.4-.5 2.2-.5 1.2 0 2 .4 2.6 1.1.5.8.8 1.7.8 3v5.9h-1.4l-.1-1.2h-.1c-.5.4-1 .8-1.5 1-.5.3-1.1.4-1.7.4zm.6-1.3c.4 0 .9 0 1.3-.3l1.3-1V366l-2 .4c-.6.1-1 .3-1.4.5a2 2 0 0 0-.7.7c-.2.3-.3.5-.3.9 0 .5.2 1 .5 1.2.4.2.8.3 1.3.3zm11.2 1.3a4.5 4.5 0 0 1-3.3-1.3 5 5 0 0 1-1-1.6 6.6 6.6 0 0 1 0-4.3 5 5 0 0 1 1.1-1.6 4.4 4.4 0 0 1 3.3-1.4c.6 0 1.2.1 1.6.4.5.2.9.5 1.2.8l-.8 1-1-.6-1-.2a2.8 2.8 0 0 0-2.1 1 4 4 0 0 0-.7 1.2 5.1 5.1 0 0 0 .6 4.3l1 .7a3 3 0 0 0 2.4 0c.4-.2.8-.4 1-.7l.8 1.1c-.4.4-1 .7-1.5 1l-1.6.2zm8.1 0c-.5 0-1 0-1.3-.2a2.3 2.3 0 0 1-1.3-1.7l-.2-1.3v-5.4h-1.4v-1.2l1.5-.1.2-2.7h1.4v2.7h2.6v1.3H391v5.4c0 .6.1 1 .4 1.4.2.3.6.5 1.1.5h.6l.5-.3.4 1.3a6.6 6.6 0 0 1-1.8.3zm7.7-.2v-9.7h1.4l.1 1.4 1.5-1.2c.6-.3 1.2-.5 1.8-.5 1 0 1.8.4 2.3 1 .4.6.7 1.6.7 2.8v6.2h-1.7v-6c0-.9-.1-1.5-.4-2-.3-.3-.8-.5-1.4-.5-.5 0-1 0-1.3.3a8 8 0 0 0-1.4 1.2v7h-1.6zm14.7.2a4.2 4.2 0 0 1-3-1.3 5.2 5.2 0 0 1-1.4-3.7c0-.8 0-1.6.3-2.2.3-.6.6-1.2 1-1.6a4.4 4.4 0 0 1 4.9-1 4.3 4.3 0 0 1 2.4 2.6c.2.6.4 1.3.4 2.2 0 .8-.2 1.5-.4 2.1-.3.6-.6 1.2-1 1.6a4.4 4.4 0 0 1-3.2 1.3zm0-1.3l1.2-.3.9-.7.5-1.2c.2-.5.2-1 .2-1.5l-.2-1.6-.5-1.2c-.3-.3-.6-.6-1-.7-.3-.2-.7-.3-1-.3-.5 0-.9.1-1.2.3l-1 .7a4 4 0 0 0-.5 1.2l-.2 1.6.2 1.5.6 1.2.9.7c.4.2.7.3 1.2.3zm7.1 1.1v-9.7h1.4l.1 1.4 1.5-1.2c.6-.3 1.2-.5 1.8-.5 1 0 1.8.4 2.3 1 .5.6.7 1.6.7 2.8v6.2h-1.7v-6c0-.9-.1-1.5-.4-2-.3-.3-.8-.5-1.4-.5-.5 0-1 0-1.3.3a8 8 0 0 0-1.4 1.2v7h-1.6zm15 0v-9.7h1.3l.2 1.4a9 9 0 0 1 1.5-1.2c.5-.3 1.1-.5 1.8-.5 1 0 1.8.4 2.2 1 .5.6.8 1.6.8 2.8v6.2h-1.7v-6c0-.9-.1-1.5-.4-2-.3-.3-.8-.5-1.4-.5-.5 0-1 0-1.4.3l-1.3 1.2v7h-1.6zm14.8.2a4.7 4.7 0 0 1-3.3-1.3 5 5 0 0 1-1-1.6c-.2-.6-.3-1.3-.3-2.1s0-1.5.3-2.2c.3-.6.6-1.2 1-1.6a4.4 4.4 0 0 1 3-1.4 4 4 0 0 1 1.7.4c.5.2.9.5 1.2.9l.8 1.4.2 1.9v.9h-6.6c0 1 .4 2 1 2.5a3 3 0 0 0 2.2 1 4.2 4.2 0 0 0 2.5-.8l.5 1-1.4.7c-.5.2-1 .3-1.7.3zm-3-5.8h5.2c0-1-.3-1.8-.7-2.3-.4-.5-1-.8-1.7-.8l-1 .2-.9.6a3 3 0 0 0-.6 1 4 4 0 0 0-.3 1.3zm2.5-5.9l-.9-.8 2.8-3.3 1.2 1-3.1 3.1zm9.6 16a7 7 0 0 1-1.7-.2l-1.2-.5c-.4-.2-.7-.5-.9-.8l-.2-1.1c0-.4 0-.8.3-1.2l1-1v-.1l-.6-.6-.2-1c0-.4.1-.8.3-1l.8-.8-1-1.1c-.2-.5-.3-1-.3-1.6 0-.5 0-1 .3-1.4.2-.5.4-.8.8-1.1a3.8 3.8 0 0 1 3.3-.9l.6.2h3.4v1.2h-2l.6.9.2 1.1c0 .6 0 1-.3 1.5-.1.4-.4.7-.7 1-.3.3-.7.5-1.2.7a3.8 3.8 0 0 1-2 .1 4 4 0 0 1-.8-.2l-.4.5a1 1 0 0 0-.2.6c0 .3 0 .6.3.8.3.2.7.3 1.4.3h1.9c1.1 0 2 .2 2.5.6.6.3.9 1 .9 1.7 0 .5-.1.9-.4 1.3-.2.4-.5.8-1 1a6.5 6.5 0 0 1-3.6 1zm0-8.7l.8-.1.6-.5.5-.7.1-1c0-.7-.2-1.3-.6-1.7-.4-.4-.8-.6-1.4-.6s-1.1.2-1.5.6c-.4.4-.6 1-.6 1.7 0 .4 0 .7.2 1l.4.7.6.5.8.1zm.2 7.5a4.1 4.1 0 0 0 2.3-.6l.6-.6c.2-.2.2-.5.2-.7 0-.5-.2-.8-.5-1-.3-.2-.8-.2-1.5-.2h-2.3l-.6-.2c-.3.2-.6.5-.7.8l-.3.8c0 .6.3 1 .8 1.3a4 4 0 0 0 2 .4zm8.3-3c-.6 0-1-.3-1.3-.6-.3-.4-.4-1-.4-1.7v-12.2h1.6v12.4c0 .2 0 .4.2.5l.3.2H469.6l.2 1.2-.3.1h-.6zm3.4-.3v-9.7h1.6v9.7h-1.6zm.8-11.7c-.3 0-.6-.1-.8-.3a1 1 0 0 1-.3-.8c0-.3 0-.6.3-.7.2-.2.5-.3.8-.3.4 0 .6 0 .8.3.3.2.4.4.4.7 0 .3-.1.6-.4.8a1 1 0 0 1-.8.3zm7.4 16.2a7 7 0 0 1-1.7-.2l-1.2-.5c-.4-.2-.7-.5-.9-.8a2 2 0 0 1-.2-1.1c0-.4 0-.8.3-1.2l1-1v-.1a2 2 0 0 1-.5-.6c-.2-.3-.3-.6-.3-1s.1-.8.4-1c.2-.4.4-.6.7-.8l-1-1.1c-.2-.5-.3-1-.3-1.6a3.3 3.3 0 0 1 1-2.5c.4-.3.8-.6 1.3-.7a4.2 4.2 0 0 1 2.8 0h3.4v1.2h-2c.2.3.4.5.5.9.2.3.3.7.3 1.1 0 .6-.1 1-.3 1.5l-.8 1-1.1.7a4 4 0 0 1-2.1.1 4 4 0 0 1-.8-.2l-.4.5a1 1 0 0 0-.2.6c0 .3.1.6.4.8.2.2.7.3 1.3.3h1.9c1.1 0 2 .2 2.5.6.6.3 1 1 1 1.7 0 .5-.2.9-.4 1.3s-.6.8-1 1c-.4.4-1 .6-1.6.8-.6.2-1.2.3-2 .3zm0-8.7l.7-.1.7-.5.5-.7.1-1c0-.7-.2-1.3-.6-1.7a2 2 0 0 0-1.5-.6 2 2 0 0 0-1.4.6c-.4.4-.6 1-.6 1.7l.1 1a2 2 0 0 0 1.1 1.2l.8.1zm.2 7.5a4 4 0 0 0 2.2-.6l.6-.6c.2-.2.2-.5.2-.7 0-.5-.1-.8-.5-1-.3-.2-.8-.2-1.4-.2h-2.3l-.7-.2c-.3.2-.6.5-.7.8-.2.3-.2.6-.2.8 0 .6.2 1 .7 1.3a4 4 0 0 0 2.1.4zm10.2-3a4.6 4.6 0 0 1-3.3-1.4 5 5 0 0 1-1-1.6c-.2-.6-.3-1.3-.3-2.1s0-1.5.3-2.2c.3-.6.6-1.2 1-1.6a4.1 4.1 0 0 1 3-1.4 4 4 0 0 1 1.7.4c.5.2.9.5 1.2.9l.8 1.4.2 1.9v.9h-6.6c0 1 .4 2 1 2.5a3 3 0 0 0 2.2 1 4.2 4.2 0 0 0 2.5-.8l.5 1-1.4.7c-.5.2-1.1.3-1.8.3zm-3-6h5.2c0-1-.3-1.7-.7-2.2a2 2 0 0 0-1.7-.8l-1 .2-.9.6-.6 1c-.2.3-.3.8-.3 1.3zm11 6a3 3 0 0 1-2-.8c-.6-.5-.9-1.1-.9-2 0-1 .5-1.9 1.4-2.5 1-.5 2.5-1 4.6-1.2l-.1-.9a2 2 0 0 0-.3-.7l-.6-.6-1-.2c-.6 0-1.1.1-1.6.3l-1.3.7-.7-1.1c.5-.3 1-.6 1.7-.8.6-.3 1.4-.5 2.1-.5 1.2 0 2 .4 2.6 1.1.6.8.8 1.7.8 3v5.9h-1.3l-.2-1.2c-.5.4-1 .8-1.5 1-.6.3-1.1.4-1.8.4zm.4-1.4c.5 0 1 0 1.4-.3l1.3-1V366l-2 .4c-.6.1-1 .3-1.4.5a2 2 0 0 0-.8.7l-.2.9c0 .5.2 1 .5 1.2.4.2.8.3 1.3.3zm11.7 1.3c-.5 0-1 0-1.4-.3-.5-.2-1-.5-1.4-.9l-.2 1h-1.3v-14.2h1.6v5.6l1.4-1c.6-.2 1-.4 1.6-.4.7 0 1.2.2 1.7.4s.9.6 1.2 1c.3.4.6 1 .7 1.6a7.4 7.4 0 0 1 0 4.2l-1 1.7a4 4 0 0 1-1.3 1c-.5.2-1 .3-1.6.3zm-.3-1.3a2.5 2.5 0 0 0 2-1l.6-1.3.2-1.6c0-.5 0-1-.2-1.5 0-.4-.2-.8-.4-1-.2-.4-.5-.7-.8-.8-.4-.2-.7-.3-1.2-.3-.8 0-1.6.5-2.6 1.3v5.1c.4.4.9.7 1.3.8l1 .3zm8.8 1.3c-.6 0-1.1-.2-1.4-.5-.2-.4-.4-1-.4-1.7v-12.2h1.7v12.4l.1.5.3.2h.4l.2 1.2-.4.1a3 3 0 0 1-.5 0zm7.3 0c-.7 0-1.3 0-1.9-.3-.5-.2-1-.6-1.5-1a5 5 0 0 1-1-1.6c-.2-.6-.3-1.3-.3-2.1s.1-1.5.4-2.2a4.7 4.7 0 0 1 2.4-2.6c.5-.2 1-.4 1.6-.4.6 0 1.1.1 1.6.4.5.2 1 .5 1.2.9.4.4.6.9.8 1.4.2.6.2 1.2.2 1.9v.9h-6.6c0 1 .4 2 1 2.5a3 3 0 0 0 2.3 1l1.2-.3 1.2-.5.6 1-1.5.7c-.5.2-1 .3-1.7.3zm-3-5.8h5.1c0-1-.2-1.8-.6-2.3-.4-.5-1-.8-1.8-.8l-1 .2-.8.6a3.5 3.5 0 0 0-1 2.3zm15.5 5.8c-.7 0-1.3 0-2-.3l-1.6-1 .8-1.1 1.3.8c.4.2 1 .4 1.6.4.6 0 1-.2 1.4-.5.3-.3.5-.6.5-1 0-.3 0-.5-.2-.7l-.5-.5a3 3 0 0 0-.7-.4c-.3 0-.6-.2-.8-.3l-1-.4a5 5 0 0 1-1-.6 3 3 0 0 1-.7-.7c-.2-.3-.2-.7-.2-1.1a2.5 2.5 0 0 1 .8-2l1-.5 1.5-.3c.6 0 1.2.1 1.7.4.5.2 1 .4 1.3.7l-.8 1-1-.5c-.4-.2-.7-.3-1.2-.3-.6 0-1 .2-1.3.4-.3.3-.5.6-.5 1l.2.6.5.5.7.3a69.3 69.3 0 0 0 1.9.7l1 .6.6.8c.2.3.3.7.3 1.1a2.7 2.7 0 0 1-1 2c-.2.3-.6.5-1 .7-.5.2-1 .2-1.6.2zm8.7 0c-1 0-1.8-.3-2.3-1-.5-.6-.7-1.5-.7-2.8v-6.1h1.7v6c0 .8 0 1.5.4 2 .3.3.7.5 1.4.5.5 0 1-.1 1.3-.4.4-.2.8-.7 1.3-1.2v-7h1.6v9.8h-1.3l-.2-1.5c-.5.5-1 1-1.5 1.3-.5.3-1 .4-1.8.4zm8-.2v-9.7h1.4l.1 1.7c.4-.6.8-1 1.3-1.4.4-.4 1-.6 1.5-.6l1 .2-.3 1.5-.4-.1h-.5c-.4 0-.9 0-1.3.4-.5.3-.8 1-1.2 1.8v6.2H556zm12.7.2c-.6 0-1-.2-1.4-.5a3 3 0 0 1-.3-1.7v-12.2h1.6v12.4l.1.5.4.2h.3l.2 1.2-.3.1a3 3 0 0 1-.6 0zm3.7-8.8l-.3-3.4-.1-1.8h1.8l-.1 1.8-.3 3.4h-1zm8 8.8c-.7 0-1.3 0-1.9-.3a4.7 4.7 0 0 1-2.5-2.6c-.2-.6-.3-1.3-.3-2.1s.1-1.5.4-2.2c.2-.6.6-1.2 1-1.6a4.1 4.1 0 0 1 3-1.4 4 4 0 0 1 1.6.4c.5.2 1 .5 1.2.9.4.4.6.9.8 1.4.2.6.3 1.2.3 1.9v.5l-.1.4h-6.6c.1 1 .4 2 1 2.5a3 3 0 0 0 2.3 1 4.2 4.2 0 0 0 2.4-.8l.6 1-1.4.7a5 5 0 0 1-1.8.3zm-3-5.8h5.1c0-1-.2-1.8-.6-2.3-.5-.5-1-.8-1.8-.8a2.5 2.5 0 0 0-1.8.8 3 3 0 0 0-.7 1l-.3 1.3zm9 5.6v-9.7h1.3l.1 1.4h.1l1.5-1.2c.5-.3 1-.5 1.8-.5 1 0 1.7.4 2.2 1 .5.6.7 1.6.7 2.8v6.2h-1.6v-6c0-.9-.2-1.5-.5-2-.3-.3-.7-.5-1.4-.5-.5 0-1 0-1.3.3a8 8 0 0 0-1.3 1.2v7h-1.7zm13 0l-3.5-9.7h1.7l1.8 5.5.5 1.4.5 1.5.5-1.5.4-1.4 1.9-5.5h1.6l-3.4 9.7h-2zm7.2 0v-9.7h1.7v9.7h-1.7zm.9-11.7c-.3 0-.6-.1-.8-.3a1 1 0 0 1-.4-.8c0-.3.1-.6.4-.7.2-.2.5-.3.8-.3.3 0 .6 0 .8.3.2.2.3.4.3.7 0 .3 0 .6-.3.8-.2.2-.5.3-.8.3zm4 11.7v-9.7h1.4l.2 1.7 1.2-1.4a2.6 2.6 0 0 1 2.6-.3l-.3 1.4-.4-.1h-.6c-.4 0-.8 0-1.3.4a4 4 0 0 0-1.1 1.8v6.2h-1.6zm10.6.2a4.2 4.2 0 0 1-3.2-1.3c-.4-.4-.7-1-1-1.6-.2-.6-.3-1.3-.3-2.1s0-1.6.3-2.2c.3-.6.6-1.2 1-1.6.5-.5 1-.8 1.5-1a4.4 4.4 0 0 1 5.8 2.6c.3.6.4 1.3.4 2.2 0 .8-.1 1.5-.4 2.1-.2.6-.6 1.2-1 1.6-.4.4-.9.8-1.4 1-.6.2-1.1.3-1.7.3zm0-1.3c.4 0 .8-.1 1.1-.3.4-.2.7-.4.9-.7l.6-1.2.2-1.5c0-.5 0-1.1-.2-1.6l-.6-1.2c-.2-.3-.5-.6-.9-.7-.3-.2-.7-.3-1.1-.3l-1.2.3c-.3.1-.6.4-.9.7a4 4 0 0 0-.5 1.2c-.2.5-.2 1-.2 1.6l.2 1.5.5 1.2 1 .7c.3.2.7.3 1 .3zm7 1.1v-9.7h1.4l.1 1.4a8 8 0 0 1 1.6-1.2c.5-.3 1-.5 1.8-.5 1 0 1.7.4 2.2 1 .5.6.7 1.6.7 2.8v6.2h-1.6v-6c0-.9-.2-1.5-.5-2-.3-.3-.7-.5-1.4-.5-.5 0-1 0-1.3.3l-1.3 1.2v7H629zm11 0v-9.7h1.3l.2 1.4 1.5-1.2c.5-.3 1.1-.5 1.8-.5 1 0 1.8.4 2.2 1 .5.6.8 1.6.8 2.8v6.2h-1.7v-6c0-.9-.1-1.5-.4-2-.3-.3-.8-.5-1.4-.5-.5 0-1 0-1.4.3a8 8 0 0 0-1.3 1.2v7h-1.6zm14.9.2c-.7 0-1.3 0-1.9-.3-.5-.2-1-.6-1.5-1-.4-.4-.7-1-1-1.6-.2-.6-.3-1.3-.3-2.1s.1-1.5.4-2.2c.2-.6.5-1.2 1-1.6a4.1 4.1 0 0 1 3-1.4 4 4 0 0 1 1.6.4c.5.2.9.5 1.2.9l.8 1.4.2 1.9v.9h-6.6c0 1 .4 2 1 2.5a3 3 0 0 0 2.3 1l1.2-.3a6 6 0 0 0 1.2-.5l.6 1-1.5.7a5 5 0 0 1-1.7.3zm-3.1-5.8h5.2c0-1-.2-1.8-.6-2.3-.5-.5-1-.8-1.8-.8l-1 .2-.8.6a3 3 0 0 0-.7 1c-.1.3-.3.8-.3 1.3zm9.1 5.6v-9.7h1.4l.1 1.4a7 7 0 0 1 1.4-1.2 3 3 0 0 1 1.7-.5c.7 0 1.3.2 1.7.5.4.4.8.8 1 1.4.5-.6 1-1 1.5-1.3a3 3 0 0 1 1.7-.6c1 0 1.7.4 2.2 1 .5.6.7 1.6.7 2.8v6.2h-1.6v-6c0-.9-.2-1.5-.5-2-.3-.3-.7-.5-1.3-.5-.8 0-1.6.5-2.5 1.5v7H667v-6c0-.9-.2-1.5-.4-2-.3-.3-.8-.5-1.4-.5-.8 0-1.6.5-2.5 1.5v7H661zm20.5.2c-.6 0-1.2 0-1.8-.3-.6-.2-1-.6-1.5-1a5 5 0 0 1-1-1.6c-.2-.6-.3-1.3-.3-2.1s0-1.5.3-2.2c.3-.6.6-1.2 1-1.6a4.1 4.1 0 0 1 3-1.4c.6 0 1.2.1 1.7.4.5.2.9.5 1.2.9.3.4.6.9.7 1.4.2.6.3 1.2.3 1.9v.9h-6.6a4 4 0 0 0 1 2.5 3 3 0 0 0 2.2 1c.5 0 1-.1 1.3-.3a6 6 0 0 0 1.1-.5l.6 1-1.4.7c-.5.2-1.1.3-1.8.3zm-3-5.8h5.2c0-1-.2-1.8-.7-2.3-.4-.5-1-.8-1.7-.8l-1 .2-.9.6a3.5 3.5 0 0 0-1 2.3zm9 5.6v-9.7h1.4l.1 1.4a8 8 0 0 1 1.5-1.2c.5-.3 1.1-.5 1.8-.5 1 0 1.8.4 2.3 1 .4.6.7 1.6.7 2.8v6.2h-1.7v-6c0-.9-.1-1.5-.4-2-.3-.3-.8-.5-1.4-.5-.5 0-1 0-1.3.3L689 364v7h-1.6zm14 .2c-.5 0-1 0-1.3-.2-.4-.2-.7-.4-.9-.7-.2-.2-.4-.6-.4-1l-.2-1.3v-5.4h-1.4v-1.2l1.5-.1.2-2.7h1.4v2.7h2.6v1.3h-2.6v5.4c0 .6 0 1 .3 1.4.2.3.6.5 1.2.5h.5l.6-.3.3 1.3a6.6 6.6 0 0 1-1.8.3zm4.7 0c-.3 0-.6 0-.9-.3-.2-.2-.3-.5-.3-.9s0-.7.3-1c.3-.2.5-.3.9-.3.3 0 .6.1.8.4.2.2.4.5.4.9s-.2.7-.4.9a1 1 0 0 1-.8.3z"/></svg>